<svg width="74" height="45" viewBox="0 0 74 45" fill="none" xmlns="http://www.w3.org/2000/svg">
<mask id="path-1-inside-1_56_3078" fill="white">
<path fill-rule="evenodd" clip-rule="evenodd" d="M38.5713 44.0656C58.9607 42.6401 74.8084 31.741 73.968 19.7219C73.1277 7.70274 55.9177 -0.885097 35.5283 0.540404C15.1389 1.96591 -0.708764 12.8649 0.13154 24.8841C0.43221 29.1847 2.82867 33.0459 6.71667 36.1664L3.63961 43.6462C3.40594 44.2143 4.00316 44.7674 4.55163 44.491L13.2559 40.1037C20.0704 43.1871 28.9682 44.7369 38.5713 44.0656Z"/>
</mask>
<path fill-rule="evenodd" clip-rule="evenodd" d="M38.5713 44.0656C58.9607 42.6401 74.8084 31.741 73.968 19.7219C73.1277 7.70274 55.9177 -0.885097 35.5283 0.540404C15.1389 1.96591 -0.708764 12.8649 0.13154 24.8841C0.43221 29.1847 2.82867 33.0459 6.71667 36.1664L3.63961 43.6462C3.40594 44.2143 4.00316 44.7674 4.55163 44.491L13.2559 40.1037C20.0704 43.1871 28.9682 44.7369 38.5713 44.0656Z" fill="white"/>
<path d="M73.968 19.7219L73.3063 19.7681L73.968 19.7219ZM38.5713 44.0656L38.6176 44.7273L38.5713 44.0656ZM35.5283 0.540404L35.482 -0.12132L35.5283 0.540404ZM0.13154 24.8841L0.793264 24.8378L0.13154 24.8841ZM6.71667 36.1664L7.33012 36.4187L7.51895 35.9597L7.13186 35.649L6.71667 36.1664ZM3.63961 43.6462L4.25307 43.8986H4.25307L3.63961 43.6462ZM4.55163 44.491L4.85019 45.0833L4.55163 44.491ZM13.2559 40.1037L13.5294 39.4994L13.2405 39.3687L12.9574 39.5114L13.2559 40.1037ZM73.3063 19.7681C73.7034 25.4481 70.1614 30.9826 63.8549 35.3198C57.5629 39.647 48.6224 42.6979 38.525 43.4038L38.6176 44.7273C48.9095 44.0077 58.0876 40.8963 64.6067 36.4129C71.1114 31.9394 75.073 26.0148 74.6298 19.6756L73.3063 19.7681ZM35.5746 1.20213C45.672 0.496179 54.95 2.27332 61.7829 5.68295C68.6315 9.10041 72.9092 14.0882 73.3063 19.7681L74.6298 19.6756C74.1866 13.3365 69.4391 8.02073 62.3753 4.49586C55.2957 0.96316 45.774 -0.840872 35.482 -0.12132L35.5746 1.20213ZM0.793264 24.8378C0.396155 19.1578 3.93823 13.6234 10.2447 9.28619C16.5367 4.95894 25.4771 1.90808 35.5746 1.20213L35.482 -0.12132C25.19 0.598233 16.012 3.70964 9.49289 8.19307C2.98823 12.6666 -0.973379 18.5912 -0.530184 24.9303L0.793264 24.8378ZM7.13186 35.649C3.34567 32.6103 1.07767 28.9058 0.793264 24.8378L-0.530184 24.9303C-0.213251 29.4635 2.31167 33.4815 6.30147 36.6837L7.13186 35.649ZM4.25307 43.8986L7.33012 36.4187L6.10321 35.914L3.02615 43.3939L4.25307 43.8986ZM4.25307 43.8986H4.25307L3.02615 43.3939C2.55881 44.5299 3.75325 45.6362 4.85019 45.0833L4.25307 43.8986ZM12.9574 39.5114L4.25307 43.8986L4.85019 45.0833L13.5545 40.6961L12.9574 39.5114ZM38.525 43.4038C29.0149 44.0687 20.2294 42.531 13.5294 39.4994L12.9825 40.7081C19.9114 43.8433 28.9216 45.4052 38.6176 44.7273L38.525 43.4038Z" fill="black" mask="url(#path-1-inside-1_56_3078)"/>
<path d="M14.5323 24.4751V24.9726H12.5423V24.4751H12.0448V23.9776H11.5473V20.4951H12.0448V19.9976H12.5423V19.5001H14.5323V19.9976H15.0298V20.4951H15.5273V20.9926H17.0199V19.0025H18.0149V25.4701H17.0199V23.4801H15.5273V23.9776H15.0298V24.4751H14.5323ZM13.0398 24.4751H14.0348V23.9776H14.5323V20.4951H14.0348V19.9976H13.0398V20.4951H12.5423V23.9776H13.0398V24.4751ZM17.0199 21.4901H15.5273V22.9826H17.0199V21.4901ZM20.0049 19.9976H24.9799V19.5001H20.0049V19.0025H25.9749V20.4951H20.9999V20.9926H25.9749V21.4901H20.5024V20.9926H20.0049V19.9976ZM26.4724 22.4851H19.5074V21.9876H26.4724V22.4851ZM25.9749 24.9726H25.4774V25.4701H20.5024V24.9726H20.0049V22.9826H25.9749V24.9726ZM24.9799 23.4801H20.9999V24.9726H24.9799V23.4801ZM33.935 25.4701H32.94V19.0025H33.935V25.4701ZM30.4525 24.9726H28.4625V24.4751H27.965V23.9776H27.4675V20.4951H27.965V19.9976H28.4625V19.5001H30.4525V19.9976H30.95V20.4951H31.4475V23.9776H30.95V24.4751H30.4525V24.9726ZM28.96 20.4951H28.4625V23.9776H28.96V24.4751H29.955V23.9776H30.4525V20.4951H29.955V19.9976H28.96V20.4951ZM35.925 21.4901H35.4275V19.9976H35.925V19.5001H36.4225V19.0025H38.4125V19.5001H38.9101V19.9976H39.4076V20.4951H40.9001V19.0025H41.8951V22.4851H40.9001V20.9926H39.4076V21.4901H38.9101V21.9876H38.4125V22.4851H36.4225V21.9876H35.925V21.4901ZM36.92 21.9876H37.915V21.4901H38.4125V19.9976H37.915V19.5001H36.92V19.9976H36.4225V21.4901H36.92V21.9876ZM35.925 24.9726H36.4225V24.4751H36.92V22.9826H37.915V24.4751H38.4125V24.9726H38.9101V25.4701H37.915V24.9726H36.92V25.4701H35.925V24.9726ZM39.9051 24.9726V24.4751H40.4026V22.9826H41.3976V24.4751H41.8951V24.9726H42.3926V25.4701H41.3976V24.9726H40.4026V25.4701H39.4076V24.9726H39.9051ZM49.3576 21.9876H50.8502V22.4851H49.3576V25.4701H48.3626V19.0025H49.3576V21.9876ZM46.3726 24.9726H43.8851V24.4751H43.3876V19.5001H46.8701V19.9976H44.3826V24.4751H45.8751V23.9776H46.8701V24.4751H46.3726V24.9726ZM60.8002 21.9876V20.9926H55.8252V20.4951H61.7953V23.4801H61.2978V23.9776H60.3027V23.4801H60.8002V22.4851H55.8252V21.9876H60.8002Z" fill="black"/>
</svg>
