<svg width="25" height="25" viewBox="0 0 25 25" fill="none" xmlns="http://www.w3.org/2000/svg">
<path d="M19.5116 20.4157H5.48859C4.95676 20.4157 4.52563 19.9846 4.52563 19.4527V5.42975C4.52563 4.89793 4.95676 4.4668 5.48859 4.4668H19.5116C20.0434 4.4668 20.4745 4.89793 20.4745 5.42975V19.4527C20.4745 19.9846 20.0434 20.4157 19.5116 20.4157Z" stroke="black" stroke-width="0.962952"/>
<path d="M4.74121 16.5417L9.33604 12.5619C9.98655 11.9985 10.9529 12.001 11.6005 12.5678L19.828 19.769" stroke="black" stroke-width="0.962952" stroke-linecap="round" stroke-linejoin="round"/>
<path d="M17.6727 8.56269C17.6727 7.8485 17.0938 7.26953 16.3796 7.26953C15.6654 7.26953 15.0864 7.8485 15.0864 8.56269C15.0864 9.27687 15.6654 9.85584 16.3796 9.85584C17.0938 9.85584 17.6727 9.27687 17.6727 8.56269Z" stroke="black" stroke-width="0.962952"/>
</svg>
