<svg width="25" height="25" viewBox="0 0 25 25" fill="none" xmlns="http://www.w3.org/2000/svg">
<path d="M12.4991 4.17041C17.4706 4.17041 21.5 7.31098 21.5 11.1861C21.5 15.0604 17.4706 18.201 12.5 18.201C12.0051 18.2001 11.5107 18.1686 11.0197 18.1067L7.24143 20.5778C6.812 20.805 6.66029 20.7801 6.83686 20.2238L7.60143 17.0713C5.13286 15.8198 3.5 13.6513 3.5 11.1861C3.5 7.31184 7.52857 4.17041 12.5 4.17041M17.564 11.079L18.824 9.85841C18.8967 9.7829 18.9373 9.68213 18.9371 9.57731C18.937 9.47249 18.8962 9.37181 18.8233 9.29647C18.7504 9.22114 18.6512 9.17704 18.5464 9.17346C18.4416 9.16988 18.3396 9.20709 18.2617 9.27727L16.6091 10.8767V9.55498C16.6091 9.44768 16.5665 9.34478 16.4906 9.26891C16.4148 9.19304 16.3119 9.15041 16.2046 9.15041C16.0973 9.15041 15.9944 9.19304 15.9185 9.26891C15.8426 9.34478 15.8 9.44768 15.8 9.55498V11.7467C15.7857 11.8093 15.7857 11.8744 15.8 11.937V13.1704C15.8 13.2777 15.8426 13.3806 15.9185 13.4565C15.9944 13.5324 16.0973 13.575 16.2046 13.575C16.3119 13.575 16.4148 13.5324 16.4906 13.4565C16.5665 13.3806 16.6091 13.2777 16.6091 13.1704V12.0021L16.9751 11.6481L18.1991 13.3907C18.2297 13.4342 18.2685 13.4713 18.3134 13.4998C18.3583 13.5283 18.4084 13.5476 18.4607 13.5568C18.5131 13.5659 18.5668 13.5647 18.6187 13.5531C18.6705 13.5415 18.7196 13.5198 18.7631 13.4893C18.8066 13.4587 18.8437 13.4199 18.8722 13.375C18.9007 13.3301 18.9201 13.2801 18.9292 13.2277C18.9384 13.1753 18.9371 13.1216 18.9256 13.0698C18.914 13.0179 18.8923 12.9688 18.8617 12.9253L17.564 11.079ZM15.0286 12.7281H13.7771V9.56784C13.7724 9.46387 13.7277 9.36575 13.6524 9.29387C13.5771 9.22199 13.4771 9.18188 13.373 9.18188C13.2689 9.18188 13.1689 9.22199 13.0936 9.29387C13.0183 9.36575 12.9736 9.46387 12.9689 9.56784V13.1327C12.9689 13.3556 13.1489 13.5373 13.3726 13.5373H15.0286C15.1359 13.5373 15.2388 13.4946 15.3146 13.4188C15.3905 13.3429 15.4331 13.24 15.4331 13.1327C15.4331 13.0254 15.3905 12.9225 15.3146 12.8466C15.2388 12.7707 15.1359 12.7281 15.0286 12.7281ZM10.0083 11.793L10.6049 10.329L11.1517 11.7921L10.0083 11.793ZM12.1709 12.2104L12.1726 12.1967C12.1723 12.0948 12.1334 11.9968 12.0637 11.9224L11.1671 9.52241C11.1296 9.40804 11.058 9.30786 10.9619 9.23526C10.8659 9.16266 10.75 9.1211 10.6297 9.11613C10.5087 9.11607 10.3904 9.15263 10.2905 9.22101C10.1906 9.28939 10.1138 9.38639 10.07 9.49927L8.64543 12.9921C8.60485 13.0915 8.6054 13.2029 8.64695 13.3018C8.6885 13.4007 8.76766 13.4791 8.867 13.5197C8.96634 13.5603 9.07774 13.5597 9.17667 13.5182C9.27561 13.4766 9.35399 13.3975 9.39457 13.2981L9.67914 12.6013H11.4534L11.7089 13.287C11.7263 13.3382 11.7538 13.3855 11.7898 13.4259C11.8258 13.4663 11.8696 13.4991 11.9185 13.5223C11.9674 13.5455 12.0205 13.5587 12.0746 13.561C12.1287 13.5633 12.1827 13.5547 12.2334 13.5358C12.2841 13.5169 12.3305 13.4879 12.3698 13.4507C12.4092 13.4136 12.4407 13.3688 12.4624 13.3193C12.4841 13.2697 12.4957 13.2162 12.4964 13.1621C12.4972 13.108 12.487 13.0543 12.4666 13.0041L12.1709 12.2104ZM9.32257 9.57212C9.3228 9.519 9.31252 9.46636 9.29232 9.41723C9.27212 9.3681 9.2424 9.32345 9.20488 9.28585C9.16736 9.24825 9.12277 9.21844 9.07368 9.19813C9.0246 9.17783 8.97198 9.16744 8.91886 9.16755H6.13743C6.03013 9.16755 5.92723 9.21018 5.85135 9.28605C5.77548 9.36192 5.73286 9.46483 5.73286 9.57212C5.73286 9.67942 5.77548 9.78233 5.85135 9.8582C5.92723 9.93407 6.03013 9.9767 6.13743 9.9767H7.13171V13.179C7.13171 13.2863 7.17434 13.3892 7.25021 13.4651C7.32608 13.5409 7.42899 13.5836 7.53629 13.5836C7.64358 13.5836 7.74649 13.5409 7.82236 13.4651C7.89823 13.3892 7.94086 13.2863 7.94086 13.179V9.9767H8.918C8.97119 9.97692 9.0239 9.96661 9.07309 9.94636C9.12228 9.92611 9.16697 9.89632 9.20458 9.85871C9.24219 9.82109 9.27199 9.7764 9.29224 9.72721C9.31249 9.67803 9.3228 9.62532 9.32257 9.57212Z" fill="black"/>
</svg>
