<svg width="359" height="555" viewBox="0 0 359 555" fill="none" xmlns="http://www.w3.org/2000/svg">
<rect x="1.38794" y="0.821289" width="357" height="552.579" rx="4.5" fill="white" stroke="black"/>
<path d="M265.481 485.375C264.8 485.497 263.751 485.907 263.074 486.737M262.457 489.175C262.302 488.122 262.595 487.324 263.074 486.737M263.074 486.737C263.89 486.961 265.359 488.086 264.71 490.796" stroke="black" stroke-width="0.663339"/>
<path d="M232.935 508.547C234.472 507.836 236.822 505.656 235.491 502.173C235.154 503.222 230.529 505.176 228.259 506.021C227.79 506.228 226.927 506.889 227.233 507.873C228.293 508.926 230.074 509.486 232.935 508.547Z" fill="#F7C8C8"/>
<path d="M227.616 504.475C227.025 504.551 226.433 504.551 225.854 504.455C225.881 505.478 226.243 506.891 227.233 507.873C226.927 506.889 227.79 506.228 228.259 506.021L227.616 504.475Z" fill="#AC7272"/>
<path d="M227.616 504.475C230.544 504.102 233.447 501.896 234.706 500.638C235.047 501.175 235.305 501.686 235.491 502.173M227.616 504.475C227.025 504.551 226.433 504.551 225.854 504.455C225.881 505.478 226.243 506.891 227.233 507.873M227.616 504.475L228.259 506.021M228.259 506.021C230.529 505.176 235.154 503.222 235.491 502.173M228.259 506.021C227.79 506.228 226.927 506.889 227.233 507.873M235.491 502.173C236.822 505.656 234.472 507.836 232.935 508.547C230.074 509.486 228.293 508.926 227.233 507.873M227.804 498.204C227.312 499.182 226.666 501.183 228.024 501.359" stroke="black" stroke-width="0.663339"/>
<path fill-rule="evenodd" clip-rule="evenodd" d="M224.425 515.088C223.377 515.114 222.302 515.118 221.199 515.098C220.027 514.894 218.596 514.53 217.069 513.987C213.512 517.486 206.609 524.835 207.456 526.246C207.607 526.498 207.879 526.731 208.233 526.957C209.962 528.067 213.637 529.034 214.639 531.544C214.859 532.096 214.95 532.722 214.863 533.441C215.469 533.58 216.386 533.578 217.069 533.081C217.368 536.401 217.967 543.572 217.967 545.7C217.967 548.359 226.994 550.132 229.284 548.876C231.574 547.62 254.916 545.035 256.171 544.222C257.427 543.41 253.292 523.405 254.128 523.166C254.798 522.975 260.226 521.074 262.856 520.148C261.646 519.527 261.334 517.268 261.468 514.551C261.575 512.379 261.967 509.914 262.414 507.756C262.657 506.583 262.916 505.501 263.155 504.606C261.29 504.032 253.854 506.467 250.369 507.756C248 509.379 245.175 510.864 241.839 512.068C241.782 512.948 240.356 515.302 235.113 517.673C229.871 520.044 225.804 516.937 224.425 515.088ZM223.153 524.353C223.922 522.284 236.769 521.964 243.097 522.063V527.677L235.113 529.08L235.563 539.2L230.466 539.569L229.284 529.08H223.153C222.833 528.366 222.385 526.421 223.153 524.353Z" fill="#FF8E26"/>
<path d="M243.097 522.063C236.769 521.964 223.922 522.284 223.153 524.353C222.385 526.421 222.833 528.366 223.153 529.08H229.284L230.466 539.569L235.563 539.2L235.113 529.08L243.097 527.677V522.063Z" fill="#FFC289"/>
<path d="M256.171 544.222C254.916 545.035 231.574 547.62 229.284 548.876C226.994 550.132 217.967 548.359 217.967 545.7V553.9H257.669C257.571 550.674 257.135 544.222 256.171 544.222Z" fill="#6A5FA3"/>
<path d="M261.468 514.551C261.334 517.268 261.646 519.527 262.856 520.148C264.31 520.517 265.143 515.906 265.378 513.555C263.95 513.915 262.619 514.254 261.468 514.551Z" fill="#FF8E26"/>
<path d="M263.155 504.606C262.916 505.501 262.657 506.583 262.414 507.756C263.065 507.59 263.777 507.411 264.537 507.222C264.609 506.232 263.645 505.065 263.155 504.606Z" fill="#FF8E26"/>
<path d="M244.574 471.69C241.64 470.097 234.683 468.487 230.325 474.79M204.111 495.749C202.827 486.51 199.043 475.214 197.045 470.095L202.562 471.69L204.524 465.804L210.042 468.379L212.985 462.861L218.135 464.823L222.059 458.814L228.803 462.861L231.133 457.343L236.283 459.918L239.594 455.258L244.009 458.079L247.81 454.155L251.243 458.079L254.432 453.174L258.724 457.343L262.893 452.316C263.792 461.961 264.608 481.89 260.685 484.442C263.504 482.194 269.094 480.027 268.899 489.347C268.082 492.004 265.296 496.753 260.685 494.497C259.798 498.066 256.719 503.405 250.369 507.756M204.111 495.749C202.241 495.743 198.927 496.892 200.632 501.538C202.337 506.184 204.544 505.347 205.434 504.348M204.111 495.749C204.272 496.912 204.394 498.042 204.468 499.123M205.434 504.348C205.127 503.601 204.888 502.809 204.73 501.973M205.434 504.348C207.503 509.378 212.68 512.426 217.069 513.987M204.468 499.123C204.492 499.467 204.51 499.805 204.524 500.138C204.549 500.772 204.62 501.384 204.73 501.973M204.468 499.123C203.7 499.257 202.359 499.815 203.137 500.976C203.916 502.138 204.524 502.125 204.73 501.973M224.425 515.088C223.377 515.114 222.302 515.118 221.199 515.098C220.027 514.894 218.596 514.53 217.069 513.987M224.425 515.088C225.804 516.937 229.871 520.044 235.113 517.673C240.356 515.302 241.782 512.948 241.839 512.068M224.425 515.088C231.363 514.916 237.114 513.774 241.839 512.068M241.839 512.068C245.175 510.864 248 509.379 250.369 507.756M217.069 513.987C213.512 517.486 206.609 524.835 207.456 526.246C207.607 526.498 207.879 526.731 208.233 526.957M216.626 523.706C216.979 524.717 217.741 527.487 217.967 530.478C218.071 531.861 217.656 532.654 217.069 533.081M250.369 507.756C253.854 506.467 261.29 504.032 263.155 504.606M263.155 504.606C262.916 505.501 262.657 506.583 262.414 507.756M263.155 504.606C263.645 505.065 264.609 506.232 264.537 507.222M262.856 520.148C260.226 521.074 254.798 522.975 254.128 523.166C253.292 523.405 257.427 543.41 256.171 544.222M262.856 520.148C261.646 519.527 261.334 517.268 261.468 514.551M262.856 520.148C264.31 520.517 265.143 515.906 265.378 513.555M256.171 544.222C254.916 545.035 231.574 547.62 229.284 548.876C226.994 550.132 217.967 548.359 217.967 545.7M256.171 544.222C257.135 544.222 257.571 550.674 257.669 553.9H217.967V545.7M217.967 545.7C217.967 543.572 217.368 536.401 217.069 533.081M217.069 533.081C216.386 533.578 215.469 533.58 214.863 533.441C214.95 532.722 214.859 532.096 214.639 531.544M262.414 507.756C261.967 509.914 261.575 512.379 261.468 514.551M262.414 507.756C263.065 507.59 263.777 507.411 264.537 507.222M261.468 514.551C262.619 514.254 263.95 513.915 265.378 513.555M298.607 512.416C298.767 512.404 298.89 512.32 298.96 512.144C299.396 511.054 294.872 506.208 292.555 503.922C294.191 503.346 297.063 501.72 295.468 499.829C293.872 497.938 289.091 501.11 286.899 502.932C284.962 502.394 272.282 505.298 264.537 507.222M298.607 512.416C297.77 512.481 295.895 510.594 294.917 509.464C294.579 509.881 294.112 510.45 293.656 510.993M298.607 512.416C298.849 512.848 299.215 513.817 298.743 514.246C298.603 514.373 298.23 514.25 297.736 513.98M293.656 510.993C292.887 511.911 292.147 512.757 292.101 512.689C292.051 512.615 293.683 514.087 294.917 515.54M293.656 510.993C294.71 511.881 296.564 513.341 297.736 513.98M297.736 513.98C298.106 514.649 298.624 516.036 297.736 516.229C296.848 516.422 295.487 515.85 294.917 515.54M294.917 515.54C295.952 516.757 296.708 517.961 295.962 518.231C294.327 518.821 284.152 510.1 283.924 509.464C283.771 509.034 273.141 511.599 265.378 513.555M290.698 510.68C290.574 508.934 289.777 505.525 287.578 505.852M214.639 531.544L200.567 544.441C200.594 545.69 200.46 548.202 199.705 548.267C199.522 548.283 199.276 548.364 198.996 548.476M214.639 531.544C213.637 529.034 209.962 528.067 208.233 526.957M197.254 544.818C196.841 545.743 196.025 547.852 196.068 548.887C196.075 549.053 196.125 549.167 196.208 549.241M196.208 549.241C195.672 550.248 194.333 551.684 193.261 549.377C192.189 547.07 192.814 544.578 193.261 543.621M196.208 549.241C196.648 549.627 198.021 548.867 198.996 548.476M208.233 526.957L190.581 544.441C189.649 545.641 187.998 548.308 188.846 549.377C189.906 550.714 189.195 553.507 191.701 553.169C194.207 552.832 199.653 552.133 198.996 548.476M243.097 522.063C236.769 521.964 223.922 522.284 223.153 524.353C222.385 526.421 222.833 528.366 223.153 529.08H229.284L230.466 539.569L235.563 539.2L235.113 529.08L243.097 527.677V522.063Z" stroke="black" stroke-width="0.663339"/>
<path d="M211.504 492.887C213.445 488.569 220.758 487.822 222.067 490.064C222.899 491.488 222.68 493.81 222.472 495.105C222.212 496.724 220.875 497.927 216.155 498.646C212.38 499.222 211.302 494.836 211.504 492.887Z" fill="white"/>
<ellipse cx="218.675" cy="493.35" rx="3.6393" ry="4.33891" fill="black"/>
<circle cx="220.383" cy="491.683" r="1.62337" fill="white"/>
<circle cx="217.768" cy="496.661" r="0.991122" fill="white"/>
<path d="M237.406 487.335C239.346 483.017 246.659 482.27 247.969 484.511C248.801 485.935 248.581 488.257 248.373 489.552C248.113 491.171 246.776 492.374 242.057 493.094C238.281 493.669 237.203 489.284 237.406 487.335Z" fill="white"/>
<ellipse cx="244.577" cy="487.797" rx="3.6393" ry="4.33891" fill="black"/>
<circle cx="246.284" cy="486.131" r="1.62337" fill="white"/>
<circle cx="243.67" cy="491.109" r="0.991122" fill="white"/>
<path d="M220.547 477.652C217.83 476.405 211.616 475.635 208.499 482.533" stroke="black" stroke-width="0.663339"/>
<path d="M222.493 489.431C219.961 488.543 214.129 487.972 211.059 492.795" stroke="black" stroke-width="0.663339"/>
<path d="M248.022 483.879C245.609 482.99 240.054 482.419 237.128 487.242" stroke="black" stroke-width="0.663339"/>
<path d="M222.006 498.447C220.478 498.11 217.099 497.957 215.808 500.034" stroke="black" stroke-width="0.663339"/>
<path d="M247.584 492.574C246.056 492.237 242.677 492.084 241.386 494.161" stroke="black" stroke-width="0.663339"/>
<circle cx="254.769" cy="493.766" r="0.497504" fill="black"/>
<circle cx="247.524" cy="496.661" r="0.497504" fill="black"/>
<circle cx="216.575" cy="503.117" r="0.497504" fill="black"/>
<circle cx="214.026" cy="507.219" r="0.497504" fill="black"/>
<circle cx="209.939" cy="503.615" r="0.497504" fill="black"/>
<circle cx="253.841" cy="498.822" r="0.497504" fill="black"/>
<mask id="path-26-inside-1_56_707" fill="white">
<path fill-rule="evenodd" clip-rule="evenodd" d="M311.459 464.534C331.849 463.108 347.696 452.209 346.856 440.19C346.016 428.171 328.806 419.583 308.416 421.009C288.027 422.434 272.179 433.333 273.019 445.352C273.32 449.653 275.717 453.514 279.605 456.635L276.528 464.115C276.294 464.683 276.891 465.236 277.44 464.959L286.144 460.572C292.958 463.655 301.856 465.205 311.459 464.534Z"/>
</mask>
<path d="M346.856 440.19L346.194 440.236L346.856 440.19ZM311.459 464.534L311.506 465.196L311.459 464.534ZM308.416 421.009L308.37 420.347L308.416 421.009ZM273.019 445.352L273.681 445.306L273.019 445.352ZM279.605 456.635L280.218 456.887L280.407 456.428L280.02 456.117L279.605 456.635ZM276.528 464.115L277.141 464.367H277.141L276.528 464.115ZM277.44 464.959L277.738 465.552L277.44 464.959ZM286.144 460.572L286.417 459.968L286.128 459.837L285.845 459.98L286.144 460.572ZM346.194 440.236C346.591 445.916 343.049 451.451 336.743 455.788C330.451 460.115 321.51 463.166 311.413 463.872L311.506 465.196C321.797 464.476 330.976 461.365 337.495 456.881C343.999 452.408 347.961 446.483 347.518 440.144L346.194 440.236ZM308.462 421.67C318.56 420.964 327.838 422.742 334.671 426.151C341.519 429.569 345.797 434.556 346.194 440.236L347.518 440.144C347.075 433.805 342.327 428.489 335.263 424.964C328.184 421.431 318.662 419.627 308.37 420.347L308.462 421.67ZM273.681 445.306C273.284 439.626 276.826 434.092 283.133 429.754C289.425 425.427 298.365 422.376 308.462 421.67L308.37 420.347C298.078 421.066 288.9 424.178 282.381 428.661C275.876 433.135 271.915 439.059 272.358 445.399L273.681 445.306ZM280.02 456.117C276.234 453.079 273.966 449.374 273.681 445.306L272.358 445.399C272.675 449.932 275.2 453.95 279.189 457.152L280.02 456.117ZM277.141 464.367L280.218 456.887L278.991 456.382L275.914 463.862L277.141 464.367ZM277.141 464.367H277.141L275.914 463.862C275.447 464.998 276.641 466.104 277.738 465.552L277.141 464.367ZM285.845 459.98L277.141 464.367L277.738 465.552L286.442 461.164L285.845 459.98ZM311.413 463.872C301.903 464.537 293.117 462.999 286.417 459.968L285.87 461.176C292.799 464.312 301.81 465.873 311.506 465.196L311.413 463.872Z" fill="black" mask="url(#path-26-inside-1_56_707)"/>
<path d="M294.296 444.963H293.799V445.461H291.809V444.963H291.311V444.466H290.814V440.983H291.311V440.486H291.809V439.988H293.799V440.486H294.296V440.983H294.794V441.481H296.286V439.491H297.281V445.958H296.286V443.968H294.794V444.466H294.296V444.963ZM292.306 444.466V444.963H293.301V444.466H293.799V440.983H293.301V440.486H292.306V440.983H291.809V444.466H292.306ZM296.286 443.471V441.978H294.794V443.471H296.286ZM299.271 441.481V440.486H304.247V439.988H299.271V439.491H305.242V440.983H300.266V441.481H305.242V441.978H299.769V441.481H299.271ZM305.739 442.476V442.973H298.774V442.476H305.739ZM305.242 443.471V445.461H304.744V445.958H299.769V445.461H299.271V443.471H305.242ZM304.247 445.461V443.968H300.266V445.461H304.247ZM313.202 439.491V445.958H312.207V439.491H313.202ZM309.719 444.963V445.461H307.729V444.963H307.232V444.466H306.734V440.983H307.232V440.486H307.729V439.988H309.719V440.486H310.217V440.983H310.714V444.466H310.217V444.963H309.719ZM308.227 440.486V440.983H307.729V444.466H308.227V444.963H309.222V444.466H309.719V440.983H309.222V440.486H308.227ZM315.192 442.476V441.978H314.694V440.486H315.192V439.988H315.689V439.491H317.679V439.988H318.177V440.486H318.674V440.983H320.167V439.491H321.162V442.973H320.167V441.481H318.674V441.978H318.177V442.476H317.679V442.973H315.689V442.476H315.192ZM316.187 441.978V442.476H317.182V441.978H317.679V440.486H317.182V439.988H316.187V440.486H315.689V441.978H316.187ZM315.192 445.958V445.461H315.689V444.963H316.187V443.471H317.182V444.963H317.679V445.461H318.177V445.958H317.182V445.461H316.187V445.958H315.192ZM318.674 445.461H319.172V444.963H319.669V443.471H320.664V444.963H321.162V445.461H321.659V445.958H320.664V445.461H319.669V445.958H318.674V445.461ZM328.624 439.491V442.476H330.117V442.973H328.624V445.958H327.629V439.491H328.624ZM325.639 444.963V445.461H323.152V444.963H322.654V439.988H326.137V440.486H323.649V444.963H325.142V444.466H326.137V444.963H325.639ZM333.102 444.963H331.609V443.968H333.102V444.963Z" fill="black"/>
</svg>
