<svg width="359" height="555" viewBox="0 0 359 555" fill="none" xmlns="http://www.w3.org/2000/svg">
<rect x="1.38818" y="0.821289" width="357" height="552.579" rx="4.5" fill="white" stroke="black"/>
<mask id="path-2-inside-1_56_778" fill="white">
<path fill-rule="evenodd" clip-rule="evenodd" d="M221.221 469.181C200.785 468.856 184.373 458.827 184.564 446.78C184.756 434.733 201.478 425.23 221.915 425.555C242.351 425.88 258.763 435.91 258.572 447.957C258.503 452.267 256.318 456.252 252.604 459.577L256.08 466.881C256.343 467.435 255.777 468.02 255.214 467.773L246.286 463.861C239.648 467.307 230.846 469.334 221.221 469.181Z"/>
</mask>
<path d="M184.564 446.78L185.228 446.791L184.564 446.78ZM221.221 469.181L221.211 469.845L221.221 469.181ZM221.915 425.555L221.925 424.892L221.915 425.555ZM258.572 447.957L257.908 447.946L258.572 447.957ZM252.604 459.577L252.005 459.862L251.792 459.414L252.161 459.083L252.604 459.577ZM256.08 466.881L255.481 467.166L255.481 467.166L256.08 466.881ZM255.214 467.773L254.948 468.381L255.214 467.773ZM246.286 463.861L245.981 463.273L246.262 463.126L246.553 463.254L246.286 463.861ZM185.228 446.791C185.137 452.484 188.972 457.819 195.503 461.81C202.019 465.792 211.111 468.357 221.232 468.518L221.211 469.845C210.895 469.681 201.562 467.068 194.811 462.942C188.075 458.826 183.8 453.123 183.901 446.769L185.228 446.791ZM221.904 426.219C211.783 426.058 202.615 428.332 195.975 432.105C189.321 435.886 185.318 441.097 185.228 446.791L183.901 446.769C184.002 440.416 188.456 434.852 195.32 430.951C202.199 427.043 211.61 424.728 221.925 424.892L221.904 426.219ZM257.908 447.946C257.999 442.253 254.164 436.917 247.633 432.926C241.117 428.944 232.025 426.38 221.904 426.219L221.925 424.892C232.241 425.056 241.573 427.669 248.325 431.794C255.061 435.911 259.336 441.613 259.235 447.967L257.908 447.946ZM252.161 459.083C255.778 455.845 257.844 452.023 257.908 447.946L259.235 447.967C259.163 452.511 256.858 456.659 253.046 460.072L252.161 459.083ZM255.481 467.166L252.005 459.862L253.203 459.292L256.679 466.596L255.481 467.166ZM255.481 467.166L255.481 467.166L256.679 466.596C257.206 467.705 256.073 468.874 254.948 468.381L255.481 467.166ZM246.553 463.254L255.481 467.166L254.948 468.381L246.02 464.469L246.553 463.254ZM221.232 468.518C230.764 468.67 239.454 466.661 245.981 463.273L246.592 464.45C239.842 467.954 230.929 469.999 221.211 469.845L221.232 468.518Z" fill="black" mask="url(#path-2-inside-1_56_778)"/>
<path d="M203.557 449.54H203.06V450.038H201.07V449.54H200.572V449.043H200.075V445.56H200.572V445.062H201.07V444.565H203.06V445.062H203.557V445.56H204.055V446.058H205.547V444.067H206.542V450.535H205.547V448.545H204.055V449.043H203.557V449.54ZM201.567 449.043V449.54H202.562V449.043H203.06V445.56H202.562V445.062H201.567V445.56H201.07V449.043H201.567ZM205.547 448.048V446.555H204.055V448.048H205.547ZM208.532 446.058V445.062H213.507V444.565H208.532V444.067H214.502V445.56H209.527V446.058H214.502V446.555H209.03V446.058H208.532ZM215 447.053V447.55H208.035V447.053H215ZM214.502 448.048V450.038H214.005V450.535H209.03V450.038H208.532V448.048H214.502ZM213.507 450.038V448.545H209.527V450.038H213.507ZM222.462 444.067V450.535H221.467V444.067H222.462ZM218.98 449.54V450.038H216.99V449.54H216.492V449.043H215.995V445.56H216.492V445.062H216.99V444.565H218.98V445.062H219.477V445.56H219.975V449.043H219.477V449.54H218.98ZM217.487 445.062V445.56H216.99V449.043H217.487V449.54H218.482V449.043H218.98V445.56H218.482V445.062H217.487ZM224.452 447.053V446.555H223.955V445.062H224.452V444.565H224.95V444.067H226.94V444.565H227.438V445.062H227.935V445.56H229.428V444.067H230.423V447.55H229.428V446.058H227.935V446.555H227.438V447.053H226.94V447.55H224.95V447.053H224.452ZM225.448 446.555V447.053H226.443V446.555H226.94V445.062H226.443V444.565H225.448V445.062H224.95V446.555H225.448ZM224.452 450.535V450.038H224.95V449.54H225.448V448.048H226.443V449.54H226.94V450.038H227.438V450.535H226.443V450.038H225.448V450.535H224.452ZM227.935 450.038H228.433V449.54H228.93V448.048H229.925V449.54H230.423V450.038H230.92V450.535H229.925V450.038H228.93V450.535H227.935V450.038ZM237.885 444.067V447.053H239.378V447.55H237.885V450.535H236.89V444.067H237.885ZM234.9 449.54V450.038H232.413V449.54H231.915V444.565H235.398V445.062H232.91V449.54H234.403V449.043H235.398V449.54H234.9ZM242.363 449.54H240.87V448.545H242.363V449.54Z" fill="black"/>
<path d="M286.185 517.14C285.172 517.927 283.239 519.68 283.611 520.4" stroke="black" stroke-width="0.877842"/>
<path d="M264.049 518.525C263.487 520.754 262.477 525.364 262.932 525.976" stroke="black" stroke-width="0.877842"/>
<path d="M295.729 499.235C298.162 499.069 298.172 502.392 297.872 504.075C297.774 504.817 297.633 505.491 297.454 506.107C296.366 509.847 293.906 511.391 291.65 512.578C289.023 513.961 286.672 511.057 286.119 510.366C285.566 509.675 288.677 508.568 288.954 508.361C289.175 508.195 287.525 507.923 286.672 507.808C286.534 507.301 286.34 505.844 286.672 504.075C287.087 501.862 292.687 499.442 295.729 499.235Z" fill="black"/>
<path d="M286.672 507.808C286.534 507.301 286.34 505.844 286.672 504.075C287.087 501.862 292.687 499.442 295.729 499.235C298.162 499.069 298.172 502.392 297.872 504.075C297.774 504.817 297.633 505.491 297.454 506.107M286.672 507.808C287.525 507.923 289.175 508.195 288.954 508.361C288.677 508.568 285.566 509.675 286.119 510.366C286.672 511.057 289.023 513.961 291.65 512.578C293.906 511.391 296.366 509.847 297.454 506.107M286.672 507.808C282.586 507.24 274.531 506.485 269.841 507.162M267.367 507.808C267.991 507.517 268.839 507.307 269.841 507.162M297.454 506.107C299.26 505.832 303.064 505.146 303.824 504.595M269.841 507.162L274.292 503.41" stroke="black" stroke-width="0.877842"/>
<path d="M287.984 499.836C285.479 500.645 283.216 505.985 282.397 508.553C282.012 513.369 289.332 516.211 295.063 514.381C299.648 512.917 300.216 506.322 299.927 503.208C300.104 501.731 300.12 498.488 298.772 497.332C298.553 497.145 298.262 497.031 297.915 496.977M287.984 499.836C289.147 499.461 290.702 498.819 292.283 498.235M287.984 499.836L286.884 498.235M297.915 496.977L299.494 494.587M297.915 496.977C296.579 496.771 294.407 497.451 292.283 498.235M292.283 498.235V496.756" stroke="black" stroke-width="0.877842"/>
<path d="M292.604 503.293C294.174 502.4 294.77 504.772 294.188 506.08C293.839 506.598 293.031 507.785 291.759 508.164C290.487 508.542 290.305 507.352 290.372 506.709C290.462 505.943 291.035 504.186 292.604 503.293Z" fill="white" stroke="white" stroke-width="0.877842"/>
<path d="M256.458 506.816C258.833 506.852 258.415 511.787 257.909 514.25C257.365 518.126 253.965 519.1 252.809 519.078C251.884 519.06 252.771 517.076 253.33 516.086C253.088 516.403 252.414 517.083 251.653 517.264C250.891 517.446 250.846 512.564 251.804 510.578C252.416 509.309 254.083 506.78 256.458 506.816Z" fill="black" stroke="black" stroke-width="0.877842"/>
<path d="M254.459 511.035C255.807 508.995 256.174 511.294 256.189 512.698C256.118 514.029 255.318 515.207 254.814 514.982C254.134 514.517 253.111 513.075 254.459 511.035Z" fill="white" stroke="white" stroke-width="0.877842"/>
<path d="M257.979 504.079C259.243 504.505 259.664 505.704 259.664 506.586C259.664 509.789 259.529 516.515 258.989 517.794C258.313 519.391 255.905 521.417 251.944 521.574C248.775 521.701 248.688 516.796 249.041 514.328C249.263 512.639 249.956 509.752 251.278 507.496M257.979 504.079C257.154 503.802 255.969 503.853 254.307 504.538C254.227 504.571 254.148 504.606 254.07 504.644M257.979 504.079L259.349 501.439M254.07 504.644L253.906 501.696M254.07 504.644C252.93 505.196 252.008 506.249 251.278 507.496M251.278 507.496L248.869 504.079" stroke="black" stroke-width="0.877842"/>
<path d="M278.109 511.424C276.005 510.068 270.708 507.97 266.357 510.432C265.245 510.994 262.807 512.532 261.95 514.184" stroke="black" stroke-width="0.877842"/>
<path d="M257.685 497.709C255.067 496.404 250.909 495.43 248.346 500.624L246.955 504.15" stroke="black" stroke-width="0.877842"/>
<path d="M286.598 496.194C288.235 496.045 291.736 495.613 292.651 495.078C293.795 494.408 298.983 493.042 300.043 493.097" stroke="black" stroke-width="0.877842"/>
<path d="M266.338 499.63L269.379 497.097" stroke="black" stroke-width="0.877842"/>
<path d="M267.211 501.503C269.512 499.813 274.331 496.106 275.192 494.788" stroke="black" stroke-width="0.877842"/>
<path d="M266.48 504.444C267.775 503.307 270.608 500.961 271.581 500.67" stroke="black" stroke-width="0.877842"/>
<path d="M266.828 506.088C268.123 504.854 270.956 502.309 271.929 501.993" stroke="black" stroke-width="0.877842"/>
<path d="M266.003 513.321C270.696 509.26 272.874 511.988 273.467 513.866C273.593 515.91 269.677 515.58 267.107 515.91C265.05 516.173 265.091 514.11 266.003 513.321Z" fill="black" stroke="black" stroke-width="0.877842"/>
<path d="M280.008 512.641C278.559 513.794 275.739 516.473 276.049 517.957" stroke="black" stroke-width="0.877842"/>
<path d="M283.304 514.94C281.934 516.01 279.267 518.492 279.56 519.867" stroke="black" stroke-width="0.877842"/>
<path d="M262.019 519.553L261.718 525.234" stroke="black" stroke-width="0.877842"/>
<path d="M266.326 518.517C265.563 521.052 264.184 526.234 264.774 526.672" stroke="black" stroke-width="0.877842"/>
<path d="M271.755 525.432C268.731 525.728 268.567 528.029 264.327 530.559C264.865 531.246 265.884 532.337 267.174 533.346C267.308 533.112 267.919 532.227 269.285 530.559C270.652 528.892 274.862 530.468 276.795 531.464C278.117 529.447 279.244 527.116 279.918 525.473C278.062 525.463 274.228 525.19 271.755 525.432Z" fill="#E4687C"/>
<path d="M271.421 535.586C273.175 536.03 275.138 533.995 276.795 531.464C274.862 530.468 270.652 528.892 269.285 530.559C267.919 532.227 267.308 533.112 267.174 533.346C268.405 534.309 269.882 535.197 271.421 535.586Z" fill="#F57869"/>
<path d="M260.581 526.517C260.416 528.708 260.936 532.584 264.327 530.559M264.327 530.559C268.567 528.029 268.731 525.728 271.755 525.432C274.228 525.19 278.062 525.463 279.918 525.473M264.327 530.559C264.865 531.246 265.884 532.337 267.174 533.346M285.033 520.634C285.986 525.235 281.485 525.314 280.826 525.432C280.646 525.465 280.331 525.476 279.918 525.473M279.918 525.473C279.244 527.116 278.117 529.447 276.795 531.464M276.795 531.464C275.138 533.995 273.175 536.03 271.421 535.586C269.882 535.197 268.405 534.309 267.174 533.346M276.795 531.464C274.862 530.468 270.652 528.892 269.285 530.559C267.919 532.227 267.308 533.112 267.174 533.346M289.509 520.051C288.585 521.596 286.868 524.834 287.398 525.432" stroke="black" stroke-width="0.877842"/>
<path d="M291.247 523.325C289.858 524.836 287.169 528.133 287.522 529.231" stroke="black" stroke-width="0.877842"/>
<path d="M291.451 526.406C290.057 528.303 287.413 532.387 287.99 533.55" stroke="black" stroke-width="0.877842"/>
<path d="M256.302 532.736C256.117 534.332 255.3 537.789 253.52 538.857" stroke="black" stroke-width="0.877842"/>
<path d="M258.432 534.294C258.241 536.215 257.243 540.612 254.781 542.833" stroke="black" stroke-width="0.877842"/>
<path d="M260.182 537.01C259.991 539.263 259.488 543.847 259.005 544.161" stroke="black" stroke-width="0.877842"/>
<path d="M302.458 513.693C300.277 515.156 294.965 517.987 291.166 517.604H289.091" stroke="black" stroke-width="0.877842"/>
<path d="M285.819 517.205C285.207 518.122 283.864 519.99 283.385 520.118" stroke="black" stroke-width="0.877842"/>
<ellipse cx="251.565" cy="529.231" rx="2.69873" ry="3.85123" transform="rotate(-25.7851 251.565 529.231)" fill="#F7AAB1"/>
<ellipse cx="300.26" cy="521.108" rx="3.4093" ry="6.17038" transform="rotate(50.9402 300.26 521.108)" fill="#F7AAB1"/>
<path d="M302.103 544.554H306.027L310.98 531.569C312.403 529.485 315.784 524.31 317.919 520.284C320.588 515.251 314.945 501.983 316.623 500.23C318.3 498.476 312.429 487.724 305.642 484.903C298.856 482.082 294.967 487.267 290.85 487.724C286.732 488.182 280.327 479.794 278.497 480.328C277.976 480.48 276.943 481.064 275.686 481.869C272.524 483.894 267.944 487.319 266.526 488.792C265.281 490.085 263.253 489.603 260.614 488.896C259.051 488.478 257.274 487.98 255.317 487.724C250.055 487.038 244.96 489.631 240.209 492.909C235.459 496.188 236.254 502.365 236.406 503.28C236.453 503.559 236.224 504.539 235.872 505.793C235.303 507.826 234.412 510.58 233.855 512.237L231.935 515.773C228.401 524.474 232.202 529.251 234.544 530.552C238.806 530.69 246.356 532.528 242.466 538.77C238.576 545.012 239.341 549.169 240.209 550.466C241.413 550.57 243.17 550.668 244.96 550.673C244.129 550.37 242.257 549.439 241.422 548.132C240.587 546.825 244.702 538.791 246.864 534.937C246.622 527.888 243.115 529.253 239.124 525.505C235.134 521.756 241.301 510.751 242.466 509.3C243.397 508.139 244.899 501.722 245.534 498.659C249.793 492.08 258.998 493.015 263.068 494.305C265.285 494.507 270.493 494.305 273.589 491.887C277.459 488.863 280.898 489.347 282.972 491.887C284.631 493.918 289.662 494.345 291.97 494.305C292.776 493.338 295.931 491.137 302.103 490.073C309.818 488.742 312.407 504.1 312.77 513.775C313.132 523.449 302.103 528.286 302.732 534.937C303.236 540.258 302.523 543.565 302.103 544.554Z" fill="#FFCF72"/>
<path d="M236.406 503.28C236.254 502.365 235.459 496.188 240.209 492.909C244.96 489.631 250.055 487.038 255.317 487.724C257.274 487.98 259.051 488.478 260.614 488.896C256.584 483.714 247.313 473.996 242.466 476.585C236.406 479.821 231.433 495.317 231.935 496.126C232.436 496.935 232.62 504.758 235.872 505.793C236.224 504.539 236.453 503.559 236.406 503.28Z" fill="#FA6173"/>
<path d="M278.497 480.328C280.327 479.794 286.732 488.182 290.85 487.724C294.967 487.267 298.856 482.082 305.642 484.903C305.683 484.097 305.031 481.498 302.103 477.548C298.443 472.609 295.685 465.778 290.85 468C286.014 470.222 280.033 476.395 279.265 475.737C278.651 475.21 276.623 479.606 275.686 481.869C276.943 481.064 277.976 480.48 278.497 480.328Z" fill="#FA6173"/>
<path d="M275.219 541.986C272.107 544.04 266.817 546.94 264.561 548.132C260.956 548.184 253.295 548.584 251.49 549.766C250.407 550.476 247.646 550.679 244.96 550.673C243.17 550.668 241.413 550.57 240.209 550.466C239.898 551.685 239.914 554.076 242.466 553.89C245.655 553.656 253.28 551.867 253.98 552.256C254.324 552.447 258.483 552.002 262.861 551.462C265.609 551.123 268.443 550.746 270.473 550.466C270.836 548.496 272.387 544.554 275.686 544.554C278.984 544.554 280.535 546.421 280.898 547.354L288.211 548.132C289.359 548.123 290.712 548.105 292.166 548.076C298.926 547.943 307.847 547.578 308.206 546.81C308.641 545.876 306.935 544.917 306.027 544.554H302.103H287.667C286.53 543.872 284.818 543 282.972 542.327C280.184 541.312 277.091 540.751 275.219 541.986Z" fill="#58C2FF"/>
<path d="M275.686 544.554C272.387 544.554 270.836 548.496 270.473 550.466V552.016C272.31 548.578 278.119 547.972 281.24 548.103C281.118 547.828 281.002 547.576 280.898 547.354C280.535 546.421 278.984 544.554 275.686 544.554Z" fill="#FFCF72"/>
<path d="M270.473 553.89H272.013C275.765 549.848 280.559 550.44 282.488 551.242C282.129 550.183 281.649 549.02 281.24 548.103C278.119 547.972 272.31 548.578 270.473 552.016V553.89Z" fill="#FFCF72"/>
<path d="M282.972 553.89C283.128 553.44 282.881 552.403 282.488 551.242C280.559 550.44 275.765 549.848 272.013 553.89H275.151C274.686 553.383 274.142 552.347 275.686 552.256C277.229 552.165 278.065 553.307 278.29 553.89H282.972Z" fill="#FFCF72"/>
<path d="M278.29 553.89C278.065 553.307 277.229 552.165 275.686 552.256C274.142 552.347 274.686 553.383 275.151 553.89H278.29Z" fill="#FFCF72"/>
<path d="M253.98 552.256C253.28 551.867 245.655 553.656 242.466 553.89H259.104L262.861 551.462C258.483 552.002 254.324 552.447 253.98 552.256Z" fill="#FFCF72"/>
<path d="M308.206 546.81C307.847 547.578 298.926 547.943 292.166 548.076L295.947 553.89H305.157H311.819C314.121 553.097 310.369 548.839 308.206 546.81Z" fill="#FFCF72"/>
<path d="M306.027 544.554C306.935 544.917 308.641 545.876 308.206 546.81M306.027 544.554H302.103M306.027 544.554L310.98 531.569C312.403 529.485 315.784 524.31 317.919 520.284C320.588 515.251 314.945 501.983 316.623 500.23C318.3 498.476 312.429 487.724 305.642 484.903M240.209 550.466C239.898 551.685 239.914 554.076 242.466 553.89M240.209 550.466C241.413 550.57 243.17 550.668 244.96 550.673M240.209 550.466C239.341 549.169 238.576 545.012 242.466 538.77C246.356 532.528 238.806 530.69 234.544 530.552C232.202 529.251 228.401 524.474 231.935 515.773L233.855 512.237M242.466 553.89C245.655 553.656 253.28 551.867 253.98 552.256C254.324 552.447 258.483 552.002 262.861 551.462M242.466 553.89H259.104M270.473 550.466C270.836 548.496 272.387 544.554 275.686 544.554C278.984 544.554 280.535 546.421 280.898 547.354M270.473 550.466V552.016M270.473 550.466C268.443 550.746 265.609 551.123 262.861 551.462M280.898 547.354L288.211 548.132C289.359 548.123 290.712 548.105 292.166 548.076M280.898 547.354C281.002 547.576 281.118 547.828 281.24 548.103M308.206 546.81C307.847 547.578 298.926 547.943 292.166 548.076M308.206 546.81C310.369 548.839 314.121 553.097 311.819 553.89H305.157M282.972 542.327C284.818 543 286.53 543.872 287.667 544.554H302.103M282.972 542.327C280.184 541.312 277.091 540.751 275.219 541.986C272.107 544.04 266.817 546.94 264.561 548.132C260.956 548.184 253.295 548.584 251.49 549.766C250.407 550.476 247.646 550.679 244.96 550.673M282.972 542.327H289.577M302.103 544.554C302.523 543.565 303.236 540.258 302.732 534.937C302.103 528.286 313.132 523.449 312.77 513.775C312.407 504.1 309.818 488.742 302.103 490.073C295.931 491.137 292.776 493.338 291.97 494.305C289.662 494.345 284.631 493.918 282.972 491.887C280.898 489.347 277.459 488.863 273.589 491.887C270.493 494.305 265.285 494.507 263.068 494.305C258.998 493.015 249.793 492.08 245.534 498.659C244.899 501.722 243.397 508.139 242.466 509.3C241.301 510.751 235.134 521.756 239.124 525.505C243.115 529.253 246.622 527.888 246.864 534.937C244.702 538.791 240.587 546.825 241.422 548.132C242.257 549.439 244.129 550.37 244.96 550.673M236.793 506.829L233.855 512.237M233.855 512.237C234.412 510.58 235.303 507.826 235.872 505.793M305.642 484.903C298.856 482.082 294.967 487.267 290.85 487.724C286.732 488.182 280.327 479.794 278.497 480.328C277.976 480.48 276.943 481.064 275.686 481.869M305.642 484.903C305.683 484.097 305.031 481.498 302.103 477.548C298.443 472.609 295.685 465.778 290.85 468C286.014 470.222 280.033 476.395 279.265 475.737C278.651 475.21 276.623 479.606 275.686 481.869M275.686 481.869C272.524 483.894 267.944 487.319 266.526 488.792C265.281 490.085 263.253 489.603 260.614 488.896M260.614 488.896C259.051 488.478 257.274 487.98 255.317 487.724C250.055 487.038 244.96 489.631 240.209 492.909C235.459 496.188 236.254 502.365 236.406 503.28C236.453 503.559 236.224 504.539 235.872 505.793M260.614 488.896C256.584 483.714 247.313 473.996 242.466 476.585C236.406 479.821 231.433 495.317 231.935 496.126C232.436 496.935 232.62 504.758 235.872 505.793M282.972 553.89C283.128 553.44 282.881 552.403 282.488 551.242M282.972 553.89H278.29M282.972 553.89H295.947M270.473 553.89H272.013M270.473 553.89V552.016M270.473 553.89H259.104M282.488 551.242C280.559 550.44 275.765 549.848 272.013 553.89M282.488 551.242C282.129 550.183 281.649 549.02 281.24 548.103M272.013 553.89H275.151M281.753 548.132C281.592 548.12 281.421 548.11 281.24 548.103M270.473 552.016C272.31 548.578 278.119 547.972 281.24 548.103M278.29 553.89C278.065 553.307 277.229 552.165 275.686 552.256C274.142 552.347 274.686 553.383 275.151 553.89M278.29 553.89H275.151M292.166 548.076L295.947 553.89M295.947 553.89H305.157M262.861 551.462L259.104 553.89M305.157 553.89V549.766" stroke="black" stroke-width="0.877842"/>
<path d="M318.905 443.79C317.327 443.295 314.306 443.412 314.847 447.848C315.524 453.393 313.901 455.286 314.847 455.827C315.794 456.368 317.958 462.048 322.691 458.938C327.425 455.827 332.294 457.72 330.806 451.905C329.616 447.253 325.982 444.557 324.314 443.79H318.905Z" fill="#FF1F00"/>
<path fill-rule="evenodd" clip-rule="evenodd" d="M322.691 438.922C316.2 434.459 314.712 439.192 314.036 435.405C313.36 431.619 314.847 443.79 311.061 442.573C307.274 441.356 307.544 448.93 304.434 450.417C301.323 451.905 311.196 452.716 309.843 455.827C308.491 458.938 303.757 467.187 306.462 466.646C309.167 466.105 312.819 464.077 314.847 466.646C316.876 469.216 321.068 473.273 322.691 470.839C324.314 468.405 330.265 465.294 331.888 466.646C333.511 467.999 332.429 460.56 335.404 459.749C338.38 458.938 338.785 453.393 344.06 454.61C349.334 455.827 340.138 448.659 343.248 443.79C342.347 444.421 339.678 445.494 336.216 444.737C331.888 443.79 335.404 437.163 335.404 434.594C335.404 432.538 326.929 436.623 322.691 438.922ZM314.847 447.848C314.306 443.412 317.327 443.295 318.905 443.79H324.314C325.982 444.557 329.616 447.253 330.806 451.905C332.294 457.72 327.425 455.827 322.691 458.938C317.958 462.048 315.794 456.368 314.847 455.827C313.901 455.286 315.524 453.393 314.847 447.848Z" fill="#FFCF72"/>
<path d="M318.905 443.79C317.327 443.295 314.306 443.412 314.847 447.848C315.524 453.393 313.901 455.286 314.847 455.827C315.794 456.368 317.958 462.048 322.691 458.938C327.425 455.827 332.294 457.72 330.806 451.905C329.616 447.253 325.982 444.557 324.314 443.79H318.905Z" stroke="black" stroke-width="0.88"/>
<path fill-rule="evenodd" clip-rule="evenodd" d="M322.691 438.922C316.2 434.459 314.712 439.192 314.036 435.405C313.36 431.619 314.847 443.79 311.061 442.573C307.274 441.356 307.544 448.93 304.434 450.417C301.323 451.905 311.196 452.716 309.843 455.827C308.491 458.938 303.757 467.187 306.462 466.646C309.167 466.105 312.819 464.077 314.847 466.646C316.876 469.216 321.068 473.273 322.691 470.839C324.314 468.405 330.265 465.294 331.888 466.646C333.511 467.999 332.429 460.56 335.404 459.749C338.38 458.938 338.785 453.393 344.06 454.61C349.334 455.827 340.138 448.659 343.248 443.79C342.347 444.421 339.678 445.494 336.216 444.737C331.888 443.79 335.404 437.163 335.404 434.594C335.404 432.538 326.929 436.623 322.691 438.922ZM314.847 447.848C314.306 443.412 317.327 443.295 318.905 443.79H324.314C325.982 444.557 329.616 447.253 330.806 451.905C332.294 457.72 327.425 455.827 322.691 458.938C317.958 462.048 315.794 456.368 314.847 455.827C313.901 455.286 315.524 453.393 314.847 447.848Z" stroke="black" stroke-width="0.88"/>
</svg>
