<svg width="359" height="554" viewBox="0 0 359 554" fill="none" xmlns="http://www.w3.org/2000/svg">
<rect x="1.38818" y="0.821289" width="357" height="552.579" rx="4.5" fill="white" stroke="black"/>
<mask id="path-2-inside-1_56_741" fill="white">
<path fill-rule="evenodd" clip-rule="evenodd" d="M105.163 95.5871C120.71 94.5002 132.794 86.1897 132.153 77.0251C131.512 67.8605 118.39 61.3123 102.843 62.3992C87.296 63.4862 75.2122 71.7967 75.8529 80.9613C76.0822 84.2404 77.9095 87.1846 80.874 89.5639L78.5278 95.2673C78.3496 95.7004 78.805 96.1222 79.2232 95.9114L85.8602 92.5662C91.0562 94.9173 97.8408 96.099 105.163 95.5871Z"/>
</mask>
<path d="M132.153 77.0251L131.649 77.0604L132.153 77.0251ZM105.163 95.5871L105.198 96.0917L105.198 96.0917L105.163 95.5871ZM102.843 62.3992L102.808 61.8947L102.843 62.3992ZM75.8529 80.9613L76.3575 80.926L76.3575 80.926L75.8529 80.9613ZM80.874 89.5639L81.3418 89.7564L81.4858 89.4064L81.1906 89.1695L80.874 89.5639ZM78.5278 95.2673L78.06 95.0749L78.06 95.0749L78.5278 95.2673ZM79.2232 95.9114L78.9955 95.4598L78.9955 95.4598L79.2232 95.9114ZM85.8602 92.5662L86.0687 92.1054L85.8484 92.0057L85.6325 92.1145L85.8602 92.5662ZM131.649 77.0604C131.951 81.3913 129.251 85.6114 124.442 88.9185C119.644 92.218 112.827 94.5443 105.128 95.0825L105.198 96.0917C113.046 95.543 120.044 93.1706 125.015 89.752C129.975 86.3409 132.996 81.8234 132.658 76.9898L131.649 77.0604ZM102.878 62.9038C110.577 62.3655 117.652 63.7206 122.862 66.3204C128.084 68.9262 131.346 72.7294 131.649 77.0604L132.658 76.9898C132.32 72.1562 128.7 68.103 123.314 65.4153C117.916 62.7216 110.655 61.346 102.808 61.8947L102.878 62.9038ZM76.3575 80.926C76.0547 76.595 78.7555 72.375 83.5642 69.0679C88.3618 65.7684 95.1789 63.4421 102.878 62.9038L102.808 61.8947C94.96 62.4433 87.9617 64.8158 82.9909 68.2344C78.0311 71.6454 75.0104 76.1629 75.3484 80.9965L76.3575 80.926ZM81.1906 89.1695C78.3037 86.8525 76.5743 84.0278 76.3575 80.926L75.3484 80.9965C75.59 84.4531 77.5152 87.5168 80.5574 89.9584L81.1906 89.1695ZM78.9955 95.4598L81.3418 89.7564L80.4063 89.3715L78.06 95.0749L78.9955 95.4598ZM78.9955 95.4598L78.9955 95.4598L78.06 95.0749C77.7037 95.9411 78.6144 96.7847 79.4508 96.3631L78.9955 95.4598ZM85.6325 92.1145L78.9955 95.4598L79.4508 96.3631L86.0878 93.0179L85.6325 92.1145ZM105.128 95.0825C97.8764 95.5895 91.1775 94.417 86.0687 92.1054L85.6517 93.027C90.935 95.4176 97.8053 96.6086 105.198 96.0917L105.128 95.0825Z" fill="black" mask="url(#path-2-inside-1_56_741)"/>
<path d="M92.0765 81.0898H91.6972V81.4692H90.1798V81.0898H89.8004V80.7105H89.4211V78.0551H89.8004V77.6757H90.1798V77.2964H91.6972V77.6757H92.0765V78.0551H92.4559V78.4344H93.5939V76.917H94.3526V81.8485H93.5939V80.3312H92.4559V80.7105H92.0765V81.0898ZM90.5591 80.7105V81.0898H91.3178V80.7105H91.6972V78.0551H91.3178V77.6757H90.5591V78.0551H90.1798V80.7105H90.5591ZM93.5939 79.9518V78.8138H92.4559V79.9518H93.5939ZM95.87 78.4344V77.6757H99.6634V77.2964H95.87V76.917H100.422V78.0551H96.6287V78.4344H100.422V78.8138H96.2493V78.4344H95.87ZM100.801 79.1931V79.5725H95.4906V79.1931H100.801ZM100.422 79.9518V81.4692H100.043V81.8485H96.2493V81.4692H95.87V79.9518H100.422ZM99.6634 81.4692V80.3312H96.6287V81.4692H99.6634ZM106.492 76.917V81.8485H105.733V76.917H106.492ZM103.836 81.0898V81.4692H102.319V81.0898H101.94V80.7105H101.56V78.0551H101.94V77.6757H102.319V77.2964H103.836V77.6757H104.216V78.0551H104.595V80.7105H104.216V81.0898H103.836ZM102.698 77.6757V78.0551H102.319V80.7105H102.698V81.0898H103.457V80.7105H103.836V78.0551H103.457V77.6757H102.698ZM108.009 79.1931V78.8138H107.63V77.6757H108.009V77.2964H108.388V76.917H109.906V77.2964H110.285V77.6757H110.664V78.0551H111.803V76.917H112.561V79.5725H111.803V78.4344H110.664V78.8138H110.285V79.1931H109.906V79.5725H108.388V79.1931H108.009ZM108.768 78.8138V79.1931H109.526V78.8138H109.906V77.6757H109.526V77.2964H108.768V77.6757H108.388V78.8138H108.768ZM108.009 81.8485V81.4692H108.388V81.0898H108.768V79.9518H109.526V81.0898H109.906V81.4692H110.285V81.8485H109.526V81.4692H108.768V81.8485H108.009ZM110.664 81.4692H111.044V81.0898H111.423V79.9518H112.182V81.0898H112.561V81.4692H112.941V81.8485H112.182V81.4692H111.423V81.8485H110.664V81.4692ZM118.251 76.917V79.1931H119.389V79.5725H118.251V81.8485H117.493V76.917H118.251ZM115.975 81.0898V81.4692H114.079V81.0898H113.699V77.2964H116.355V77.6757H114.458V81.0898H115.596V80.7105H116.355V81.0898H115.975ZM121.666 81.0898H120.527V80.3312H121.666V81.0898Z" fill="black"/>
<path d="M33.4354 119.054C35.1422 119.481 37.1583 119.895 38.4942 120.146L38.4106 120.591C37.0696 120.34 35.0439 119.924 33.3254 119.494C32.467 119.279 31.6798 119.059 31.0916 118.854C30.7984 118.751 30.5473 118.649 30.3595 118.551C30.2659 118.501 30.1813 118.449 30.1133 118.394C30.0498 118.343 29.9774 118.269 29.9436 118.172L30.3719 118.024C30.3691 118.016 30.3667 118.012 30.3667 118.012L30.3672 118.012C30.3692 118.015 30.3776 118.025 30.3992 118.043C30.435 118.072 30.4908 118.108 30.5704 118.15C30.7292 118.233 30.9561 118.326 31.2412 118.426C31.8098 118.625 32.5812 118.84 33.4354 119.054Z" fill="black"/>
<path d="M33.6069 125.291C35.2355 125.498 36.923 125.592 37.9779 125.616L37.9678 126.069C36.9005 126.045 35.197 125.95 33.5499 125.741C32.7263 125.636 31.9134 125.503 31.1994 125.335C30.4893 125.168 29.8611 124.964 29.417 124.71L29.6419 124.316C30.0285 124.537 30.6058 124.73 31.3031 124.894C31.9964 125.057 32.7926 125.188 33.6069 125.291Z" fill="black"/>
<path d="M34.3104 130.675C35.8773 130.637 37.555 130.491 38.6205 130.369L38.6722 130.819C37.597 130.943 35.9053 131.089 34.3214 131.128C33.5296 131.147 32.7606 131.139 32.1071 131.087C31.4627 131.036 30.9001 130.939 30.5418 130.765L30.7403 130.357C31.0153 130.491 31.5023 130.584 32.1431 130.635C32.7749 130.686 33.5267 130.694 34.3104 130.675Z" fill="black"/>
<path d="M48.9263 125.229C49.7407 125.347 50.5488 124.425 50.7312 123.169C50.9136 121.913 50.4012 120.799 49.5867 120.681C48.7723 120.563 47.9642 121.485 47.7818 122.741C47.5994 123.996 48.1118 125.11 48.9263 125.229Z" fill="black"/>
<path d="M67.9032 119.741C67.7208 120.997 67.1144 121.948 66.5487 121.866C65.983 121.784 65.6723 120.699 65.8547 119.443C66.0371 118.187 66.6435 117.236 67.2092 117.318C67.7749 117.4 68.0856 118.485 67.9032 119.741Z" fill="black"/>
<path d="M60.3963 124.496C60.1526 123.93 59.3407 123.735 58.5828 124.061C57.825 124.387 57.4082 125.11 57.6519 125.677C57.8956 126.243 58.8116 126.668 59.5694 126.342C60.3273 126.016 60.64 125.063 60.3963 124.496Z" fill="black"/>
<path d="M50.6371 147.124C50.3838 148.049 49.4287 148.594 48.5038 148.34C47.5788 148.087 47.0343 147.132 47.2875 146.207C47.5408 145.282 48.4959 144.738 49.4209 144.991C50.3458 145.244 50.8903 146.199 50.6371 147.124Z" fill="#FFD465"/>
<path d="M56.4346 145.471C56.865 145.589 57.4192 144.935 57.6725 144.01C57.9257 143.085 57.7821 142.239 57.3517 142.122C56.9213 142.004 56.367 142.658 56.1138 143.583C55.8605 144.508 56.0042 145.353 56.4346 145.471Z" fill="#FFD465"/>
<path fill-rule="evenodd" clip-rule="evenodd" d="M70.2613 88.7458C71.3614 89.0678 72.2475 89.6135 73.2025 90.5346C73.6328 90.9496 73.8553 91.6299 73.9566 92.4055C74.0591 93.1898 74.0429 94.115 73.9581 95.0659C73.7961 96.8837 73.3803 98.8288 73.0287 100.133C74.4937 100.897 76.3171 102.281 76.9657 104.327C77.182 105.009 77.0978 105.728 76.8325 106.433C76.5677 107.138 76.1176 107.843 75.5808 108.511C74.5352 109.813 73.1342 111.01 72.0341 111.84C71.8915 116.163 70.2046 120.617 68.3405 124.241C66.4596 127.898 64.386 130.735 63.4953 131.775C62.753 132.642 61.5967 133.582 60.451 134.415C59.7513 134.923 59.0504 135.396 58.4411 135.793C58.7161 135.793 59.0077 135.829 59.3036 135.916C60.1439 136.164 60.9886 136.817 61.5719 138.16C62.286 139.805 62.7745 142.387 63.0449 144.743C63.1806 145.925 63.2621 147.057 63.2891 147.997C63.316 148.93 63.2899 149.693 63.2026 150.125C62.9684 151.283 61.4577 156.673 60.2891 160.843C60.0126 161.829 59.7552 162.748 59.5385 163.525C60.2546 163.826 61.0938 164.485 61.5165 165.584C61.9818 166.793 61.9256 168.49 60.7279 170.751C60.4464 171.283 60.1776 171.794 59.9201 172.284C58.8356 174.347 57.9482 176.036 57.1289 177.292C56.1214 178.838 55.17 179.808 54.0048 179.974C53.4072 180.059 52.7361 180.08 52.1212 179.98C51.6361 179.901 51.1677 179.744 50.8014 179.469C49.5432 182.797 47.7046 187.579 46.1309 191.498C45.3194 193.519 44.5774 195.313 44.0214 196.561C43.744 197.183 43.5103 197.675 43.3362 197.992C43.2511 198.147 43.1721 198.275 43.1031 198.356L43.0963 198.363L43.0888 198.372L43.0819 198.379L43.0753 198.386C43.0699 198.391 43.0643 198.397 43.0585 198.402C43.0539 198.406 43.0493 198.411 43.0445 198.415C42.8735 201.19 41.8957 204.187 39.4458 207.131C39.4015 207.324 39.3605 207.679 39.3274 208.072C39.2948 208.459 39.2714 208.862 39.2588 209.138C40.5691 211.415 41.3572 215.085 41.9059 217.679C42.0472 218.347 42.0792 218.845 42.0105 219.224C41.9394 219.616 41.7608 219.878 41.5034 220.059C41.2608 220.229 40.9583 220.32 40.6664 220.403L40.5805 220.427C40.3052 220.505 40.0249 220.583 39.7413 220.714C39.4033 220.869 38.9542 220.839 38.4948 220.733C38.0247 220.624 37.4957 220.424 36.9665 220.183C35.907 219.702 34.8148 219.046 34.1313 218.588L34.1156 218.577L34.1018 218.564C33.7901 218.27 33.2927 217.848 32.8159 217.541C32.5765 217.387 32.3527 217.268 32.1665 217.206C31.9679 217.139 31.8724 217.157 31.8365 217.179C31.7008 217.262 31.5486 217.257 31.4213 217.224C31.2933 217.192 31.1607 217.125 31.0312 217.043C30.7709 216.88 30.4768 216.625 30.1841 216.34C29.6989 215.866 29.193 215.283 28.8118 214.81C28.5787 215.196 28.2261 215.515 27.8117 215.776C27.2803 216.112 26.6315 216.364 25.9566 216.553C24.6608 216.916 23.2335 217.053 22.268 217.07C21.8925 217.585 21.429 217.804 20.9891 217.85C20.6348 217.888 20.3059 217.813 20.06 217.709C20.0488 217.721 20.0374 217.731 20.0259 217.742C19.9373 217.823 19.8125 217.909 19.6459 217.998C19.3122 218.176 18.7891 218.378 17.9955 218.575C17.5662 218.682 17.1987 218.658 16.891 218.53C16.5843 218.402 16.3584 218.18 16.1959 217.925C15.9309 217.51 15.8213 216.991 15.7945 216.574C15.251 216.597 14.2754 216.565 13.3227 216.305C12.9624 216.206 12.7588 215.953 12.6776 215.637C12.6007 215.339 12.6318 214.985 12.7089 214.637C12.8541 213.983 13.184 213.262 13.4611 212.763C12.7501 211.114 11.7705 206.742 13.0888 201.348C13.7713 198.555 15.2399 196.952 16.8138 196.095C18.3203 195.275 19.9086 195.145 20.9662 195.285C21.6357 194.558 22.5892 193.432 23.3701 192.315C23.7768 191.734 24.1327 191.16 24.3776 190.649C24.6271 190.128 24.7436 189.709 24.7155 189.424C24.693 189.195 24.7618 188.908 24.8745 188.6C24.99 188.285 25.1631 187.917 25.3777 187.515C25.8073 186.709 26.4137 185.744 27.09 184.74C28.4144 182.775 30.0182 180.646 31.1192 179.25C30.871 178.366 30.5642 177.527 30.1891 176.759C28.5691 173.445 28.6033 168.695 28.9867 164.712C29.179 162.714 29.461 160.894 29.6743 159.527L29.6844 159.463C29.7868 158.807 29.8719 158.261 29.9228 157.852C29.9492 157.641 29.9657 157.471 29.9711 157.343C29.9738 157.28 29.9736 157.231 29.9711 157.194C29.9693 157.167 29.9666 157.154 29.9658 157.15L29.9656 157.149L29.9663 157.151C29.9455 157.097 29.939 157.04 29.9366 156.993C29.9341 156.943 29.9356 156.887 29.9398 156.828C29.9481 156.709 29.9683 156.561 29.9977 156.39C30.0567 156.047 30.156 155.592 30.2857 155.055C30.5454 153.98 30.9305 152.561 31.369 151.018C32.2446 147.935 33.336 144.345 34.0756 141.974C34.2525 141.051 34.5788 139.629 34.9872 138.338C35.1922 137.69 35.4197 137.071 35.6616 136.562C35.8212 136.227 35.9943 135.924 36.1814 135.693C34.3709 135.032 30.604 132.902 27.3361 128.617C26.4332 127.433 25.9317 125.77 25.7029 123.882C25.4736 121.99 25.5155 119.848 25.7183 117.683C26.1203 113.393 27.1574 108.986 28.0004 106.204C27.8365 105.784 27.7426 105.373 27.7054 105.01L27.7037 104.994L27.7044 104.977C27.8558 101.237 28.5168 98.6599 29.5712 96.4547C30.5329 94.4435 31.8192 92.7489 33.3157 90.7774C33.4545 90.5945 33.5953 90.4091 33.7376 90.2209C35.152 88.3518 37.1905 88.0231 39.1171 88.349C40.9857 88.6651 42.7842 89.5992 43.9081 90.3872C44.942 90.0705 46.4761 89.5576 47.8489 89.0084C48.5595 88.724 49.2224 88.4317 49.7489 88.1534C50.0122 88.0142 50.2379 87.8804 50.4169 87.7547C50.5988 87.627 50.72 87.5164 50.7864 87.4266C51.0658 87.0486 51.5505 86.9049 52.0478 86.8727C52.5534 86.84 53.1281 86.9184 53.6614 87.0419C54.1964 87.1659 54.7031 87.3385 55.0768 87.5029C55.2625 87.5847 55.4227 87.6676 55.5386 87.7452C55.5956 87.7833 55.6512 87.8263 55.6943 87.8738C55.7138 87.8952 55.7487 87.9367 55.7701 87.9936C55.785 88.0016 55.8048 88.0116 55.8305 88.0234C55.9352 88.0712 56.0963 88.1304 56.3071 88.1988C56.7263 88.3348 57.3143 88.498 57.9739 88.6687C59.243 88.9972 60.763 89.35 61.8212 89.5847C62.0007 89.4105 62.1819 89.251 62.3628 89.1087C63.6147 88.124 64.8964 87.949 66.1608 88.2881C67.8957 88.3322 69.177 88.4285 70.2613 88.7458ZM67.4245 88.7898C67.9722 89.0737 68.5119 89.4345 69.0409 89.8425C69.9812 90.5678 70.1138 91.9178 69.9594 93.2057C69.8228 94.345 69.453 95.5145 69.1088 96.355C69.6709 96.3794 70.1288 96.7253 70.5097 97.2231C70.9579 97.8087 71.3366 98.6479 71.7018 99.5619C71.967 99.6499 72.2779 99.7722 72.6144 99.929C72.956 98.6439 73.3513 96.7709 73.5068 95.0257C73.5901 94.0912 73.6037 93.2025 73.5073 92.4642C73.4097 91.7171 73.2045 91.1661 72.8879 90.8607C71.9755 89.9807 71.1515 89.4784 70.134 89.1807C69.3821 88.9607 68.5186 88.8503 67.4245 88.7898ZM71.9247 100.125C72.1706 100.754 72.3539 101.265 72.4236 101.744C72.5126 102.355 72.4171 102.905 72.0806 103.581C71.8763 103.991 71.5808 104.238 71.2343 104.35C70.8957 104.459 70.5316 104.432 70.1932 104.344C69.5207 104.168 68.8747 103.729 68.5499 103.422L68.539 103.412L68.5295 103.401C68.1567 102.943 67.7156 102.297 67.3536 101.578C66.9315 102.356 66.4461 103.497 66.1671 104.751C65.839 106.225 65.8029 107.824 66.454 109.171C67.3001 110.922 68.0683 111.859 68.6991 112.314C69.3195 112.762 69.7938 112.738 70.1052 112.592C70.2906 112.505 70.8934 112.127 71.6752 111.542C72.7738 110.721 74.188 109.522 75.2275 108.227C75.7472 107.58 76.1664 106.918 76.4084 106.274C76.65 105.631 76.7103 105.021 76.5337 104.464C75.9161 102.516 74.1121 101.178 72.6605 100.454C72.3981 100.323 72.1496 100.214 71.9247 100.125ZM67.1187 101.073C66.8288 100.392 66.6268 99.6566 66.6409 98.96C66.6558 98.2182 66.9171 97.5168 67.5718 96.9891C67.9281 96.702 68.2656 96.5127 68.5893 96.4202C68.9474 95.6008 69.3655 94.352 69.5095 93.1518C69.6618 91.8815 69.4962 90.7659 68.7642 90.2013C67.8633 89.5066 66.9618 88.9773 66.068 88.7324C64.9272 88.4198 63.7858 88.5659 62.643 89.4648C62.4479 89.6182 62.2501 89.7952 62.0528 89.9927C61.1124 90.934 60.2017 92.3226 59.6518 93.7926C59.1002 95.2668 58.9246 96.7863 59.4003 98.0092C59.9603 99.4487 60.5024 100.794 61.2084 101.752C61.9057 102.699 62.7383 103.237 63.8908 103.127C65.5005 102.973 66.5163 102.006 66.9707 101.334C67.021 101.242 67.0705 101.155 67.1187 101.073ZM66.3631 102.623C65.7638 103.086 64.9565 103.48 63.9339 103.578C62.5723 103.708 61.6007 103.049 60.8436 102.021C60.0953 101.005 59.5329 99.5999 58.978 98.1734C58.445 96.8032 58.6571 95.1582 59.2274 93.6338C59.7449 92.2506 60.5682 90.9365 61.4518 89.9666C60.4122 89.7336 59.0312 89.4105 57.8604 89.1074C57.1985 88.9361 56.5999 88.7702 56.1673 88.6299C55.9522 88.5601 55.7711 88.4944 55.6422 88.4355C55.5793 88.4067 55.5177 88.3747 55.4692 88.339C55.4454 88.3215 55.4143 88.2956 55.3882 88.2602C55.3727 88.2392 55.3525 88.2058 55.3419 88.1626C55.3299 88.1525 55.312 88.1388 55.2865 88.1217C55.2018 88.065 55.0685 87.9944 54.8943 87.9177C54.5479 87.7652 54.0682 87.6013 53.5591 87.4834C53.0484 87.365 52.5216 87.2961 52.077 87.3249C51.6241 87.3542 51.31 87.4806 51.1508 87.696C51.0417 87.8435 50.8744 87.9872 50.6773 88.1256C50.4774 88.2659 50.2339 88.4096 49.9607 88.554C49.4142 88.8429 48.7348 89.142 48.0172 89.4291C46.8776 89.8851 45.6307 90.3152 44.6439 90.6314C45.6805 91.0027 46.4602 91.576 47.0296 92.2819C47.7222 93.1407 48.0925 94.1817 48.249 95.2616C48.5614 97.4153 48.0302 99.7647 47.4487 101.271L47.4407 101.291L47.4288 101.31C46.2529 103.169 42.3828 107.262 36.2164 108.944C33.701 109.63 31.8544 109.466 30.5291 108.868C29.4481 108.38 28.7326 107.612 28.2903 106.82C27.4831 109.591 26.5454 113.713 26.1695 117.726C25.9684 119.872 25.9287 121.979 26.1528 123.828C26.3772 125.68 26.8639 127.25 27.6964 128.342C31.1391 132.856 35.1299 134.916 36.6645 135.377C39.3518 136.172 43.9284 137.091 48.3128 137.29C51.7424 137.446 55.0129 137.159 57.1738 136.062C57.9143 135.601 59.0522 134.871 60.1846 134.048C61.3246 133.219 62.4449 132.305 63.1511 131.48C64.0177 130.468 66.0719 127.661 67.9375 124.034C69.7361 120.537 71.348 116.299 71.5657 112.184C70.9621 112.618 70.49 112.912 70.2975 113.002C69.8115 113.23 69.1632 113.208 68.4338 112.681C67.7148 112.162 66.9061 111.148 66.046 109.368C65.3322 107.891 65.3859 106.175 65.7248 104.652C65.8869 103.924 66.1157 103.233 66.3631 102.623ZM56.9711 136.659C54.8017 137.612 51.7796 137.87 48.6676 137.758L49.725 139.991L50.6047 141.675L50.6053 141.676C50.8701 142.169 51.1505 142.464 51.4315 142.632C51.7101 142.799 52.0078 142.851 52.3295 142.827C52.6556 142.802 53.0029 142.698 53.3719 142.554C53.6198 142.458 53.866 142.347 54.1181 142.235C54.2448 142.178 54.3729 142.121 54.5034 142.064C54.8238 141.925 55.1298 141.619 55.4156 141.176C55.6991 140.737 55.9484 140.186 56.1649 139.592C56.5291 138.593 56.7924 137.497 56.9711 136.659ZM48.156 137.736L49.3174 140.189L49.3214 140.197L50.2042 141.887L50.2053 141.889C50.4969 142.433 50.8281 142.8 51.1991 143.021C51.5726 143.244 51.9674 143.309 52.3638 143.278C52.7557 143.249 53.1517 143.127 53.5367 142.976C53.7944 142.876 54.0586 142.758 54.3168 142.642L54.3179 142.642L54.3207 142.641L54.322 142.64C54.4443 142.585 54.5653 142.531 54.6836 142.48C55.1231 142.289 55.4897 141.897 55.7963 141.422C56.1052 140.943 56.368 140.357 56.5906 139.747C56.9244 138.832 57.1741 137.843 57.3523 137.038C57.6698 137.889 58.0358 139.056 58.3143 140.353C58.6789 142.05 58.8902 143.953 58.6572 145.652C58.5297 146.583 58.4148 147.707 58.2911 148.916L58.2267 149.545C58.0773 150.995 57.9104 152.542 57.6908 154.026C57.4711 155.51 57.1996 156.924 56.8427 158.109C56.4836 159.301 56.0467 160.23 55.5136 160.774L55.499 160.788L55.4874 160.806C55.2982 161.086 55.1274 161.381 54.9734 161.685C54.5785 162.324 54.0768 163.06 53.5299 163.732C53.1204 164.235 52.6895 164.696 52.2632 165.053C51.8337 165.412 51.4256 165.649 51.0614 165.729C50.4997 165.853 49.7414 166.25 48.9352 166.749C48.1209 167.253 47.2301 167.878 46.3959 168.48C46.0563 168.725 45.7271 168.966 45.4158 169.194L45.4142 169.195C44.9579 169.529 44.5404 169.834 44.1854 170.084C43.8869 170.294 43.6398 170.459 43.4569 170.567C43.3646 170.621 43.2958 170.656 43.2489 170.675C43.2433 170.677 43.2383 170.679 43.2339 170.68C43.1514 170.656 43.0394 170.638 42.9251 170.622C42.7732 170.601 42.5817 170.581 42.3677 170.56C42.1831 170.542 41.9835 170.524 41.7754 170.506C41.4937 170.481 41.196 170.454 40.8993 170.424C40.3864 170.373 39.8998 170.314 39.5509 170.244C39.3784 170.209 39.2543 170.174 39.1797 170.141L39.1797 170.131L39.1796 170.117C39.1793 170.071 39.1769 170.013 39.1731 169.945C39.1657 169.808 39.1521 169.621 39.1353 169.392L39.1318 169.343C39.0983 168.886 39.0526 168.262 39.0127 167.506C38.93 165.94 38.8724 163.814 39.0008 161.459C39.2583 156.739 40.2617 151.147 43.2664 147.311C44.8097 145.341 45.2568 143.757 44.9688 142.492C44.6809 141.227 43.6766 140.36 42.5057 139.78C41.3315 139.199 39.9503 138.886 38.8277 138.745C38.2652 138.674 37.7623 138.647 37.3764 138.651C37.1839 138.654 37.0165 138.664 36.8835 138.682C36.817 138.692 36.7553 138.703 36.7014 138.718C36.6516 138.732 36.5909 138.753 36.5392 138.79C36.3866 138.899 36.1947 139.1 35.9937 139.336C35.7881 139.576 35.5583 139.87 35.328 140.176C35.1322 140.437 34.9348 140.71 34.7503 140.97C34.9262 140.199 35.1556 139.308 35.4192 138.475C35.6211 137.837 35.8414 137.239 36.0708 136.757C36.2737 136.33 36.472 136.021 36.6534 135.846C39.3577 136.634 43.8362 137.526 48.156 137.736ZM34.5022 142.127C33.7634 144.496 32.6767 148.072 31.8049 151.142C31.3669 152.683 30.9838 154.095 30.7262 155.161C30.5973 155.695 30.5007 156.138 30.4443 156.467C30.416 156.631 30.3986 156.763 30.3918 156.86C30.3883 156.908 30.3879 156.945 30.3892 156.97C30.3899 156.984 30.391 156.991 30.3914 156.994C30.4118 157.05 30.4196 157.111 30.4232 157.164C30.4272 157.223 30.4269 157.29 30.4238 157.363C30.4176 157.508 30.3993 157.693 30.3725 157.908C30.3207 158.324 30.2346 158.876 30.1329 159.527L30.122 159.597C29.9087 160.964 29.6286 162.772 29.4377 164.756C29.0545 168.737 29.0374 173.371 30.5962 176.56C31.0015 177.39 31.3274 178.294 31.5868 179.241C32.9809 184.33 32.4761 190.74 31.9569 193.714C31.8278 194.765 31.7287 196.035 31.7075 197.35C31.678 199.184 31.8003 201.091 32.1966 202.605C32.4788 203.683 32.8916 204.529 33.4559 205.019C33.9692 205.465 34.6325 205.638 35.5181 205.374C35.38 203.86 36.0514 202.452 36.9297 201.314C37.8461 200.127 39.0104 199.203 39.808 198.712L40.0456 199.098C39.2862 199.566 38.1658 200.455 37.2884 201.591C36.4094 202.73 35.7968 204.087 35.9885 205.502C36.0869 206.229 36.2833 206.701 36.5173 206.998C36.7469 207.289 37.0218 207.424 37.3128 207.462C37.9097 207.542 38.6044 207.218 39.0815 206.861C41.5269 203.93 42.4637 200.96 42.6012 198.227C42.7554 195.161 41.9046 192.382 41.0227 190.278C40.6078 189.289 40.1875 188.452 39.8622 187.805L39.8617 187.803L39.8026 187.686C39.6374 187.357 39.4976 187.076 39.4032 186.856C39.356 186.746 39.3173 186.645 39.2923 186.557C39.2694 186.476 39.2487 186.376 39.2655 186.282C39.2725 186.243 39.2796 186.143 39.2836 185.972C39.2874 185.807 39.2883 185.591 39.2863 185.329C39.2825 184.805 39.2676 184.105 39.2447 183.283C39.1988 181.641 39.1206 179.518 39.0336 177.363C38.9299 174.792 38.8137 172.176 38.7251 170.277C38.7173 170.24 38.7164 170.199 38.726 170.155L38.7261 170.155C38.7262 170.15 38.7267 170.14 38.7265 170.121C38.7262 170.085 38.7243 170.035 38.7207 169.969C38.7135 169.838 38.7003 169.656 38.6834 169.425L38.6798 169.376C38.6464 168.919 38.6003 168.29 38.5602 167.53C38.477 165.954 38.4187 163.81 38.5483 161.434C38.8069 156.693 39.8153 150.982 42.9097 147.032C44.416 145.109 44.771 143.665 44.527 142.592C44.2828 141.52 43.421 140.739 42.3047 140.186C41.1917 139.635 39.8647 139.331 38.7713 139.194C38.2258 139.126 37.7438 139.1 37.3819 139.104C37.2005 139.107 37.0534 139.116 36.9454 139.131C36.8913 139.139 36.851 139.147 36.8229 139.155C36.8075 139.159 36.7993 139.162 36.7961 139.164C36.6939 139.238 36.5361 139.398 36.3382 139.63C36.1413 139.86 35.9178 140.145 35.6905 140.448C35.2454 141.042 34.7913 141.696 34.5022 142.127ZM39.1949 170.625C39.2721 172.294 39.3671 174.436 39.456 176.599L42.8365 171.067C42.6981 171.049 42.5238 171.03 42.3242 171.011C42.148 170.994 41.9501 170.976 41.742 170.958C41.4555 170.932 41.1495 170.905 40.8541 170.875C40.3409 170.824 39.8343 170.763 39.461 170.688C39.3666 170.669 39.2766 170.648 39.1949 170.625ZM42.6025 172.319L39.4892 177.413C39.575 179.545 39.6521 181.643 39.6976 183.271C39.7082 183.651 39.7171 184.005 39.724 184.329C40.6177 180.535 41.901 175.13 42.6025 172.319ZM39.7126 186.359L39.7127 186.36C39.7133 186.366 39.7156 186.389 39.7282 186.433C39.7455 186.494 39.7755 186.574 39.8195 186.677C39.9076 186.882 40.0408 187.15 40.2076 187.483L40.2674 187.602L40.2677 187.602C40.5928 188.249 41.0195 189.099 41.4406 190.103C42.2662 192.072 43.0765 194.651 43.0725 197.519C43.2191 197.229 43.3993 196.843 43.6075 196.376C44.1599 195.137 44.8993 193.349 45.7104 191.329C47.3121 187.34 49.1894 182.454 50.4481 179.122C49.8829 178.388 49.9435 177.242 50.911 175.6C52.6456 172.657 53.4867 170.485 53.7082 169.719C53.6892 169.632 53.6734 169.509 53.6603 169.369C53.6421 169.173 53.6271 168.918 53.6203 168.617C53.6066 168.014 53.6254 167.22 53.7171 166.34C53.8081 165.467 53.9716 164.501 54.2497 163.548C54.1297 163.707 54.0067 163.864 53.8813 164.018C53.461 164.534 53.0099 165.019 52.5538 165.4C52.1009 165.779 51.6261 166.069 51.1586 166.172C50.6807 166.277 49.9815 166.634 49.1736 167.134C48.3737 167.629 47.4936 168.247 46.6612 168.848C46.3272 169.089 45.9999 169.328 45.6889 169.555C45.2285 169.892 44.8039 170.203 44.4462 170.454C44.1463 170.665 43.8863 170.84 43.6862 170.958C43.587 171.016 43.4953 171.064 43.4168 171.096C43.4047 171.1 43.3923 171.105 43.3795 171.11C42.7818 173.346 40.7028 182.135 39.7126 186.359ZM55.369 161.907C54.6602 163.316 54.3166 164.96 54.1678 166.387C54.0782 167.247 54.06 168.021 54.0733 168.606C54.0799 168.899 54.0944 169.144 54.1115 169.327C54.1204 169.423 54.1297 169.497 54.1378 169.55C54.2337 169.533 54.3793 169.486 54.5677 169.403C54.9534 169.232 55.4732 168.927 56.0198 168.506C57.1167 167.661 58.2826 166.38 58.706 164.834C58.7994 164.493 58.9147 164.076 59.0465 163.603C59.2765 162.777 59.5566 161.777 59.8589 160.698C61.0272 156.53 62.528 151.175 62.7584 150.035C62.8345 149.659 62.863 148.943 62.8362 148.01C62.8096 147.085 62.7291 145.965 62.5948 144.795C62.3253 142.447 61.8422 139.921 61.1563 138.341C60.6195 137.104 59.8712 136.556 59.1754 136.35C58.576 136.174 57.9938 136.245 57.5834 136.385C57.9456 137.268 58.4161 138.669 58.7574 140.258C59.1274 141.981 59.3491 143.942 59.1062 145.714C58.9798 146.636 58.8658 147.75 58.742 148.961C58.7208 149.168 58.6993 149.379 58.6774 149.591C58.528 151.042 58.3602 152.598 58.1391 154.092C57.918 155.586 57.6427 157.024 57.2765 158.24C56.9168 159.434 56.4612 160.442 55.8593 161.068C55.7247 161.314 55.5591 161.599 55.369 161.907ZM54.0934 170.009C53.7993 170.932 52.9409 173.049 51.3014 175.831C50.3087 177.515 50.4275 178.434 50.8746 178.927C51.1639 179.246 51.6314 179.441 52.1939 179.533C52.7523 179.623 53.3758 179.606 53.9409 179.526C54.8892 179.39 55.7435 178.587 56.7493 177.045C57.5559 175.808 58.43 174.145 59.5136 172.083C59.7723 171.591 60.043 171.076 60.3275 170.539C61.4846 168.354 61.498 166.797 61.0936 165.746C60.7324 164.807 60.0243 164.236 59.4159 163.966C59.3119 164.34 59.22 164.672 59.143 164.954C58.683 166.634 57.4323 167.99 56.2963 168.865C55.7264 169.304 55.1757 169.629 54.7515 169.817C54.5415 169.91 54.3508 169.975 54.1986 169.999C54.165 170.004 54.1295 170.008 54.0934 170.009ZM38.929 207.501C38.4452 207.776 37.8367 207.989 37.2531 207.912C36.8499 207.858 36.4669 207.666 36.1614 207.278C35.8958 206.941 35.6964 206.466 35.5811 205.827C34.5962 206.102 33.7902 205.909 33.1588 205.361C32.5431 204.826 32.1183 203.974 31.8281 202.973C30.4466 203.582 28.3886 204.735 27.2225 206.064C26.6091 206.763 26.2762 207.471 26.3612 208.15C26.6474 210.433 27.6471 211.367 28.03 211.542L28.1217 211.584L28.9705 214.282C29.3543 214.774 29.9449 215.473 30.5006 216.015C30.7858 216.294 31.0529 216.522 31.2726 216.66C31.383 216.729 31.4701 216.769 31.5334 216.785C31.5973 216.801 31.608 216.787 31.5987 216.793C31.8157 216.659 32.0845 216.7 32.3102 216.776C32.5483 216.855 32.8085 216.997 33.0614 217.16C33.5619 217.483 34.0741 217.916 34.3991 218.222C35.0695 218.67 36.1311 219.306 37.1539 219.771C37.6698 220.005 38.168 220.192 38.5968 220.291C39.0363 220.393 39.3579 220.391 39.5521 220.302C39.87 220.156 40.1842 220.068 40.4563 219.991L40.5429 219.967C40.8446 219.881 41.0726 219.808 41.2426 219.688C41.3977 219.579 41.5137 219.424 41.5647 219.143C41.6179 218.85 41.5993 218.419 41.4626 217.773C40.9039 215.132 40.1194 211.504 38.834 209.308L38.8003 209.251L38.8031 209.184C38.8151 208.904 38.84 208.46 38.8758 208.034C38.8912 207.852 38.9088 207.668 38.929 207.501ZM28.5261 214.379L27.7481 211.906C27.16 211.573 26.1943 210.461 25.9116 208.206C25.8032 207.341 26.2313 206.509 26.8737 205.774C26.905 205.728 26.9099 205.698 26.9097 205.68C26.9094 205.66 26.9024 205.63 26.8725 205.588C26.807 205.495 26.6638 205.388 26.4452 205.281C26.0171 205.07 25.4179 204.913 24.9924 204.834L25.0061 204.387C25.016 204.385 25.0499 204.377 25.1138 204.341C25.1746 204.307 25.2493 204.257 25.3378 204.188C25.5148 204.051 25.7317 203.854 25.9802 203.607C26.4765 203.114 27.0827 202.437 27.7225 201.686C28.9801 200.209 30.3555 198.456 31.2557 197.268C31.2797 195.961 31.379 194.7 31.5079 193.653L31.5086 193.648L31.5096 193.642C32.0091 190.785 32.4906 184.725 31.2644 179.799C30.1807 181.185 28.6999 183.162 27.4657 184.994C26.793 185.992 26.1964 186.942 25.7775 187.728C25.568 188.121 25.4055 188.468 25.3 188.756C25.1918 189.052 25.1545 189.257 25.1665 189.379C25.2075 189.796 25.0415 190.312 24.7862 190.845C24.5264 191.387 24.1553 191.983 23.7415 192.575C22.9136 193.759 21.8996 194.947 21.2175 195.681L21.1354 195.769L21.0163 195.75C20.0468 195.597 18.4967 195.695 17.0305 196.493C15.573 197.287 14.1824 198.781 13.529 201.455C12.205 206.873 13.2502 211.215 13.9205 212.681L13.9689 212.787L13.9108 212.888C13.635 213.368 13.2926 214.099 13.1513 214.736C13.08 215.056 13.0658 215.328 13.1165 215.525C13.1628 215.705 13.2597 215.817 13.4423 215.867C14.4955 216.156 15.5879 216.147 15.9922 216.107L16.244 216.082L16.2409 216.335C16.2362 216.729 16.3233 217.283 16.5778 217.681C16.7025 217.877 16.8623 218.027 17.0652 218.112C17.2671 218.196 17.5329 218.223 17.8864 218.136C18.6583 217.944 19.1426 217.753 19.4321 217.598C19.5771 217.521 19.6679 217.455 19.7206 217.407C19.7481 217.382 19.7607 217.366 19.7655 217.359L19.8228 217.062L20.0991 217.224C20.2798 217.33 20.5979 217.436 20.9415 217.4C21.2734 217.365 21.6463 217.195 21.9591 216.72L22.0256 216.619L22.1466 216.618C23.0828 216.611 24.5334 216.481 25.8345 216.117C26.485 215.935 27.0886 215.697 27.5698 215.393C28.0245 215.106 28.3559 214.769 28.5261 214.379ZM31.2506 198.022C30.3643 199.176 29.1717 200.683 28.0675 201.98C27.4249 202.734 26.8092 203.422 26.2997 203.928C26.0605 204.166 25.841 204.368 25.6508 204.519C25.9872 204.608 26.3475 204.728 26.6452 204.874C26.8814 204.99 27.1094 205.138 27.2424 205.326L27.2473 205.333C27.2537 205.342 27.26 205.352 27.2661 205.361C28.5418 204.117 30.4409 203.082 31.7104 202.53C31.3846 201.187 31.2583 199.59 31.2506 198.022ZM70.1499 97.4985C69.7328 96.9535 69.3067 96.7242 68.7998 96.8343C68.5325 96.8923 68.2207 97.0481 67.8562 97.3419C67.3238 97.7709 67.1067 98.3359 67.0939 98.9691C67.081 99.6106 67.2791 100.318 67.58 100.998C67.9462 101.825 68.4537 102.588 68.8713 103.103C69.1594 103.37 69.7333 103.755 70.3079 103.906C70.5967 103.981 70.8666 103.992 71.095 103.919C71.3155 103.847 71.5201 103.69 71.6749 103.379C71.9771 102.772 72.0489 102.315 71.9752 101.809C71.8996 101.29 71.6716 100.715 71.3346 99.8648L71.3202 99.8284C70.9414 98.8727 70.5713 98.0491 70.1499 97.4985ZM39.0415 88.7958C37.2151 88.4868 35.3763 88.8063 34.099 90.4943C33.9579 90.6808 33.8187 90.8642 33.6816 91.0448C32.179 93.0247 30.9207 94.6827 29.98 96.6502C28.9585 98.7865 28.3085 101.297 28.1578 104.979C28.194 105.318 28.2862 105.708 28.45 106.108C28.8103 106.99 29.5125 107.912 30.7154 108.455C31.9192 108.998 33.6524 109.174 36.0972 108.507C42.1186 106.865 45.8953 102.873 47.034 101.087C47.5954 99.6237 48.0966 97.3678 47.8006 95.3266C47.6523 94.3042 47.3057 93.3461 46.6769 92.5664C46.0501 91.7893 45.132 91.1756 43.8145 90.8566L43.7716 90.8462L43.7357 90.8205C42.657 90.0464 40.8743 89.1058 39.0415 88.7958Z" fill="black"/>
<path d="M68.7998 96.8343C69.3067 96.7242 69.7328 96.9535 70.1499 97.4985C70.5713 98.0491 70.9414 98.8727 71.3202 99.8284L71.3346 99.8648C71.6716 100.715 71.8996 101.29 71.9752 101.809C72.0489 102.315 71.9771 102.772 71.6749 103.379C71.5201 103.69 71.3155 103.847 71.095 103.919C70.8666 103.992 70.5967 103.981 70.3079 103.906C69.7333 103.755 69.1594 103.37 68.8713 103.103C68.4537 102.588 67.9462 101.825 67.58 100.998C67.2791 100.318 67.081 99.6106 67.0939 98.9691C67.1067 98.3359 67.3238 97.7709 67.8562 97.3419C68.2207 97.0481 68.5325 96.8923 68.7998 96.8343Z" fill="#F6A8A5"/>
<path d="M66.6409 98.96C66.6268 99.6566 66.8288 100.392 67.1187 101.073C67.0705 101.155 67.021 101.242 66.9707 101.334C66.5163 102.006 65.5005 102.973 63.8908 103.127C62.7383 103.237 61.9057 102.699 61.2084 101.752C60.5024 100.794 59.9603 99.4487 59.4003 98.0092C58.9246 96.7863 59.1002 95.2668 59.6518 93.7926C60.2017 92.3226 61.1124 90.934 62.0528 89.9927C62.2501 89.7952 62.4479 89.6182 62.643 89.4648C63.7858 88.5659 64.9272 88.4198 66.068 88.7324C66.9618 88.9773 67.8633 89.5066 68.7642 90.2013C69.4962 90.7659 69.6618 91.8815 69.5095 93.1518C69.3655 94.352 68.9474 95.6008 68.5893 96.4202C68.2656 96.5127 67.9281 96.702 67.5718 96.9891C66.9171 97.5168 66.6558 98.2182 66.6409 98.96Z" fill="#F6A8A5"/>
<path d="M72.4236 101.744C72.3539 101.265 72.1706 100.754 71.9247 100.125C72.1496 100.214 72.3981 100.323 72.6605 100.454C74.1121 101.178 75.9161 102.516 76.5337 104.464C76.7103 105.021 76.65 105.631 76.4084 106.274C76.1664 106.918 75.7472 107.58 75.2275 108.227C74.188 109.522 72.7738 110.721 71.6752 111.542C70.8934 112.127 70.2906 112.505 70.1052 112.592C69.7938 112.738 69.3195 112.762 68.6991 112.314C68.0683 111.859 67.3001 110.922 66.454 109.171C65.8029 107.824 65.839 106.225 66.1671 104.751C66.4461 103.497 66.9315 102.356 67.3536 101.578C67.7156 102.297 68.1567 102.943 68.5295 103.401L68.539 103.412L68.5499 103.422C68.8747 103.729 69.5207 104.168 70.1932 104.344C70.5316 104.432 70.8957 104.459 71.2343 104.35C71.5808 104.238 71.8763 103.991 72.0806 103.581C72.4171 102.905 72.5126 102.355 72.4236 101.744Z" fill="#F6A8A5"/>
<path fill-rule="evenodd" clip-rule="evenodd" d="M49.3174 140.189L48.156 137.736C43.8362 137.526 39.3577 136.634 36.6534 135.846C36.472 136.021 36.2737 136.33 36.0708 136.757C35.8414 137.239 35.6211 137.837 35.4192 138.475C35.1556 139.308 34.9262 140.199 34.7503 140.97C34.9348 140.71 35.1322 140.437 35.328 140.176C35.5583 139.87 35.7881 139.576 35.9937 139.336C36.1947 139.1 36.3866 138.899 36.5392 138.79C36.5909 138.753 36.6516 138.732 36.7014 138.718C36.7553 138.703 36.817 138.692 36.8835 138.682C37.0165 138.664 37.1839 138.654 37.3764 138.651C37.7623 138.647 38.2652 138.674 38.8277 138.745C39.9503 138.886 41.3315 139.199 42.5057 139.78C43.6766 140.36 44.6809 141.227 44.9688 142.492C45.2568 143.757 44.8097 145.341 43.2664 147.311C40.2617 151.147 39.2583 156.739 39.0008 161.459C38.8724 163.814 38.93 165.94 39.0127 167.506C39.0526 168.262 39.0983 168.886 39.1318 169.343L39.1353 169.392C39.1521 169.621 39.1657 169.808 39.1731 169.945C39.1769 170.013 39.1793 170.071 39.1796 170.117L39.1797 170.131L39.1797 170.141C39.2543 170.174 39.3784 170.209 39.5509 170.244C39.8998 170.314 40.3864 170.373 40.8993 170.424C41.196 170.454 41.4937 170.481 41.7754 170.506C41.9835 170.524 42.1831 170.542 42.3677 170.56C42.5817 170.581 42.7732 170.601 42.9251 170.622C43.0394 170.638 43.1514 170.656 43.2339 170.68C43.2383 170.679 43.2433 170.677 43.2489 170.675C43.2958 170.656 43.3646 170.621 43.4569 170.567C43.6398 170.459 43.8869 170.294 44.1854 170.084C44.5404 169.834 44.9579 169.529 45.4142 169.195L45.4158 169.194C45.7271 168.966 46.0563 168.725 46.3959 168.48C47.2301 167.878 48.1209 167.253 48.9352 166.749C49.7414 166.25 50.4997 165.853 51.0614 165.729C51.4256 165.649 51.8337 165.412 52.2632 165.053C52.6895 164.696 53.1204 164.235 53.5299 163.732C54.0768 163.06 54.5785 162.324 54.9734 161.685C55.1274 161.381 55.2982 161.086 55.4874 160.806L55.499 160.788L55.5136 160.774C56.0467 160.23 56.4836 159.301 56.8427 158.109C57.1996 156.924 57.4711 155.51 57.6908 154.026C57.9104 152.542 58.0773 150.995 58.2267 149.545L58.2911 148.916C58.4148 147.707 58.5297 146.583 58.6572 145.652C58.8902 143.953 58.6789 142.05 58.3143 140.353C58.0358 139.056 57.6698 137.889 57.3523 137.038C57.1741 137.843 56.9244 138.832 56.5906 139.747C56.368 140.357 56.1052 140.943 55.7963 141.422C55.4897 141.897 55.1231 142.289 54.6836 142.48C54.5653 142.531 54.4443 142.585 54.322 142.64L54.3207 142.641L54.3179 142.642L54.3168 142.642C54.0586 142.758 53.7944 142.876 53.5367 142.976C53.1517 143.127 52.7557 143.249 52.3638 143.278C51.9674 143.309 51.5726 143.244 51.1991 143.021C50.8281 142.8 50.4969 142.433 50.2053 141.889L50.2042 141.887L49.3214 140.197L49.3174 140.189ZM50.6371 147.124C50.3838 148.049 49.4287 148.594 48.5038 148.34C47.5788 148.087 47.0343 147.132 47.2875 146.207C47.5408 145.282 48.4959 144.738 49.4209 144.991C50.3458 145.244 50.8903 146.199 50.6371 147.124ZM56.4346 145.471C56.865 145.589 57.4192 144.935 57.6725 144.01C57.9257 143.085 57.7821 142.239 57.3517 142.122C56.9213 142.004 56.367 142.658 56.1138 143.583C55.8605 144.508 56.0042 145.353 56.4346 145.471Z" fill="#FF6C66"/>
</svg>
