<svg width="359" height="554" viewBox="0 0 359 554" fill="none" xmlns="http://www.w3.org/2000/svg">
<rect x="1.38818" y="0.821289" width="357" height="552.579" rx="4.5" fill="white" stroke="black"/>
<mask id="path-2-inside-1_56_749" fill="white">
<path fill-rule="evenodd" clip-rule="evenodd" d="M44.0839 419.296C23.6913 420.676 6.50073 412.049 5.68766 400.028C4.87458 388.007 20.7469 377.144 41.1395 375.764C61.532 374.385 78.7226 383.012 79.5357 395.033C79.8266 399.334 77.9813 403.487 74.5571 407.11L78.6293 414.099C78.9385 414.629 78.4226 415.259 77.8415 415.06L68.6185 411.906C62.2903 415.893 53.6884 418.647 44.0839 419.296Z"/>
</mask>
<path d="M5.68766 400.028L6.34949 399.983L5.68766 400.028ZM44.0839 419.296L44.1286 419.958L44.0839 419.296ZM41.1395 375.764L41.0947 375.102L41.1395 375.764ZM79.5357 395.033L78.8738 395.078L79.5357 395.033ZM74.5571 407.11L73.984 407.444L73.7341 407.015L74.075 406.655L74.5571 407.11ZM78.6293 414.099L78.0561 414.433L78.0561 414.433L78.6293 414.099ZM77.8415 415.06L77.6268 415.688L77.8415 415.06ZM68.6185 411.906L68.2649 411.345L68.5331 411.176L68.8331 411.278L68.6185 411.906ZM6.34949 399.983C6.73373 405.664 11.0001 410.661 17.841 414.094C24.6662 417.519 33.9401 419.317 44.0391 418.634L44.1286 419.958C33.8351 420.654 24.3175 418.829 17.2459 415.28C10.1901 411.739 5.45467 406.413 5.02584 400.072L6.34949 399.983ZM41.1842 376.426C31.0852 377.109 22.1379 380.14 15.8361 384.453C9.51984 388.776 5.96525 394.302 6.34949 399.983L5.02584 400.072C4.597 393.732 8.57202 387.817 15.0868 383.358C21.616 378.889 30.8011 375.799 41.0947 375.102L41.1842 376.426ZM78.8738 395.078C78.4896 389.397 74.2232 384.399 67.3824 380.966C60.5572 377.541 51.2832 375.743 41.1842 376.426L41.0947 375.102C51.3883 374.406 60.9059 376.232 67.9774 379.781C75.0333 383.321 79.7687 388.648 80.1975 394.988L78.8738 395.078ZM74.075 406.655C77.4096 403.126 79.149 399.146 78.8738 395.078L80.1975 394.988C80.5042 399.522 78.5531 403.848 75.0393 407.566L74.075 406.655ZM78.0561 414.433L73.984 407.444L75.1303 406.776L79.2024 413.765L78.0561 414.433ZM78.0561 414.433L78.0561 414.433L79.2024 413.765C79.8209 414.826 78.7891 416.085 77.6268 415.688L78.0561 414.433ZM68.8331 411.278L78.0561 414.433L77.6268 415.688L68.4038 412.534L68.8331 411.278ZM44.0391 418.634C53.5508 417.991 62.043 415.265 68.2649 411.345L68.9721 412.467C62.5376 416.521 53.8261 419.302 44.1286 419.958L44.0391 418.634Z" fill="black" mask="url(#path-2-inside-1_56_749)"/>
<path d="M26.994 399.721H26.4964V400.218H24.5064V399.721H24.0089V399.223H23.5114V395.741H24.0089V395.243H24.5064V394.746H26.4964V395.243H26.994V395.741H27.4915V396.238H28.984V394.248H29.979V400.716H28.984V398.726H27.4915V399.223H26.994V399.721ZM25.0039 399.223V399.721H25.9989V399.223H26.4964V395.741H25.9989V395.243H25.0039V395.741H24.5064V399.223H25.0039ZM28.984 398.228V396.736H27.4915V398.228H28.984ZM31.969 396.238V395.243H36.944V394.746H31.969V394.248H37.939V395.741H32.964V396.238H37.939V396.736H32.4665V396.238H31.969ZM38.4366 397.233V397.731H31.4715V397.233H38.4366ZM37.939 398.228V400.218H37.4415V400.716H32.4665V400.218H31.969V398.228H37.939ZM36.944 400.218V398.726H32.964V400.218H36.944ZM45.8991 394.248V400.716H44.9041V394.248H45.8991ZM42.4166 399.721V400.218H40.4266V399.721H39.9291V399.223H39.4316V395.741H39.9291V395.243H40.4266V394.746H42.4166V395.243H42.9141V395.741H43.4116V399.223H42.9141V399.721H42.4166ZM40.9241 395.243V395.741H40.4266V399.223H40.9241V399.721H41.9191V399.223H42.4166V395.741H41.9191V395.243H40.9241ZM47.8891 397.233V396.736H47.3916V395.243H47.8891V394.746H48.3866V394.248H50.3767V394.746H50.8742V395.243H51.3717V395.741H52.8642V394.248H53.8592V397.731H52.8642V396.238H51.3717V396.736H50.8742V397.233H50.3767V397.731H48.3866V397.233H47.8891ZM48.8841 396.736V397.233H49.8792V396.736H50.3767V395.243H49.8792V394.746H48.8841V395.243H48.3866V396.736H48.8841ZM47.8891 400.716V400.218H48.3866V399.721H48.8841V398.228H49.8792V399.721H50.3767V400.218H50.8742V400.716H49.8792V400.218H48.8841V400.716H47.8891ZM51.3717 400.218H51.8692V399.721H52.3667V398.228H53.3617V399.721H53.8592V400.218H54.3567V400.716H53.3617V400.218H52.3667V400.716H51.3717V400.218ZM61.3218 394.248V397.233H62.8143V397.731H61.3218V400.716H60.3267V394.248H61.3218ZM58.3367 399.721V400.218H55.8492V399.721H55.3517V394.746H58.8342V395.243H56.3467V399.721H57.8392V399.223H58.8342V399.721H58.3367ZM65.7993 399.721H64.3068V398.726H65.7993V399.721Z" fill="black"/>
<path d="M89.6338 486.203H75.9194C77.6225 489.729 77.1641 492.914 74.7529 496.361C77.1152 496.091 77.666 497.583 77.646 498.363C78.2 498.039 78.8043 497.801 79.4624 497.673C82.6311 497.056 86.5175 496.791 89.6338 496.698V486.203Z" fill="black"/>
<path d="M94.8065 519.18C93.4943 521.407 89.0654 525.353 81.8476 523.32C79.2804 522.598 77.3499 521.105 75.9194 519.312C73.7659 523.755 65.8235 522.584 62.1214 521.444C60.5228 520.852 56.8658 518.041 55.0263 511.523C54.6034 510.025 54.5119 508.624 54.6515 507.335C54.8402 505.593 55.4514 504.057 56.2371 502.768C57.3978 500.863 58.9392 499.496 60.062 498.794C57.7178 496.591 54.5796 491.471 58.0363 485.719C59.6459 483.041 62.1467 481.854 64.7611 481.5C56.42 481.545 43.2267 480.878 38.7901 477.847C33.7173 474.381 32.1909 465.837 32.0619 461.997C28.8695 465.234 23.3131 473.94 26.6259 482.865C30.767 494.022 35.5548 522.172 41.1193 527.219C46.6839 532.266 45.684 551.548 51.8602 547.018C58.0363 542.489 75.7434 527.866 89.4246 528.125C103.106 528.384 131.317 528.887 141.669 510.784C152.022 492.681 162.892 484.288 157.975 482.865C154.041 481.726 137.469 489.457 129.675 493.465C129.885 498.184 130.023 502.596 128.827 505.574C128.45 506.511 127.942 507.306 127.262 507.923C126.382 508.722 125.208 510.001 123.643 511.43C122.338 512.622 120.761 513.919 118.858 515.128C113.654 518.436 106.011 521.093 94.8065 519.18Z" fill="#F4A8DC"/>
<path d="M97.367 421.111C93.1902 422.313 91.9553 425.045 91.86 426.26C90.0243 425.867 86.1958 425.639 85.5664 427.87C85.016 429.822 86.2512 431.336 87.7164 432.143C88.3453 432.489 89.0166 432.705 89.6072 432.769C88.7728 434.879 88.4413 438.87 93.7909 437.954C95.2571 437.752 98.2609 436.853 98.547 434.879C99.7509 436.381 102.774 439.099 105.234 437.954C107.694 436.81 107.236 434.021 106.7 432.769C108.08 432.538 110.1 431.865 110.857 430.651C111.31 429.925 111.311 429.005 110.455 427.87C108.166 424.838 104.471 425.533 102.91 426.26C102.719 426.007 102.613 420.964 98.9427 420.883C98.4773 420.872 97.9545 420.942 97.367 421.111Z" fill="#C0FEFD"/>
<path d="M60.5007 499.181C63.5358 500.358 70.4353 501.704 73.7523 497.673C74.1164 497.231 74.45 496.794 74.7529 496.361C77.1641 492.914 77.6225 489.729 75.9194 486.203C75.4001 485.128 74.6797 484.021 73.7523 482.865C72.3392 482.255 70.2534 481.636 68.0095 481.442C67.0532 481.473 65.957 481.494 64.7611 481.5C62.1467 481.854 59.6459 483.041 58.0363 485.719C54.5796 491.471 57.7178 496.591 60.062 498.794C60.2122 498.935 60.359 499.065 60.5007 499.181Z" fill="#C0FEFD"/>
<path d="M109.457 484.458C106.846 483.133 100.819 481.076 97.6027 483.448C94.8551 485.374 90.1263 490.495 93.1918 495.562C93.4267 495.95 93.6771 496.321 93.9411 496.674C97.9817 502.081 105.202 503.441 108.966 503.147L109.104 497.91L109.197 494.389C109.144 494.389 109.131 494.383 109.197 494.369L109.284 491.041L109.457 484.458Z" fill="#C0FEFD"/>
<path d="M113.539 489.03C115.407 487.001 111.596 485.136 109.457 484.458L109.284 491.041C110.23 491.002 111.268 490.543 112.117 490.039C112.722 489.679 113.23 489.298 113.539 489.03Z" fill="#FFF4A2"/>
<path d="M112.117 490.039C111.268 490.543 110.23 491.002 109.284 491.041L109.197 494.369C109.371 494.332 110.096 494.234 112.117 494.022C114.907 493.728 113.28 491.244 112.117 490.039Z" fill="#FFF4A2"/>
<path d="M112.117 497.765C113.78 497.153 112.81 495.015 112.117 494.022C110.096 494.234 109.371 494.332 109.197 494.369L109.197 494.389L109.104 497.91C109.415 498.116 110.453 498.377 112.117 497.765Z" fill="#FFF4A2"/>
<path d="M109.104 497.91L108.966 503.147C109.973 503.069 111.186 502.823 112.484 502.412C113.211 500.948 112.542 498.704 112.117 497.765C110.453 498.377 109.415 498.116 109.104 497.91Z" fill="#FFF4A2"/>
<path d="M87.7164 432.143C86.2512 431.336 85.016 429.822 85.5664 427.87C86.1958 425.639 90.0243 425.867 91.86 426.26C91.9553 425.045 93.1902 422.313 97.367 421.111C97.9545 420.942 98.4773 420.872 98.9427 420.883M87.7164 432.143C88.3453 432.489 89.0166 432.705 89.6072 432.769C88.7728 434.879 88.4413 438.87 93.7909 437.954C95.2571 437.752 98.2609 436.853 98.547 434.879C99.7509 436.381 102.774 439.099 105.234 437.954C107.694 436.81 107.236 434.021 106.7 432.769C108.08 432.538 110.1 431.865 110.857 430.651M87.7164 432.143C85.4811 432.344 82.2693 433.276 79.4151 435.39M72.9942 449.802H73.9553M72.9942 449.802C69.6614 451.574 63.5549 457.075 65.7909 464.901C67.2301 469.938 70.6487 472.954 73.7523 474.559M72.9942 449.802C72.8199 442.548 75.8365 438.04 79.4151 435.39M110.857 430.651C111.31 429.925 111.311 429.005 110.455 427.87C108.166 424.838 104.471 425.533 102.91 426.26C102.719 426.007 102.613 420.964 98.9427 420.883M110.857 430.651C112.778 431.164 115.816 432.934 118.44 436.572M95.5798 479.833C97.6393 481.068 105.362 479.023 108.966 477.847C115.969 478.553 120.906 476.745 122.499 475.753C122.695 475.553 122.887 475.354 123.073 475.156M95.5798 479.833L97.6027 483.448M95.5798 479.833C92.0511 476.8 90.271 475.889 87.2562 474.704C85.0801 473.849 80.3554 474.987 78.2285 476.03M78.2285 476.03C74.6169 479.28 74.3186 480.73 73.7523 482.865M78.2285 476.03C77.0927 475.903 75.4708 475.447 73.7523 474.559M73.7523 482.865C74.6797 484.021 75.4001 485.128 75.9194 486.203M73.7523 482.865C72.3392 482.255 70.2534 481.636 68.0095 481.442M97.6027 483.448C100.819 481.076 106.846 483.133 109.457 484.458M97.6027 483.448C94.8551 485.374 90.1263 490.495 93.1918 495.562C93.4267 495.95 93.6771 496.321 93.9411 496.674M98.9427 420.883C96.6325 418.173 90.116 413.987 82.5316 418.923C74.9471 423.858 77.2937 431.957 79.4151 435.39M98.9427 420.883C101.212 418.084 107.526 413.725 114.627 418.677C123.502 424.866 120.309 434.645 118.44 436.572M118.44 436.572C120.75 439.774 122.739 444.424 123.365 450.937C127.758 454.321 133.71 463.83 123.073 475.156M83.6436 439.763C83.6959 441.384 83.2609 444.626 81.1024 444.626C78.944 444.626 78.8018 441.384 79.0005 439.763M62.7917 487.858C62.6648 489.868 63.2106 493.646 66.4094 492.681C67.2134 492.301 68.9101 491.26 69.2655 490.143M114.462 480.235L109.457 484.458M109.457 484.458C111.596 485.136 115.407 487.001 113.539 489.03C113.23 489.298 112.722 489.679 112.117 490.039M109.457 484.458L109.284 491.041M108.966 503.147L109.104 497.91M108.966 503.147C109.973 503.069 111.186 502.823 112.484 502.412M108.966 503.147C105.202 503.441 97.9817 502.081 93.9411 496.674M123.221 494.389C120.995 498.489 116.357 501.185 112.484 502.412M101.574 486.008C101.438 487.905 101.737 491.389 104.016 490.143C104.4 489.804 105.318 488.965 105.915 488.314C106.143 489.338 106.806 491.264 107.637 490.766M109.284 491.041C110.23 491.002 111.268 490.543 112.117 490.039M109.284 491.041L109.197 494.369M112.117 490.039C113.28 491.244 114.907 493.728 112.117 494.022M112.117 494.022C112.81 495.015 113.78 497.153 112.117 497.765M112.117 494.022C110.096 494.234 109.371 494.332 109.197 494.369M109.197 494.389L109.104 497.91M109.197 494.389C109.144 494.389 109.131 494.383 109.197 494.369M109.197 494.389L109.197 494.369M112.117 497.765C110.453 498.377 109.415 498.116 109.104 497.91M112.117 497.765C112.542 498.704 113.21 500.948 112.484 502.412M121.142 485.077C121.264 486.797 121.935 489.996 123.643 489.03C125.351 488.064 124.843 486.318 124.375 485.565M123.073 475.156C125.154 476.867 129.349 481.894 129.48 488.314C129.515 490.035 129.6 491.77 129.675 493.465M94.8065 519.18C95.7573 517.817 95.2027 514.217 94.8065 512.587M94.8065 519.18C93.4943 521.407 89.0654 525.353 81.8476 523.32C79.2804 522.598 77.3499 521.105 75.9194 519.312M94.8065 519.18C106.011 521.093 113.654 518.436 118.858 515.128M93.9411 496.674C92.9409 496.648 91.4128 496.645 89.6338 496.698M81.8476 505.574C81.6023 507.556 81.9114 511.172 85.1103 509.783C85.689 509.432 86.8255 508.362 86.7413 506.889C87.1446 508.246 88.246 510.643 89.4246 509.372C90.6031 508.101 90.9679 507.187 91.003 506.889M75.9194 486.203H89.6338V496.698M75.9194 486.203C77.6225 489.729 77.1641 492.914 74.7529 496.361M89.6338 496.698C86.5175 496.791 82.6311 497.056 79.4624 497.673C78.8043 497.801 78.2 498.039 77.646 498.363M77.646 498.363C74.0093 500.49 72.5399 506.339 72.2549 509.372C72.3774 511.822 73.328 516.062 75.9194 519.312M77.646 498.363C77.666 497.583 77.1152 496.091 74.7529 496.361M74.7529 496.361C74.45 496.794 74.1164 497.231 73.7523 497.673C70.4353 501.704 63.5358 500.358 60.5007 499.181C60.359 499.065 60.2122 498.935 60.062 498.794M60.062 498.794C57.7178 496.591 54.5796 491.471 58.0363 485.719C59.6459 483.041 62.1467 481.854 64.7611 481.5M60.062 498.794C58.9392 499.496 57.3978 500.863 56.2371 502.768M55.0263 511.523C56.8658 518.041 60.5228 520.852 62.1214 521.444C65.8235 522.584 73.7659 523.755 75.9194 519.312M55.0263 511.523C54.6034 510.025 54.5119 508.624 54.6515 507.335M55.0263 511.523C51.2253 511.221 43.6101 510.919 43.5575 512.124M63.359 507.335C62.732 509.464 62.4643 513.401 66.4094 512.124C66.8325 511.988 67.7349 511.328 67.9603 509.783M73.7523 474.559C72.7754 475.134 70.7686 476.598 70.5569 477.847C70.3452 479.095 68.7704 480.764 68.0095 481.442M68.0095 481.442C67.0532 481.473 65.957 481.494 64.7611 481.5M68.0095 481.442C66.944 481.35 65.8428 481.354 64.7611 481.5M129.675 493.465C137.469 489.457 154.041 481.726 157.975 482.865C162.892 484.288 152.022 492.681 141.669 510.784C131.317 528.887 103.106 528.384 89.4246 528.125C75.7434 527.866 58.0363 542.489 51.8602 547.018C45.684 551.548 46.6839 532.266 41.1193 527.219C35.5548 522.172 30.767 494.022 26.6259 482.865C23.3131 473.94 28.8695 465.234 32.0619 461.997C32.1909 465.837 33.7173 474.381 38.7901 477.847C43.2267 480.878 56.42 481.545 64.7611 481.5M129.675 493.465C129.885 498.184 130.023 502.596 128.827 505.574M128.827 505.574C128.45 506.511 127.942 507.306 127.262 507.923C126.382 508.722 125.208 510.001 123.643 511.43M128.827 505.574C131.037 504.987 135.846 504.165 137.399 505.574M123.643 511.43C125.978 510.897 130.96 510.235 132.211 511.851M123.643 511.43C122.338 512.622 120.761 513.919 118.858 515.128M118.858 515.128C121.263 514.631 126.312 514.217 127.262 516.545M56.2371 502.768C54.0072 501.562 48.7969 499.282 45.7954 499.809M56.2371 502.768C55.4514 504.057 54.8402 505.593 54.6515 507.335M54.6515 507.335C51.9627 506.748 46.2825 505.574 45.0714 505.574" stroke="black" stroke-width="0.534023"/>
<path d="M74.6714 454.32C74.5358 455.826 74.7602 458.801 76.7429 458.65C78.7256 458.499 79.158 456.265 79.1264 455.167C79.5029 456.579 80.557 459.253 81.7617 458.65C82.9664 458.047 84.0205 456.077 84.397 455.167" stroke="black" stroke-width="0.534023"/>
<path d="M112.647 449.747C112.731 451.372 113.317 454.405 114.987 453.545C116.658 452.684 117.012 450.654 116.981 449.747" stroke="black" stroke-width="0.534023"/>
<path d="M112.614 459.113C112.413 461.402 112.614 465.587 115.019 464.018C115.441 463.733 116.354 462.676 116.633 460.727C116.822 462.299 117.575 465.087 119.069 463.67C120.562 462.252 120.683 461.328 120.556 461.043" stroke="black" stroke-width="0.534023"/>
<path d="M113.942 468.981C114.131 470.249 114.951 472.684 116.727 472.282C118.503 471.88 119.673 469.518 120.036 468.387" stroke="black" stroke-width="0.534023"/>
<path d="M72.7064 463.485C72.6787 465.51 73.3439 469.224 76.2255 467.884C79.1072 466.543 79.3244 464.393 79.0728 463.485" stroke="black" stroke-width="0.534023"/>
<path d="M85.8497 421.598C85.9489 423.391 85.3702 426.276 82.2617 423.466" stroke="black" stroke-width="0.534023"/>
<path d="M110.129 420.807C110.163 422.489 110.781 425.61 112.983 424.637C113.68 424.353 115.1 423.673 115.201 423.216C115.244 424.265 115.592 426.207 116.647 425.588C117.703 424.969 117.907 423.749 117.878 423.216" stroke="black" stroke-width="0.534023"/>
<ellipse cx="91.7098" cy="451.157" rx="3.09253" ry="3.90348" transform="rotate(-3.21661 91.7098 451.157)" fill="black"/>
<circle cx="91.2086" cy="450.03" r="1.07274" transform="rotate(2.89588 91.2086 450.03)" fill="white"/>
<circle cx="92.4354" cy="452.551" r="0.691737" transform="rotate(2.89588 92.4354 452.551)" fill="white"/>
<ellipse cx="102.273" cy="451.467" rx="3.09253" ry="3.90348" transform="rotate(-3.21661 102.273 451.467)" fill="black"/>
<circle cx="101.772" cy="450.341" r="1.07274" transform="rotate(2.89588 101.772 450.341)" fill="white"/>
<circle cx="102.999" cy="452.862" r="0.691737" transform="rotate(2.89588 102.999 452.862)" fill="white"/>
<path d="M100.061 460.866C99.2311 459.892 96.9693 458.105 94.5576 458.752C92.1458 459.398 91.3771 460.866 91.2942 461.519" stroke="black" stroke-width="0.534023"/>
<path d="M88.1651 461.123C88.2355 462.077 88.2207 463.554 87.9372 464.812M86.3169 467.148C87.1834 466.949 87.6751 465.975 87.9372 464.812M87.9372 464.812C88.9921 466.034 91.4406 467.65 92.7963 464.33C93.826 465.137 96.1967 466.189 97.4418 463.937C98.2786 464.785 100.504 466.05 102.713 464.33M102.713 464.33C102.78 463.245 103.155 460.965 104.119 460.523M102.713 464.33C103.253 465.429 104.547 467.523 105.406 467.105" stroke="black" stroke-width="0.534023"/>
<path d="M90.0051 470.174C90.8797 471.359 93.4453 473.501 96.7117 472.581C99.9781 471.661 101.822 470.161 102.336 469.526" stroke="black" stroke-width="0.534023"/>
<path d="M106.945 507.511C106.709 509.62 106.823 513.504 109.171 512.167C109.61 512.015 110.467 511.377 110.386 510.041C110.976 511.037 112.36 512.764 113.169 511.711C113.979 510.659 114.181 509.856 114.181 509.586" stroke="black" stroke-width="0.534023"/>
<path d="M103.239 429.689C103.239 430.228 102.803 430.785 101.94 431.223C101.093 431.654 99.9031 431.928 98.5744 431.928C97.2457 431.928 96.0561 431.654 95.2084 431.223C94.346 430.785 93.9101 430.228 93.9101 429.689C93.9101 429.15 94.346 428.593 95.2084 428.155C96.0561 427.724 97.2457 427.45 98.5744 427.45C99.9031 427.45 101.093 427.724 101.94 428.155C102.803 428.593 103.239 429.15 103.239 429.689Z" fill="#FFF4A2" stroke="black" stroke-width="0.534023"/>
</svg>
