<svg width="25" height="25" viewBox="0 0 25 25" fill="none" xmlns="http://www.w3.org/2000/svg">
<path d="M17.8079 4.85457C16.9041 3.95082 15.4389 3.95082 14.5351 4.85457L12.2019 7.18779L12.7474 7.73325L15.0806 5.40002C15.6831 4.79753 16.6599 4.79753 17.2624 5.40002L19.542 7.67957C20.1445 8.28206 20.1445 9.2589 19.542 9.8614L14.8755 14.5278C14.273 15.1303 13.2962 15.1303 12.6937 14.5279L11.5539 13.3881L11.0085 13.9335L12.1482 15.0733C13.052 15.9771 14.5172 15.9771 15.421 15.0733L20.0874 10.4069C20.9912 9.50311 20.9912 8.03785 20.0874 7.13411L17.8079 4.85457Z" fill="black"/>
<path d="M7.19221 20.0291C8.09596 20.9328 9.56122 20.9328 10.465 20.0291L12.7982 17.6959L12.2527 17.1504L9.9195 19.4836C9.31701 20.0861 8.34017 20.0861 7.73767 19.4836L5.45813 17.2041C4.85563 16.6016 4.85563 15.6248 5.45813 15.0223L10.1246 10.3558C10.7271 9.75331 11.7039 9.75331 12.3064 10.3558L13.4462 11.4956L13.9916 10.9501L12.8519 9.81035C11.9481 8.9066 10.4829 8.9066 9.57912 9.81035L4.91267 14.4768C4.00893 15.3805 4.00893 16.8458 4.91267 17.7495L7.19221 20.0291Z" fill="black"/>
</svg>
