<svg width="54" height="29" viewBox="0 0 54 29" fill="none" xmlns="http://www.w3.org/2000/svg">
<mask id="path-1-inside-1_42_999" fill="white">
<path fill-rule="evenodd" clip-rule="evenodd" d="M2 0C0.895431 0 0 0.895428 0 2V24.2505C0 25.355 0.895429 26.2505 2 26.2505H43.6129L52.5527 28.8003C53.1632 28.9744 53.6903 28.3408 53.4078 27.7722L49.8249 20.558V2C49.8249 0.89543 48.9295 0 47.8249 0H2Z"/>
</mask>
<path fill-rule="evenodd" clip-rule="evenodd" d="M2 0C0.895431 0 0 0.895428 0 2V24.2505C0 25.355 0.895429 26.2505 2 26.2505H43.6129L52.5527 28.8003C53.1632 28.9744 53.6903 28.3408 53.4078 27.7722L49.8249 20.558V2C49.8249 0.89543 48.9295 0 47.8249 0H2Z" fill="white"/>
<path d="M43.6129 26.2505L43.8134 25.5475L43.7151 25.5195H43.6129V26.2505ZM52.5527 28.8003L52.7532 28.0973L52.7532 28.0973L52.5527 28.8003ZM53.4078 27.7722L52.7532 28.0973L52.7532 28.0973L53.4078 27.7722ZM49.8249 20.558H49.094V20.7295L49.1702 20.8831L49.8249 20.558ZM0.730984 2C0.730984 1.29914 1.29914 0.730984 2 0.730984V-0.730984C0.49172 -0.730984 -0.730984 0.491716 -0.730984 2H0.730984ZM0.730984 24.2505V2H-0.730984V24.2505H0.730984ZM2 25.5195C1.29914 25.5195 0.730984 24.9513 0.730984 24.2505H-0.730984C-0.730984 25.7587 0.491717 26.9814 2 26.9814V25.5195ZM43.6129 25.5195H2V26.9814H43.6129V25.5195ZM52.7532 28.0973L43.8134 25.5475L43.4124 26.9534L52.3522 29.5032L52.7532 28.0973ZM52.7532 28.0973L52.7532 28.0973L52.3522 29.5032C53.5733 29.8515 54.6274 28.5844 54.0625 27.447L52.7532 28.0973ZM49.1702 20.8831L52.7532 28.0973L54.0625 27.447L50.4796 20.2328L49.1702 20.8831ZM49.094 2V20.558H50.5559V2H49.094ZM47.8249 0.730984C48.5258 0.730984 49.094 1.29914 49.094 2H50.5559C50.5559 0.49172 49.3332 -0.730984 47.8249 -0.730984V0.730984ZM2 0.730984H47.8249V-0.730984H2V0.730984Z" fill="black" mask="url(#path-1-inside-1_42_999)"/>
<path d="M4.53767 9.42807H3.94303V8.23878H4.53767V7.64414H7.51089V8.23878H5.13232V9.42807H6.91625V10.0227H7.51089V11.212H6.91625V11.8066H3.94303V11.212H6.3216V10.0227H4.53767V9.42807ZM11.0778 7.64414H12.2671V11.8066H9.29387V11.212H8.69922V7.64414H9.88851V11.212H11.0778V7.64414ZM14.6447 11.8066H13.4554V7.64414H17.0233V8.23878H17.6179V11.8066H16.4286V8.23878H15.834V11.212H15.2393V8.23878H14.6447V11.8066ZM19.4009 11.8066H18.2116V7.64414H21.7795V8.23878H22.3741V11.8066H21.1848V8.23878H20.5902V11.212H19.9955V8.23878H19.4009V11.8066ZM22.9678 8.23878H23.5624V7.64414H25.941V8.23878H26.5357V10.0227H24.1571V11.212H25.941V11.8066H23.5624V11.212H22.9678V8.23878ZM25.3464 9.42807V8.23878H24.1571V9.42807H25.3464ZM27.724 7.64414H28.9133V8.83343H29.5079V9.42807H28.9133V11.8066H27.724V7.64414ZM31.2918 7.64414V8.83343H29.5079V8.23878H30.1026V7.64414H31.2918ZM6.3216 17.0495H5.13232V15.8602H6.3216V17.0495ZM6.3216 21.212H7.51089V21.8066H3.94303V21.212H5.13232V18.2388H3.94303V17.6441H6.3216V21.212ZM9.29387 16.4549H10.4832V17.6441H12.2671V18.2388H10.4832V21.212H12.2671V21.8066H9.88851V21.212H9.29387V18.2388H8.69922V17.6441H9.29387V16.4549ZM18.2116 17.6441H19.4009V20.6174H19.9955V21.8066H18.8063V20.6174H18.2116V17.6441ZM21.1848 20.6174V17.6441H22.3741V20.6174H21.7795V21.8066H20.5902V20.6174H21.1848ZM19.9955 20.6174V18.2388H20.5902V20.6174H19.9955ZM25.3464 18.2388H23.5624V17.6441H25.941V18.2388H26.5357V21.8066H23.5624V21.212H22.9678V20.0227H23.5624V19.4281H25.3464V18.2388ZM25.3464 21.212V20.0227H24.1571V21.212H25.3464ZM28.3186 19.4281H27.724V18.2388H28.3186V17.6441H31.2918V18.2388H28.9133V19.4281H30.6972V20.0227H31.2918V21.212H30.6972V21.8066H27.724V21.212H30.1026V20.0227H28.3186V19.4281ZM37.831 18.8334H43.7774V17.6441H37.831V17.0495H44.9667V20.6174H44.3721V21.212H43.1828V20.6174H43.7774V19.4281H37.831V18.8334Z" fill="black"/>
</svg>
