<svg width="65" height="60" viewBox="0 0 65 60" fill="none" xmlns="http://www.w3.org/2000/svg">
<path d="M44.9075 20.0615C44.5182 20.1309 43.9192 20.3654 43.5325 20.8395M43.1797 22.2327C43.0914 21.6306 43.2588 21.1751 43.5325 20.8395M43.5325 20.8395C43.9984 20.9675 44.8375 21.6105 44.4668 23.1587" stroke="#377BC5" stroke-width="0.548628"/>
<path d="M26.3116 33.3014C27.1901 32.8947 28.5328 31.6493 27.7721 29.6591C27.5798 30.2587 24.9374 31.3749 23.6402 31.8581C23.3719 31.9764 22.8791 32.3536 23.0539 32.9162C23.6598 33.5176 24.6772 33.8375 26.3116 33.3014Z" fill="#F7C8C8"/>
<path d="M23.2725 30.9747C22.935 31.0177 22.5971 31.0181 22.2661 30.9629C22.2814 31.5478 22.4883 32.3547 23.0539 32.9162C22.8791 32.3536 23.3719 31.9764 23.6402 31.8581L23.2725 30.9747Z" fill="#AC7272"/>
<path d="M23.2725 30.9747C24.9454 30.7614 26.6043 29.5011 27.3235 28.7822C27.5186 29.0888 27.6659 29.3812 27.7721 29.6591M23.2725 30.9747C22.935 31.0177 22.5971 31.0181 22.2661 30.9629C22.2814 31.5478 22.4883 32.3547 23.0539 32.9162M23.2725 30.9747L23.6402 31.8581M23.6402 31.8581C24.9374 31.3749 27.5798 30.2587 27.7721 29.6591M23.6402 31.8581C23.3719 31.9764 22.8791 32.3536 23.0539 32.9162M27.7721 29.6591C28.5328 31.6493 27.1901 32.8947 26.3116 33.3014C24.6772 33.8375 23.6598 33.5176 23.0539 32.9162M23.3804 27.3916C23.099 27.9506 22.7302 29.0936 23.5059 29.1939" stroke="#377BC5" stroke-width="0.548628"/>
<path fill-rule="evenodd" clip-rule="evenodd" d="M21.4497 37.0387C20.8509 37.0535 20.2365 37.0557 19.6064 37.0444C18.9367 36.9277 18.1188 36.7202 17.2465 36.4099C15.2141 38.4086 11.2703 42.6076 11.754 43.4137C11.8406 43.5581 11.9961 43.691 12.1978 43.8204C13.186 44.4546 15.2855 45.0071 15.8579 46.4411C15.9838 46.7563 16.0358 47.1142 15.986 47.5248C16.3327 47.6043 16.8563 47.603 17.2465 47.3193C17.4175 49.2161 17.7595 53.3136 17.7595 54.529C17.7595 56.0484 22.9176 57.0612 24.2259 56.3438C25.5342 55.6263 38.8706 54.1492 39.588 53.685C40.3055 53.2207 37.9427 41.791 38.4209 41.6544C38.8034 41.5451 41.9045 40.459 43.4072 39.9296C42.716 39.5748 42.5376 38.2846 42.6143 36.7316C42.6756 35.4908 42.8997 34.0823 43.1551 32.8494C43.2939 32.1793 43.4419 31.5611 43.578 31.0498C42.5124 30.722 38.2638 32.1129 36.2727 32.8494C34.9192 33.7766 33.3054 34.6252 31.3993 35.3133C31.3665 35.8162 30.5519 37.1608 27.5564 38.5155C24.5609 39.8702 22.2372 38.0954 21.4497 37.0387ZM20.723 42.3322C21.1619 41.1505 28.5026 40.9676 32.118 41.0239V44.2313L27.5564 45.0332L27.8132 50.8151L24.9012 51.0261L24.2259 45.0332H20.723C20.5401 44.6253 20.2841 43.5139 20.723 42.3322Z" fill="#FF8E26"/>
<path d="M32.118 41.0239C28.5026 40.9676 21.1619 41.1505 20.723 42.3322C20.2841 43.5139 20.5401 44.6253 20.723 45.0332H24.2259L24.9012 51.0261L27.8132 50.8151L27.5564 45.0332L32.118 44.2313V41.0239Z" fill="#FFC289"/>
<path d="M39.588 53.685C38.8706 54.1492 25.5342 55.6263 24.2259 56.3438C22.9176 57.0612 17.7595 56.0484 17.7595 54.529V59.2144H40.4435C40.3878 57.3712 40.1388 53.685 39.588 53.685Z" fill="#6A5FA3"/>
<path d="M42.6143 36.7316C42.5376 38.2846 42.716 39.5748 43.4072 39.9296C44.2382 40.1404 44.714 37.5063 44.8481 36.1629C44.0323 36.3685 43.2719 36.5623 42.6143 36.7316Z" fill="#FF8E26"/>
<path d="M43.578 31.0498C43.4419 31.5611 43.2939 32.1793 43.1551 32.8494C43.5266 32.7547 43.9337 32.6522 44.3679 32.5444C44.4088 31.9786 43.8583 31.3123 43.578 31.0498Z" fill="#FF8E26"/>
<path d="M32.9615 12.2427C31.2854 11.3327 27.3106 10.4131 24.8204 14.0143M9.8428 25.9893C9.10935 20.7105 6.94714 14.2563 5.80547 11.3316L8.9578 12.2427L10.0786 8.87973L13.2316 10.3509L14.9131 7.19809L17.8557 8.31928L20.0977 4.88623L23.9511 7.19809L25.2823 4.04541L28.2249 5.51681L30.1166 2.85445L32.6388 4.46596L34.8107 2.22397L36.7725 4.46596L38.5941 1.66369L41.0463 4.04541L43.4284 1.17334C43.9419 6.68442 44.4086 18.071 42.1669 19.5288C43.7778 18.2443 46.9717 17.0065 46.86 22.3313C46.3935 23.8493 44.8016 26.5631 42.1669 25.2739C41.66 27.3132 39.9012 30.3638 36.2727 32.8494M9.8428 25.9893C8.77437 25.9858 6.88102 26.6425 7.85506 29.297C8.82911 31.9516 10.0901 31.4732 10.5988 30.9022M9.8428 25.9893C9.93511 26.6537 10.0048 27.2995 10.047 27.9172M10.5988 30.9022C10.4232 30.4753 10.2868 30.0233 10.1969 29.5453M10.5988 30.9022C11.7808 33.7764 14.7387 35.5178 17.2465 36.4099M10.047 27.9172C10.0603 28.1133 10.071 28.3066 10.0786 28.4968C10.0933 28.8594 10.1335 29.2088 10.1969 29.5453M10.047 27.9172C9.60817 27.9936 8.84182 28.3123 9.2867 28.9759C9.73158 29.6395 10.0788 29.632 10.1969 29.5453M21.4497 37.0387C20.8509 37.0535 20.2365 37.0557 19.6064 37.0444C18.9367 36.9277 18.1188 36.7202 17.2465 36.4099M21.4497 37.0387C22.2372 38.0954 24.5609 39.8702 27.5564 38.5155C30.5519 37.1608 31.3665 35.8162 31.3993 35.3133M21.4497 37.0387C25.4134 36.9405 28.6996 36.2879 31.3993 35.3133M31.3993 35.3133C33.3054 34.6252 34.9192 33.7766 36.2727 32.8494M17.2465 36.4099C15.2141 38.4086 11.2703 42.6076 11.754 43.4137C11.8406 43.5581 11.9961 43.691 12.1978 43.8204M16.9937 41.9627C17.1952 42.5404 17.6305 44.123 17.7595 45.832C17.8191 46.6223 17.5822 47.0753 17.2465 47.3193M36.2727 32.8494C38.2638 32.1129 42.5124 30.722 43.578 31.0498M43.578 31.0498C43.4419 31.5611 43.2939 32.1793 43.1551 32.8494M43.578 31.0498C43.8583 31.3123 44.4088 31.9786 44.3679 32.5444M43.4072 39.9296C41.9045 40.459 38.8034 41.5451 38.4209 41.6544C37.9427 41.791 40.3055 53.2207 39.588 53.685M43.4072 39.9296C42.716 39.5748 42.5376 38.2846 42.6143 36.7316M43.4072 39.9296C44.2382 40.1404 44.714 37.5063 44.8481 36.1629M39.588 53.685C38.8706 54.1492 25.5342 55.6263 24.2259 56.3438C22.9176 57.0612 17.7595 56.0484 17.7595 54.529M39.588 53.685C40.1388 53.685 40.3878 57.3712 40.4435 59.2144H17.7595V54.529M17.7595 54.529C17.7595 53.3136 17.4175 49.2161 17.2465 47.3193M17.2465 47.3193C16.8563 47.603 16.3327 47.6043 15.986 47.5248C16.0358 47.1142 15.9838 46.7563 15.8579 46.4411M43.1551 32.8494C42.8997 34.0823 42.6756 35.4908 42.6143 36.7316M43.1551 32.8494C43.5266 32.7547 43.9337 32.6522 44.3679 32.5444M42.6143 36.7316C43.272 36.5623 44.0323 36.3685 44.8481 36.1629M63.8338 35.5123C63.9257 35.5052 63.9956 35.457 64.0358 35.3565C64.2849 34.7337 61.6999 31.9653 60.3763 30.6589C61.3108 30.3296 62.9519 29.401 62.0404 28.3206C61.1288 27.2402 58.3968 29.0521 57.1447 30.0931C56.0379 29.7857 48.793 31.4453 44.3679 32.5444M63.8338 35.5123C63.3559 35.5491 62.2846 34.4711 61.7259 33.8253C61.5326 34.0636 61.266 34.3885 61.0053 34.6993M63.8338 35.5123C63.9722 35.7586 64.1814 36.3126 63.9119 36.5576C63.8319 36.6303 63.6188 36.5597 63.3363 36.4056M61.0053 34.6993C60.5657 35.2233 60.1428 35.7071 60.1167 35.668C60.0885 35.6256 61.0205 36.4667 61.7259 37.2969M61.0053 34.6993C61.6076 35.2066 62.6668 36.0405 63.3363 36.4056M63.3363 36.4056C63.5477 36.7881 63.8436 37.5806 63.3363 37.6908C62.8289 37.8011 62.0513 37.4741 61.7259 37.2969M61.7259 37.2969C62.317 37.9925 62.7488 38.6805 62.3228 38.8344C61.3885 39.1718 55.5748 34.1886 55.4451 33.8253C55.3574 33.5797 49.2841 35.045 44.8481 36.1629M59.3151 34.5202C59.2444 33.5229 58.7889 31.5748 57.5326 31.7615M15.8579 46.4411L7.81824 53.81C7.83363 54.5232 7.75667 55.9588 7.32567 55.9958C7.22119 56.0047 7.08023 56.0513 6.92066 56.1152M15.8579 46.4411C15.2855 45.0071 13.186 44.4546 12.1978 43.8204M5.92522 54.0255C5.68909 54.554 5.223 55.7587 5.24763 56.3498C5.25159 56.4448 5.28001 56.5103 5.32766 56.5522M5.32766 56.5522C5.02146 57.1275 4.25598 57.9484 3.64363 56.6301C3.03128 55.3119 3.38848 53.8883 3.64363 53.3413M5.32766 56.5522C5.57863 56.7728 6.36325 56.3384 6.92066 56.1152M12.1978 43.8204L2.1124 53.81C1.58011 54.4955 0.636684 56.0192 1.1213 56.6301C1.72706 57.3937 1.32071 58.9896 2.75252 58.7969C4.18433 58.6041 7.29583 58.2049 6.92066 56.1152M32.118 41.0239C28.5026 40.9676 21.1619 41.1505 20.723 42.3322C20.2841 43.5139 20.5401 44.6253 20.723 45.0332H24.2259L24.9012 51.0261L27.8132 50.8151L27.5564 45.0332L32.118 44.2313V41.0239Z" stroke="#377BC5" stroke-width="0.548628"/>
<path d="M14.0675 24.3542C15.1762 21.8871 19.3547 21.4602 20.1027 22.7407C20.5781 23.5544 20.4526 24.8813 20.3339 25.6213C20.1854 26.5462 19.4215 27.2334 16.725 27.6446C14.5677 27.9735 13.9519 25.4677 14.0675 24.3542Z" fill="white"/>
<ellipse cx="18.1648" cy="24.6182" rx="2.07934" ry="2.47908" fill="black"/>
<circle cx="19.1402" cy="23.6658" r="0.927525" fill="white"/>
<circle cx="17.6465" cy="26.5108" r="0.566439" fill="white"/>
<path d="M28.8661 21.1818C29.9748 18.7147 34.1533 18.2879 34.9013 19.5684C35.3767 20.3821 35.2512 21.709 35.1324 22.4489C34.984 23.3738 34.2201 24.061 31.5235 24.4722C29.3663 24.8011 28.7505 22.2953 28.8661 21.1818Z" fill="white"/>
<ellipse cx="32.9636" cy="21.4459" rx="2.07934" ry="2.47908" fill="black"/>
<circle cx="33.939" cy="20.4939" r="0.927525" fill="white"/>
<circle cx="32.4453" cy="23.3384" r="0.566439" fill="white"/>
<path d="M19.2344 15.6492C17.6817 14.9366 14.1311 14.4969 12.3501 18.4384" stroke="#377BC5" stroke-width="0.548628"/>
<path d="M20.3459 22.3796C18.8991 21.8719 15.5669 21.5455 13.8125 24.3012" stroke="#377BC5" stroke-width="0.548628"/>
<path d="M34.9322 19.2072C33.554 18.6995 30.3796 18.3732 28.7083 21.1289" stroke="#377BC5" stroke-width="0.548628"/>
<path d="M20.0677 27.3791C19.1946 27.155 17.264 27.0528 16.5264 28.4373" stroke="#377BC5" stroke-width="0.548628"/>
<path d="M34.682 24.1745C33.8089 23.9825 31.8783 23.8949 31.1406 25.0813" stroke="#377BC5" stroke-width="0.548628"/>
<circle cx="38.7878" cy="24.8573" r="0.285572" fill="#0085FF"/>
<circle cx="34.6486" cy="26.5116" r="0.285572" fill="#0085FF"/>
<circle cx="16.9657" cy="30.2011" r="0.285572" fill="#0085FF"/>
<circle cx="15.509" cy="32.5448" r="0.285572" fill="#0085FF"/>
<circle cx="13.1742" cy="30.4848" r="0.285572" fill="#0085FF"/>
<circle cx="38.2582" cy="27.747" r="0.285572" fill="#0085FF"/>
</svg>
