<svg width="98" height="365" viewBox="0 0 98 365" fill="none" xmlns="http://www.w3.org/2000/svg">
<path d="M41.1298 13.7019C39.0654 13.0531 35.1135 13.2065 35.8213 19.0104C36.706 26.2654 34.5826 28.7427 35.8213 29.4505C37.06 30.1583 39.8911 37.5902 46.0844 33.5204C52.2777 29.4505 58.6479 31.9278 56.7014 24.319C55.1443 18.2319 50.3902 14.7046 48.2078 13.7019H41.1298Z" fill="#FF1F00"/>
<path fill-rule="evenodd" clip-rule="evenodd" d="M46.0844 7.33174C37.5908 1.49238 35.6443 7.68564 34.7596 2.73103C33.8748 -2.22357 35.8213 13.7019 30.8667 12.1094C25.9121 10.5168 26.266 20.4259 22.1961 22.3724C18.1262 24.319 31.0436 25.3807 29.2741 29.4505C27.5046 33.5204 21.3113 44.3143 24.8503 43.6065C28.3893 42.8987 33.1671 40.2444 35.8213 43.6065C38.4755 46.9685 43.961 52.277 46.0844 49.0919C48.2078 45.9068 55.9936 41.837 58.117 43.6065C60.2404 45.376 58.8248 35.6436 62.7177 34.582C66.6106 33.5204 67.1415 26.2653 74.0425 27.8579C80.9436 29.4505 68.911 20.0721 72.9808 13.7019C71.8011 14.5277 68.3093 15.9314 63.7794 14.9405C58.117 13.7019 62.7177 5.03131 62.7177 1.66926C62.7177 -1.02039 51.6288 4.32356 46.0844 7.33174ZM35.8213 19.0104C35.1135 13.2065 39.0654 13.0531 41.1298 13.7019H48.2078C50.3902 14.7046 55.1443 18.2319 56.7014 24.319C58.6479 31.9278 52.2777 29.4505 46.0844 33.5204C39.8911 37.5902 37.06 30.1583 35.8213 29.4505C34.5826 28.7427 36.706 26.2654 35.8213 19.0104Z" fill="#FFCF72"/>
<path d="M41.1298 13.7019C39.0654 13.0531 35.1135 13.2065 35.8213 19.0104C36.706 26.2654 34.5826 28.7427 35.8213 29.4505C37.06 30.1583 39.8911 37.5902 46.0844 33.5204C52.2777 29.4505 58.6479 31.9278 56.7014 24.319C55.1443 18.2319 50.3902 14.7046 48.2078 13.7019H41.1298Z" stroke="black" stroke-width="0.55"/>
<path fill-rule="evenodd" clip-rule="evenodd" d="M46.0844 7.33174C37.5908 1.49238 35.6443 7.68564 34.7596 2.73103C33.8748 -2.22357 35.8213 13.7019 30.8667 12.1094C25.9121 10.5168 26.266 20.4259 22.1961 22.3724C18.1262 24.319 31.0436 25.3807 29.2741 29.4505C27.5046 33.5204 21.3113 44.3143 24.8503 43.6065C28.3893 42.8987 33.1671 40.2444 35.8213 43.6065C38.4755 46.9685 43.961 52.277 46.0844 49.0919C48.2078 45.9068 55.9936 41.837 58.117 43.6065C60.2404 45.376 58.8248 35.6436 62.7177 34.582C66.6106 33.5204 67.1415 26.2653 74.0425 27.8579C80.9436 29.4505 68.911 20.0721 72.9808 13.7019C71.8011 14.5277 68.3093 15.9314 63.7794 14.9405C58.117 13.7019 62.7177 5.03131 62.7177 1.66926C62.7177 -1.02039 51.6288 4.32356 46.0844 7.33174ZM35.8213 19.0104C35.1135 13.2065 39.0654 13.0531 41.1298 13.7019H48.2078C50.3902 14.7046 55.1443 18.2319 56.7014 24.319C58.6479 31.9278 52.2777 29.4505 46.0844 33.5204C39.8911 37.5902 37.06 30.1583 35.8213 29.4505C34.5826 28.7427 36.706 26.2654 35.8213 19.0104Z" stroke="black" stroke-width="0.55"/>
<path d="M82.2383 198.61C81.2365 188.061 77.211 165.104 69.124 157.666L64.4205 153.625C66.653 157.864 69.5001 169.649 63.0289 182.874C68.1703 183.573 79.21 187.699 82.2383 198.61Z" fill="#FF6161"/>
<path d="M63.4995 153.278C55.9515 148.115 36.3571 139.25 18.3632 145.093C23.8441 147.94 35.0837 155 36.1954 160.468C41.9607 156.976 55.4929 150.65 63.4995 153.278Z" fill="#FF6161"/>
<path d="M64.4205 153.625L69.5786 147.235L63.4995 153.278C55.4929 150.65 41.9607 156.976 36.1954 160.468C42.4431 162.231 47.515 165.091 51.5176 168.263C52.1618 168.773 52.7784 169.292 53.3677 169.816C58.7506 174.597 61.8585 179.781 63.0289 182.874C69.5001 169.649 66.653 157.864 64.4205 153.625Z" fill="#D5FFCE"/>
<path d="M34.7292 192.278L53.3677 169.816C52.7784 169.292 52.1618 168.773 51.5176 168.263L32.8881 190.937L34.7292 192.278Z" fill="#5F3F3F"/>
<path d="M64.4205 153.625L69.124 157.666C77.211 165.104 81.2365 188.061 82.2383 198.61C79.21 187.699 68.1703 183.573 63.0289 182.874M64.4205 153.625L69.5786 147.235L63.4995 153.278M64.4205 153.625C66.653 157.864 69.5001 169.649 63.0289 182.874M63.4995 153.278C55.9515 148.115 36.3571 139.25 18.3632 145.093C23.8441 147.94 35.0837 155 36.1954 160.468M63.4995 153.278C55.4929 150.65 41.9607 156.976 36.1954 160.468M36.1954 160.468C42.4431 162.231 47.515 165.091 51.5176 168.263M63.0289 182.874C61.8585 179.781 58.7506 174.597 53.3677 169.816M53.3677 169.816L34.7292 192.278M53.3677 169.816C52.7784 169.292 52.1618 168.773 51.5176 168.263M34.7292 192.278L32.8881 190.937M34.7292 192.278C32.284 195.833 26.8671 202.924 24.7618 202.843C22.6565 202.762 20.8595 201.33 20.2242 200.624C19.1576 199.559 17.9915 196.548 21.8597 193.017C25.7279 189.486 22.7931 196.275 22.5142 198.562C22.3262 200.104 24.6863 201.359 27.4548 197.585C30.2233 193.811 32.2305 191.58 32.8881 190.937M32.8881 190.937L51.5176 168.263" stroke="black" stroke-width="0.55" stroke-linecap="round"/>
<path d="M45.8389 304.358C45.3408 305.313 44.6025 307.458 45.634 308.399C46.9233 309.575 46.5884 305.104 47.6557 304.275C48.7231 303.445 48.7345 302.274 46.617 302.892C44.9586 303.375 42.7862 308.309 42.2652 310.41C42.1209 310.992 42.1032 311.356 42.2579 311.349L44.8534 311.23C44.8392 311.133 44.818 310.883 44.7971 310.531C44.7817 310.269 44.7664 309.952 44.7545 309.6C44.6756 307.274 44.7413 303.448 45.8389 304.358Z" fill="#946647"/>
<path d="M42.2579 311.349C42.1032 311.356 42.1209 310.992 42.2652 310.41C35.6028 312.322 23.1036 319.749 22.9068 334.658C23.5991 332.965 24.9618 329.281 24.8746 328.097C24.7655 326.617 31.1828 318.157 32.5275 316.9C33.6032 315.893 39.4627 312.78 42.2579 311.349Z" fill="#5EBD45"/>
<path d="M35.6802 318.199C35.7049 316.875 37.5364 314.998 39.4165 313.45C36.2319 315.8 32.4359 318.585 31.8293 318.97C30.8183 319.612 29.8094 322.386 27.1133 326.551C24.9564 329.883 23.4344 334.555 22.9429 336.475C22.9683 336.959 23.0063 337.451 23.0576 337.95C23.8455 345.614 27.2056 351.211 31.3118 355.169C31.5862 354.255 31.8675 352.176 30.7986 351.169C29.4624 349.91 32.7595 347.161 30.8506 345.104C28.9416 343.047 29.3779 339.068 28.902 337.682C28.4261 336.297 31.9272 332.599 30.1847 330.576C28.4423 328.552 32.3096 324.746 32.2496 324.336C32.1896 323.926 35.6325 320.758 35.6802 318.199Z" fill="#5EBD45"/>
<path d="M35.0882 358.252C39.2077 361.097 43.5107 362.608 46.4854 363.139C47.1604 363.114 47.8974 363.064 48.6828 362.984C48.6364 362.989 48.3358 362.813 47.5051 362.076C46.4666 361.153 48.1882 360.074 48.3817 359.467C48.5753 358.861 45.1158 358.245 44.3061 357.485C43.4965 356.725 47.1553 355.893 46.2271 354.962C45.299 354.03 45.9731 352.317 46.0722 351.582C46.1714 350.847 43.3896 350.044 42.7502 348.17C42.1109 346.295 43.3084 342.477 40.6642 341.779C38.02 341.081 39.9695 336.764 41.1295 337.441C42.2896 338.118 42.1902 331.105 41.8499 332.557C41.5097 334.009 38.9922 330.172 37.8435 329.949C36.6948 329.725 40.8224 323.943 40.811 321.722C40.7996 319.502 40.7986 316.52 41.4461 314.869C41.964 313.547 42.2031 311.972 42.2579 311.349C41.4749 312.592 39.5909 315.157 38.3189 315.479C36.7288 315.882 36.4858 321.379 34.451 322.874C32.4161 324.37 34.8642 327.392 33.0763 328.876C31.2884 330.36 32.9803 332.18 33.51 332.939C34.0397 333.699 34.6718 333.092 34.9451 333.657C35.2185 334.222 34.016 334.854 32.7325 334.872C31.449 334.89 31.6386 336.201 30.7952 337.596C29.9517 338.99 32.514 340.903 31.9441 342.868C31.3743 344.832 34.6044 347.695 35.7072 350.284C36.8099 352.873 35.6629 352.018 34.1816 352.994C32.9966 353.774 34.2923 356.824 35.0882 358.252Z" fill="#5EBD45"/>
<path d="M44.8534 311.23L42.2579 311.349C43.0666 312.056 44.5629 313.685 44.0789 314.55C43.4738 315.632 44.6965 316.182 44.0051 317.817C43.3136 319.452 42.7561 321.221 43.4256 322.244C44.0952 323.267 44.5273 328.516 43.8686 329.472C43.21 330.428 45.0237 331.335 45.7064 332.645C46.3892 333.955 48.55 333.377 46.955 334.456C45.3599 335.535 45.5243 337.379 45.518 337.938C45.5116 338.497 47.4547 340.484 45.8943 341.274C44.3339 342.064 44.8761 345.184 46.0864 345.464C47.2967 345.744 49.3676 348.778 48.6236 349.962C47.8795 351.146 50.1282 353.182 50.119 353.677L50.1189 353.682C50.1096 354.179 50.0927 355.089 51.6098 356.595C53.132 358.106 51.6623 359.482 50.9708 359.721C50.2792 359.961 50.9769 360.551 50.7307 360.754C50.5338 360.917 49.9798 362.228 49.7274 362.864C51.7815 362.6 54.0999 362.146 56.473 361.447C56.1511 360.422 55.6769 357.939 56.3545 356.211C57.2014 354.05 55.3067 351.759 54.0931 350.383C52.8796 349.007 55.4824 343.876 53.7143 342.116C51.9462 340.357 51.7433 340.392 52.9436 340.362C54.1439 340.333 54.0602 333.485 54.5805 332.566C55.1009 331.647 50.1819 326.964 50.8156 321.264C51.3225 316.704 47.052 312.675 44.8534 311.23Z" fill="#5EBD45"/>
<path d="M59.1257 358.103C57.5061 358.914 57.3024 360.48 57.4029 361.161C62.8492 359.416 68.4388 356.357 71.6748 351.345L72.274 343.771C71.2414 344.69 69.4521 346.222 70.5563 345C71.9365 343.472 70.8523 335.482 70.6356 335.056C70.419 334.629 68.6258 337.151 67.8527 338.251C67.0795 339.351 69.5957 338.151 69.628 339.295C69.6603 340.438 69.1143 342.11 68.3539 343.491C67.5936 344.872 68.5996 340.085 66.7113 339.207C64.823 338.33 68.5957 336.931 69.0353 335.565C69.4749 334.199 67.9636 332.782 67.0932 332.199C66.2228 331.617 66.3621 333.78 65.4678 334.142C64.5735 334.504 65.2755 332.423 65.861 332.049C66.4464 331.674 65.4722 329.702 66.2811 328.942C67.0899 328.182 67.1722 331.292 68.3989 329.568C69.6256 327.845 65.4566 323.238 64.9438 322.709C64.4311 322.18 63.0195 326.836 63.3303 324.893C63.6411 322.95 62.0281 320.601 60.6896 319.11C59.3511 317.619 59.6446 317.864 57.5109 315.445C55.8039 313.51 48.3238 311.362 44.7971 310.531C44.818 310.883 44.8392 311.133 44.8534 311.23C47.4096 312.11 52.4831 314.136 52.3277 315.207C52.1333 316.545 56.6428 317.873 57.2682 318.688C57.8936 319.503 58.9074 323.215 58.4225 322.674C58.0345 322.242 56.55 320.868 55.8563 320.235C55.7749 320.505 55.8284 321.637 56.6938 324.006C57.7756 326.969 58.2919 333.214 57.7636 333.96C57.2353 334.707 57.5496 341.005 58.0641 344.423C58.5787 347.84 57.8081 348.321 58.1088 349.304C58.4096 350.287 61.1502 357.09 59.1257 358.103Z" fill="#5EBD45"/>
<path d="M74.049 345.586C77.6065 328.912 71.7247 307.668 44.7545 309.6C44.7664 309.952 44.7817 310.269 44.7971 310.531C47.9296 310.95 54.4134 311.898 55.2892 312.331C56.3841 312.872 62.9115 315.755 62.642 317.316C62.3725 318.877 68.3547 320.715 68.0042 320.956C67.6537 321.197 67.8738 323.947 69.6767 325.807C71.4797 327.668 71.4373 330.429 71.4566 331.465C71.4759 332.5 72.2321 331.181 73.6953 333.001C74.8658 334.456 73.7275 344.17 73.012 348.844C73.4519 347.827 73.8025 346.742 74.049 345.586Z" fill="#5EBD45"/>
<path d="M35.6802 318.199C35.6325 320.758 32.1896 323.926 32.2496 324.336C32.3096 324.746 28.4423 328.552 30.1847 330.576C31.9272 332.599 28.4261 336.297 28.902 337.682C29.3779 339.068 28.9416 343.047 30.8506 345.104C32.7595 347.161 29.4624 349.91 30.7986 351.169C31.8675 352.176 31.5862 354.255 31.3118 355.169C32.5215 356.335 33.7958 357.359 35.0882 358.252C34.2923 356.824 32.9966 353.774 34.1816 352.994C35.6629 352.018 36.8099 352.873 35.7072 350.284C34.6044 347.695 31.3743 344.832 31.9441 342.868C32.514 340.903 29.9517 338.99 30.7952 337.596C31.6386 336.201 31.449 334.89 32.7325 334.872C34.016 334.854 35.2185 334.222 34.9451 333.657C34.6718 333.092 34.0397 333.699 33.51 332.939C32.9803 332.18 31.2884 330.36 33.0763 328.876C34.8642 327.392 32.4161 324.37 34.451 322.874C36.4858 321.379 36.7288 315.882 38.3189 315.479C39.5909 315.157 41.4749 312.592 42.2579 311.349C41.4728 311.931 40.4787 312.667 39.4165 313.45C37.5364 314.998 35.7049 316.875 35.6802 318.199Z" fill="#3A7339"/>
<path d="M42.2579 311.349C42.2031 311.972 41.964 313.547 41.4461 314.869C40.7986 316.52 40.7996 319.502 40.811 321.722C40.8224 323.943 36.6948 329.725 37.8435 329.949C38.9922 330.172 41.5097 334.009 41.8499 332.557C42.1902 331.105 42.2896 338.118 41.1295 337.441C39.9695 336.764 38.02 341.081 40.6642 341.779C43.3084 342.477 42.1109 346.295 42.7502 348.17C43.3896 350.044 46.1714 350.847 46.0722 351.582C45.9731 352.317 45.299 354.03 46.2271 354.962C47.1553 355.893 43.4965 356.725 44.3061 357.485C45.1158 358.245 48.5753 358.861 48.3817 359.467C48.1882 360.074 46.4666 361.153 47.5051 362.076C48.3358 362.813 48.6364 362.989 48.6828 362.984C49.0223 362.95 49.3709 362.91 49.7274 362.864C49.9798 362.228 50.5338 360.917 50.7307 360.754C50.9769 360.551 50.2792 359.961 50.9708 359.721C51.6623 359.482 53.132 358.106 51.6098 356.595C50.0927 355.089 50.1096 354.179 50.1189 353.682L50.119 353.677C50.1282 353.182 47.8795 351.146 48.6236 349.962C49.3676 348.778 47.2967 345.744 46.0864 345.464C44.8761 345.184 44.3339 342.064 45.8943 341.274C47.4547 340.484 45.5116 338.497 45.518 337.938C45.5243 337.379 45.3599 335.535 46.955 334.456C48.55 333.377 46.3892 333.955 45.7064 332.645C45.0237 331.335 43.21 330.428 43.8686 329.472C44.5273 328.516 44.0952 323.267 43.4256 322.244C42.7561 321.221 43.3136 319.452 44.0051 317.817C44.6965 316.182 43.4738 315.632 44.0789 314.55C44.5629 313.685 43.0666 312.056 42.2579 311.349Z" fill="#3A7339"/>
<path d="M44.7971 310.531C48.3238 311.362 55.8039 313.51 57.5109 315.445C59.6446 317.864 59.3511 317.619 60.6896 319.11C62.0281 320.601 63.6411 322.95 63.3303 324.893C63.0195 326.836 64.4311 322.18 64.9438 322.709C65.4566 323.238 69.6256 327.845 68.3989 329.568C67.1722 331.292 67.0899 328.182 66.2811 328.942C65.4722 329.702 66.4464 331.674 65.861 332.049C65.2755 332.423 64.5735 334.504 65.4678 334.142C66.3621 333.78 66.2228 331.617 67.0932 332.199C67.9636 332.782 69.4749 334.199 69.0353 335.565C68.5957 336.931 64.823 338.33 66.7113 339.207C68.5996 340.085 67.5936 344.872 68.3539 343.491C69.1143 342.11 69.6603 340.438 69.628 339.295C69.5957 338.151 67.0795 339.351 67.8527 338.251C68.6258 337.151 70.419 334.629 70.6356 335.056C70.8523 335.482 71.9365 343.472 70.5563 345C69.4521 346.222 71.2414 344.69 72.274 343.771L71.6748 351.345C72.1814 350.56 72.6303 349.727 73.012 348.844C73.7275 344.17 74.8658 334.456 73.6953 333.001C72.2321 331.181 71.4759 332.5 71.4566 331.465C71.4373 330.429 71.4797 327.668 69.6767 325.807C67.8738 323.947 67.6537 321.197 68.0042 320.956C68.3547 320.715 62.3725 318.877 62.642 317.316C62.9115 315.755 56.3841 312.872 55.2892 312.331C54.4134 311.898 47.9296 310.95 44.7971 310.531Z" fill="#3A7339"/>
<path d="M44.8534 311.23C47.052 312.675 51.3225 316.704 50.8156 321.264C50.1819 326.964 55.1009 331.647 54.5805 332.566C54.0602 333.485 54.1439 340.333 52.9436 340.362C51.7433 340.392 51.9462 340.357 53.7143 342.116C55.4824 343.876 52.8796 349.007 54.0931 350.383C55.3067 351.759 57.2014 354.05 56.3545 356.211C55.6769 357.939 56.1511 360.422 56.473 361.447C56.7822 361.356 57.0923 361.261 57.4029 361.161C57.3024 360.48 57.5061 358.914 59.1257 358.103C61.1502 357.09 58.4096 350.287 58.1088 349.304C57.8081 348.321 58.5787 347.84 58.0641 344.423C57.5496 341.005 57.2353 334.707 57.7636 333.96C58.2919 333.214 57.7756 326.969 56.6938 324.006C55.8284 321.637 55.7749 320.505 55.8563 320.235C56.55 320.868 58.0345 322.242 58.4225 322.674C58.9074 323.215 57.8936 319.503 57.2682 318.688C56.6428 317.873 52.1333 316.545 52.3277 315.207C52.4831 314.136 47.4096 312.11 44.8534 311.23Z" fill="#3A7339"/>
<path d="M42.2579 311.349C39.4627 312.78 33.6032 315.893 32.5275 316.9C31.1828 318.157 24.7655 326.617 24.8746 328.097C24.9618 329.281 23.5991 332.965 22.9068 334.658C22.8989 335.252 22.9106 335.857 22.9429 336.475C23.4344 334.555 24.9564 329.883 27.1133 326.551C29.8094 322.386 30.8183 319.612 31.8293 318.97C32.4359 318.585 36.2319 315.8 39.4165 313.45C40.4451 312.604 41.4882 311.855 42.2579 311.349Z" fill="#3A7339"/>
<path d="M44.8534 311.23C44.2262 311.259 42.829 311.323 42.2579 311.349M44.8534 311.23C47.052 312.675 51.3225 316.704 50.8156 321.264C50.1819 326.964 55.1009 331.647 54.5805 332.566C54.0602 333.485 54.1439 340.333 52.9436 340.362C51.7433 340.392 51.9462 340.357 53.7143 342.116C55.4824 343.876 52.8796 349.007 54.0931 350.383C55.3067 351.759 57.2014 354.05 56.3545 356.211C55.6769 357.939 56.1511 360.422 56.473 361.447M44.8534 311.23C47.4096 312.11 52.4831 314.136 52.3277 315.207C52.1333 316.545 56.6428 317.873 57.2682 318.688C57.8936 319.503 58.9074 323.215 58.4225 322.674C58.0345 322.242 56.55 320.868 55.8563 320.235C55.7749 320.505 55.8284 321.637 56.6938 324.006C57.7756 326.969 58.2919 333.214 57.7636 333.96C57.2353 334.707 57.5496 341.005 58.0641 344.423C58.5787 347.84 57.8081 348.321 58.1088 349.304C58.4096 350.287 61.1502 357.09 59.1257 358.103C57.5061 358.914 57.3024 360.48 57.4029 361.161M44.8534 311.23C44.8392 311.133 44.818 310.883 44.7971 310.531M44.8534 311.23L42.2579 311.349M42.2579 311.349C42.1032 311.356 42.1209 310.992 42.2652 310.41M42.2579 311.349C41.4749 312.592 39.5909 315.157 38.3189 315.479C36.7288 315.882 36.4858 321.379 34.451 322.874C32.4161 324.37 34.8642 327.392 33.0763 328.876C31.2884 330.36 32.9803 332.18 33.51 332.939C34.0397 333.699 34.6718 333.092 34.9451 333.657C35.2185 334.222 34.016 334.854 32.7325 334.872C31.449 334.89 31.6386 336.201 30.7952 337.596C29.9517 338.99 32.514 340.903 31.9441 342.868C31.3743 344.832 34.6044 347.695 35.7072 350.284C36.8099 352.873 35.6629 352.018 34.1816 352.994C32.9966 353.774 34.2923 356.824 35.0882 358.252M42.2579 311.349C39.4627 312.78 33.6032 315.893 32.5275 316.9C31.1828 318.157 24.7655 326.617 24.8746 328.097C24.9618 329.281 23.5991 332.965 22.9068 334.658M42.2579 311.349C42.2031 311.972 41.964 313.547 41.4461 314.869C40.7986 316.52 40.7996 319.502 40.811 321.722C40.8224 323.943 36.6948 329.725 37.8435 329.949C38.9922 330.172 41.5097 334.009 41.8499 332.557C42.1902 331.105 42.2896 338.118 41.1295 337.441C39.9695 336.764 38.02 341.081 40.6642 341.779C43.3084 342.477 42.1109 346.295 42.7502 348.17C43.3896 350.044 46.1714 350.847 46.0722 351.582C45.9731 352.317 45.299 354.03 46.2271 354.962C47.1553 355.893 43.4965 356.725 44.3061 357.485C45.1158 358.245 48.5753 358.861 48.3817 359.467C48.1882 360.074 46.4666 361.153 47.5051 362.076C48.3358 362.813 48.6364 362.989 48.6828 362.984M42.2579 311.349C43.0666 312.056 44.5629 313.685 44.0789 314.55C43.4738 315.632 44.6965 316.182 44.0051 317.817C43.3136 319.452 42.7561 321.221 43.4256 322.244C44.0952 323.267 44.5273 328.516 43.8686 329.472C43.21 330.428 45.0237 331.335 45.7064 332.645C46.3892 333.955 48.55 333.377 46.955 334.456C45.3599 335.535 45.5243 337.379 45.518 337.938C45.5116 338.497 47.4547 340.484 45.8943 341.274C44.3339 342.064 44.8761 345.184 46.0864 345.464C47.2967 345.744 49.3676 348.778 48.6236 349.962C47.8795 351.146 50.1282 353.182 50.119 353.677M42.2579 311.349C41.4728 311.931 40.4787 312.667 39.4165 313.45M42.2579 311.349C41.4882 311.855 40.4451 312.604 39.4165 313.45M42.2652 310.41C42.7862 308.309 44.9586 303.375 46.617 302.892C48.7345 302.274 48.7231 303.445 47.6557 304.275C46.5884 305.104 46.9233 309.575 45.634 308.399C44.6025 307.458 45.3408 305.313 45.8389 304.358C44.7413 303.448 44.6756 307.274 44.7545 309.6M42.2652 310.41C35.6028 312.322 23.1036 319.749 22.9068 334.658M44.7545 309.6C71.7247 307.668 77.6065 328.912 74.049 345.586C73.8025 346.742 73.4519 347.827 73.012 348.844M44.7545 309.6C44.7664 309.952 44.7817 310.269 44.7971 310.531M31.3118 355.169C27.2056 351.211 23.8455 345.614 23.0576 337.95C23.0063 337.451 22.9683 336.959 22.9429 336.475M31.3118 355.169C31.5862 354.255 31.8675 352.176 30.7986 351.169C29.4624 349.91 32.7595 347.161 30.8506 345.104C28.9416 343.047 29.3779 339.068 28.902 337.682C28.4261 336.297 31.9272 332.599 30.1847 330.576C28.4423 328.552 32.3096 324.746 32.2496 324.336C32.1896 323.926 35.6325 320.758 35.6802 318.199C35.7049 316.875 37.5364 314.998 39.4165 313.45M31.3118 355.169C32.5215 356.335 33.7958 357.359 35.0882 358.252M35.0882 358.252C39.2077 361.097 43.5107 362.608 46.4854 363.139C47.1604 363.114 47.8974 363.064 48.6828 362.984M22.9068 334.658C22.8989 335.252 22.9106 335.857 22.9429 336.475M22.9429 336.475C23.4344 334.555 24.9564 329.883 27.1133 326.551C29.8094 322.386 30.8183 319.612 31.8293 318.97C32.4359 318.585 36.2319 315.8 39.4165 313.45M48.6828 362.984C49.0223 362.95 49.3709 362.91 49.7274 362.864M49.7274 362.864C49.9798 362.228 50.5338 360.917 50.7307 360.754C50.9769 360.551 50.2792 359.961 50.9708 359.721C51.6623 359.482 53.132 358.106 51.6098 356.595C50.0927 355.089 50.1096 354.179 50.1189 353.682M49.7274 362.864C51.7815 362.6 54.0999 362.146 56.473 361.447M50.119 353.677L50.1189 353.682M50.119 353.677C50.119 353.679 50.1189 353.681 50.1189 353.682M56.473 361.447C56.7822 361.356 57.0923 361.261 57.4029 361.161M57.4029 361.161C62.8492 359.416 68.4388 356.357 71.6748 351.345M44.7971 310.531C48.3238 311.362 55.8039 313.51 57.5109 315.445C59.6446 317.864 59.3511 317.619 60.6896 319.11C62.0281 320.601 63.6411 322.95 63.3303 324.893C63.0195 326.836 64.4311 322.18 64.9438 322.709C65.4566 323.238 69.6256 327.845 68.3989 329.568C67.1722 331.292 67.0899 328.182 66.2811 328.942C65.4722 329.702 66.4465 331.674 65.861 332.049C65.2755 332.423 64.5735 334.504 65.4678 334.142C66.3621 333.78 66.2228 331.617 67.0932 332.199C67.9636 332.782 69.4749 334.199 69.0353 335.565C68.5957 336.931 64.823 338.33 66.7113 339.207C68.5996 340.085 67.5936 344.872 68.3539 343.491C69.1143 342.11 69.6603 340.438 69.628 339.295C69.5957 338.151 67.0795 339.351 67.8527 338.251C68.6258 337.151 70.419 334.629 70.6356 335.056C70.8523 335.482 71.9365 343.472 70.5563 345C69.4521 346.222 71.2414 344.69 72.2741 343.771L71.6748 351.345M44.7971 310.531C47.9296 310.95 54.4134 311.898 55.2892 312.331C56.3841 312.872 62.9115 315.755 62.642 317.316C62.3725 318.877 68.3547 320.715 68.0042 320.956C67.6537 321.197 67.8738 323.947 69.6767 325.807C71.4797 327.668 71.4373 330.429 71.4566 331.465C71.4759 332.5 72.2321 331.181 73.6953 333.001C74.8658 334.456 73.7275 344.17 73.012 348.844M71.6748 351.345C72.1814 350.56 72.6303 349.727 73.012 348.844" stroke="black" stroke-width="0.55" stroke-linecap="round"/>
</svg>
