<svg width="344" height="673" viewBox="0 0 344 673" fill="none" xmlns="http://www.w3.org/2000/svg">
<mask id="path-1-inside-1_44_8327" fill="white">
<path fill-rule="evenodd" clip-rule="evenodd" d="M17.812 0.161133C9.52774 0.161133 2.81201 6.87685 2.81201 15.1611V81.486C2.81201 89.7702 9.52772 96.486 17.812 96.486H275.067L337.304 107.651C341.039 108.321 344.521 105.688 342.793 103.5L317.802 71.8508V15.1611C317.802 6.87686 311.086 0.161133 302.802 0.161133H17.812Z"/>
</mask>
<path fill-rule="evenodd" clip-rule="evenodd" d="M17.812 0.161133C9.52774 0.161133 2.81201 6.87685 2.81201 15.1611V81.486C2.81201 89.7702 9.52772 96.486 17.812 96.486H275.067L337.304 107.651C341.039 108.321 344.521 105.688 342.793 103.5L317.802 71.8508V15.1611C317.802 6.87686 311.086 0.161133 302.802 0.161133H17.812Z" fill="white"/>
<path d="M275.067 96.486L275.243 95.5017L275.156 95.486H275.067V96.486ZM337.304 107.651L337.128 108.635L337.304 107.651ZM342.793 103.5L342.009 104.12L342.793 103.5ZM317.802 71.8508H316.802V72.198L317.017 72.4705L317.802 71.8508ZM3.81201 15.1611C3.81201 7.42913 10.08 1.16113 17.812 1.16113V-0.838867C8.97546 -0.838867 1.81201 6.32456 1.81201 15.1611H3.81201ZM3.81201 81.486V15.1611H1.81201V81.486H3.81201ZM17.812 95.486C10.08 95.486 3.81201 89.218 3.81201 81.486H1.81201C1.81201 90.3225 8.97544 97.486 17.812 97.486V95.486ZM275.067 95.486H17.812V97.486H275.067V95.486ZM337.481 106.667L275.243 95.5017L274.89 97.4703L337.128 108.635L337.481 106.667ZM342.009 104.12C342.259 104.438 342.28 104.693 342.222 104.914C342.154 105.177 341.936 105.516 341.494 105.85C340.609 106.519 339.092 106.956 337.481 106.667L337.128 108.635C339.252 109.016 341.343 108.472 342.7 107.445C343.38 106.931 343.942 106.243 344.157 105.418C344.384 104.551 344.191 103.657 343.578 102.881L342.009 104.12ZM317.017 72.4705L342.009 104.12L343.578 102.881L318.587 71.231L317.017 72.4705ZM316.802 15.1611V71.8508H318.802V15.1611H316.802ZM302.802 1.16113C310.534 1.16113 316.802 7.42914 316.802 15.1611H318.802C318.802 6.32458 311.638 -0.838867 302.802 -0.838867V1.16113ZM17.812 1.16113H302.802V-0.838867H17.812V1.16113Z" fill="black" mask="url(#path-1-inside-1_44_8327)"/>
<path d="M31.5591 63.3232H48.5545M44.3056 39.9512L46.4301 42.0759M47.4923 34.6393C47.9108 35.0578 48.2428 35.5547 48.4694 36.1015C48.6959 36.6484 48.8125 37.2345 48.8125 37.8264C48.8125 38.4183 48.6959 39.0045 48.4694 39.5513C48.2428 40.0982 47.9108 40.595 47.4923 41.0135L27.3102 61.1985L18.8125 63.3232L20.9369 54.9433L41.1275 34.6478C41.9233 33.848 42.9907 33.3767 44.1178 33.3275C45.245 33.2783 46.3494 33.6548 47.2118 34.3822L47.4923 34.6393Z" stroke="#0085FF" stroke-width="2" stroke-linecap="round" stroke-linejoin="round"/>
<path d="M78.9844 34.2158H80.6934V35.46H78.9844V38.3994H77.4531V31.1807H78.9844V34.2158ZM74.9512 38.6318C75.7897 38.6318 76.5189 38.7298 77.1387 38.9258C77.763 39.1172 78.2438 39.3952 78.5811 39.7598C78.9183 40.1243 79.0892 40.5596 79.0938 41.0654C79.0892 41.5804 78.9183 42.0225 78.5811 42.3916C78.2438 42.7607 77.7653 43.041 77.1455 43.2324C76.5257 43.4284 75.7943 43.5264 74.9512 43.5264C74.099 43.5264 73.3584 43.4284 72.7295 43.2324C72.1006 43.041 71.6152 42.7607 71.2734 42.3916C70.9362 42.0225 70.7676 41.5804 70.7676 41.0654C70.7676 40.5596 70.9362 40.1243 71.2734 39.7598C71.6152 39.3952 72.1006 39.1172 72.7295 38.9258C73.363 38.7298 74.1035 38.6318 74.9512 38.6318ZM74.9512 39.8486C74.0944 39.8486 73.4313 39.9535 72.9619 40.1631C72.4971 40.3727 72.2669 40.6735 72.2715 41.0654C72.2669 41.4665 72.4971 41.7741 72.9619 41.9883C73.4313 42.2025 74.0944 42.3096 74.9512 42.3096C75.7943 42.3096 76.4482 42.2025 76.9131 41.9883C77.3825 41.7741 77.6172 41.4665 77.6172 41.0654C77.6172 40.6735 77.3825 40.3727 76.9131 40.1631C76.4482 39.9535 75.7943 39.8486 74.9512 39.8486ZM75.2383 33.2861H71.2051V36.3896C72.4447 36.3851 73.4359 36.3577 74.1787 36.3076C74.9215 36.2529 75.6439 36.1527 76.3457 36.0068L76.4961 37.2236C75.735 37.3877 74.9443 37.4948 74.124 37.5449C73.3037 37.5951 72.1621 37.6201 70.6992 37.6201H69.7012V32.0557H75.2383V33.2861ZM91.6172 40.2178H90.0859V31.1943H91.6172V40.2178ZM91.959 43.2939H83.4414V39.3564H84.9727V42.0635H91.959V43.2939ZM85.9297 33.0811C85.9297 33.6644 86.0413 34.2204 86.2646 34.749C86.4925 35.2777 86.8298 35.7471 87.2764 36.1572C87.723 36.5628 88.263 36.8727 88.8965 37.0869L88.1172 38.29C87.4245 38.0485 86.8275 37.693 86.3262 37.2236C85.8249 36.7542 85.4352 36.1982 85.1572 35.5557C84.8747 36.2484 84.4759 36.8499 83.9609 37.3604C83.4505 37.8708 82.8398 38.2536 82.1289 38.5088L81.3359 37.3057C81.9876 37.0778 82.5391 36.7474 82.9902 36.3145C83.446 35.877 83.7878 35.3802 84.0156 34.8242C84.2435 34.2682 84.3574 33.6872 84.3574 33.0811V31.8779H85.9297V33.0811ZM97.4277 32.042C98.0703 32.0374 98.6491 32.1628 99.1641 32.418C99.6836 32.6686 100.089 33.0218 100.381 33.4775C100.677 33.9333 100.827 34.4482 100.832 35.0225C100.827 35.6012 100.677 36.1185 100.381 36.5742C100.089 37.0299 99.6859 37.3854 99.1709 37.6406C98.6559 37.8913 98.0749 38.0166 97.4277 38.0166C96.7852 38.0166 96.2064 37.889 95.6914 37.6338C95.1764 37.3786 94.7708 37.0254 94.4746 36.5742C94.1829 36.1185 94.0371 35.6012 94.0371 35.0225C94.0371 34.4482 94.1829 33.9333 94.4746 33.4775C94.7708 33.0218 95.1764 32.6686 95.6914 32.418C96.2109 32.1628 96.7897 32.0374 97.4277 32.042ZM97.4277 33.3545C97.0677 33.3545 96.7441 33.4229 96.457 33.5596C96.1699 33.6963 95.9443 33.8923 95.7803 34.1475C95.6208 34.3981 95.541 34.6898 95.541 35.0225C95.541 35.3597 95.6208 35.6559 95.7803 35.9111C95.9443 36.1618 96.1699 36.3555 96.457 36.4922C96.7441 36.6243 97.0677 36.6904 97.4277 36.6904C97.7923 36.6904 98.1182 36.6243 98.4053 36.4922C98.6969 36.3555 98.9248 36.1618 99.0889 35.9111C99.2575 35.6559 99.3418 35.3597 99.3418 35.0225C99.3418 34.6898 99.2575 34.3981 99.0889 34.1475C98.9248 33.8923 98.6969 33.6963 98.4053 33.5596C98.1182 33.4229 97.7923 33.3545 97.4277 33.3545ZM103.717 43.5537H102.199V31.1807H103.717V43.5537ZM93.4766 39.7256C94.9896 39.7256 96.4023 39.7005 97.7148 39.6504C99.0319 39.5957 100.281 39.484 101.461 39.3154L101.584 40.4229C100.363 40.6598 99.1208 40.8102 97.8584 40.874C96.6006 40.9378 95.2038 40.9697 93.668 40.9697L93.4766 39.7256ZM138.662 31.3721C139.601 31.3721 140.401 31.4541 141.062 31.6182C141.727 31.7822 142.235 32.0238 142.586 32.3428C142.937 32.6572 143.115 33.04 143.119 33.4912C143.115 34.1748 142.725 34.6989 141.95 35.0635C141.175 35.4281 140.079 35.6149 138.662 35.624C137.24 35.6149 136.142 35.4281 135.367 35.0635C134.592 34.6989 134.205 34.1748 134.205 33.4912C134.205 33.04 134.381 32.6572 134.731 32.3428C135.082 32.0238 135.59 31.7822 136.256 31.6182C136.921 31.4541 137.723 31.3721 138.662 31.3721ZM138.662 32.4932C137.723 32.4932 137.01 32.5798 136.522 32.7529C136.035 32.9215 135.796 33.1676 135.805 33.4912C135.8 33.8285 136.037 34.0791 136.516 34.2432C136.994 34.4072 137.71 34.4893 138.662 34.4893C139.628 34.4893 140.351 34.4072 140.829 34.2432C141.308 34.0791 141.547 33.8285 141.547 33.4912C141.547 33.1676 141.303 32.9215 140.815 32.7529C140.328 32.5798 139.61 32.4932 138.662 32.4932ZM144.309 37.4971H133.043V36.2803H144.309V37.4971ZM142.9 41.3525H135.873V42.2686H143.242V43.4307H134.383V40.2725H141.41V39.4521H134.369V38.3311H142.9V41.3525ZM159.047 43.54H157.502V36.7725H155.697V35.46H157.502V31.1807H159.047V43.54ZM151.486 34.5713C151.486 35.4007 151.557 36.1823 151.698 36.916C151.84 37.6497 152.102 38.3037 152.484 38.8779C152.858 38.3128 153.113 37.6657 153.25 36.9365C153.387 36.2028 153.455 35.4144 153.455 34.5713V32.2061H154.918V34.5713C154.909 35.6742 155.036 36.6745 155.301 37.5723C155.565 38.4701 156.057 39.1878 156.777 39.7256L155.82 40.8057C155.046 40.2178 154.496 39.304 154.173 38.0645C153.84 39.3678 153.277 40.3135 152.484 40.9014C151.691 40.3226 151.124 39.3883 150.782 38.0986C150.463 39.2972 149.941 40.1813 149.217 40.751L148.191 39.7256C148.898 39.1742 149.383 38.4518 149.647 37.5586C149.916 36.6608 150.055 35.665 150.064 34.5713V32.2061H151.486V34.5713ZM171.83 39.3018H166.922V43.5264H165.418V39.3018H160.564V38.0713H171.83V39.3018ZM170.791 33.0811H167.079C167.111 33.5322 167.305 33.9674 167.66 34.3867C168.016 34.8014 168.503 35.1569 169.123 35.4531C169.743 35.7493 170.449 35.9476 171.242 36.0479L170.695 37.2373C169.647 37.0915 168.729 36.7907 167.94 36.335C167.157 35.8792 166.576 35.3141 166.197 34.6396C165.819 35.3096 165.238 35.8747 164.454 36.335C163.67 36.7907 162.761 37.0915 161.727 37.2373L161.152 36.0479C161.941 35.9476 162.643 35.7493 163.258 35.4531C163.878 35.1569 164.365 34.8014 164.721 34.3867C165.081 33.9674 165.279 33.5322 165.315 33.0811H161.604V31.8779H170.791V33.0811ZM176.52 34.4209C176.52 35.1136 176.602 35.7858 176.766 36.4375C176.934 37.0892 177.196 37.6862 177.552 38.2285C177.907 38.7708 178.352 39.2106 178.885 39.5479L178.051 40.71C177.513 40.3864 177.057 39.9535 176.684 39.4111C176.31 38.8643 176.016 38.2376 175.802 37.5312C175.569 38.3014 175.253 38.985 174.852 39.582C174.451 40.179 173.967 40.6507 173.402 40.9971L172.459 39.8623C173.038 39.5114 173.521 39.0511 173.908 38.4814C174.296 37.9118 174.583 37.2852 174.77 36.6016C174.961 35.918 175.057 35.2139 175.057 34.4893V32.2744H176.52V34.4209ZM183.328 43.54H181.865V31.1807H183.328V43.54ZM180.758 42.9385H179.322V36.6904H177.559V35.4326H179.322V31.3994H180.758V42.9385ZM196.057 42.0361H184.764V40.792H187.375V37.668C186.874 37.3763 186.484 37.014 186.206 36.5811C185.933 36.1481 185.798 35.6605 185.803 35.1182C185.798 34.4756 185.992 33.9059 186.384 33.4092C186.776 32.9124 187.32 32.5296 188.018 32.2607C188.715 31.9873 189.503 31.8506 190.383 31.8506C191.267 31.8506 192.058 31.9873 192.755 32.2607C193.457 32.5296 194.004 32.9124 194.396 33.4092C194.792 33.9014 194.99 34.471 194.99 35.1182C194.99 35.6468 194.856 36.1276 194.587 36.5605C194.323 36.9889 193.947 37.3467 193.459 37.6338V40.792H196.057V42.0361ZM190.383 33.0537C189.768 33.0537 189.225 33.138 188.756 33.3066C188.291 33.4707 187.929 33.7077 187.669 34.0176C187.414 34.3275 187.288 34.6943 187.293 35.1182C187.288 35.5374 187.414 35.902 187.669 36.2119C187.929 36.5218 188.293 36.7611 188.763 36.9297C189.232 37.0983 189.772 37.1826 190.383 37.1826C190.993 37.1826 191.534 37.0983 192.003 36.9297C192.477 36.7611 192.844 36.5218 193.104 36.2119C193.368 35.902 193.5 35.5374 193.5 35.1182C193.5 34.6989 193.368 34.3343 193.104 34.0244C192.844 33.71 192.479 33.4707 192.01 33.3066C191.54 33.138 190.998 33.0537 190.383 33.0537ZM191.914 40.792V38.2148C191.431 38.3197 190.921 38.3721 190.383 38.3721C189.868 38.3721 189.367 38.3219 188.879 38.2217V40.792H191.914ZM199.256 39.4111H197.711L197.547 32.4248H199.406L199.256 39.4111ZM198.49 42.4326C198.299 42.4326 198.121 42.3848 197.957 42.2891C197.793 42.1934 197.663 42.0635 197.567 41.8994C197.472 41.7354 197.424 41.5576 197.424 41.3662C197.424 41.1794 197.472 41.0062 197.567 40.8467C197.663 40.6826 197.793 40.5527 197.957 40.457C198.121 40.3613 198.299 40.3135 198.49 40.3135C198.673 40.3135 198.843 40.3613 199.003 40.457C199.167 40.5527 199.297 40.6826 199.393 40.8467C199.493 41.0062 199.543 41.1794 199.543 41.3662C199.543 41.5576 199.493 41.7354 199.393 41.8994C199.297 42.0635 199.167 42.1934 199.003 42.2891C198.843 42.3848 198.673 42.4326 198.49 42.4326ZM72.1895 53.3428H77.5215V52.3721H79.0254V56.4873H70.6855V52.3721H72.1895V53.3428ZM77.5215 55.3525V54.4502H72.1895V55.3525H77.5215ZM80.4883 58.4971H75.5938V59.4131H79.0801V62.4072H72.0527V63.2686H79.4219V64.4307H70.5625V61.3408H77.5898V60.5342H70.5488V59.4131H74.0762V58.4971H69.2227V57.2529H80.4883V58.4971ZM91.6719 61.3135H90.1543V58.0869H88.4043V56.8291H90.1543V55.6533H88.4043V54.4229H90.1543V52.1807H91.6719V61.3135ZM88.2266 54.3271H87.1328V58.2715C87.7253 58.2259 88.1764 58.1872 88.4863 58.1553L88.5547 59.2627C87.5156 59.4313 86.4036 59.5452 85.2188 59.6045C84.0384 59.6592 82.7988 59.6865 81.5 59.6865L81.3359 58.4287C81.9375 58.4287 82.4023 58.4264 82.7305 58.4219V54.3271H81.6504V53.1104H88.2266V54.3271ZM91.9863 64.2939H83.5508V60.6025H85.082V63.0635H91.9863V64.2939ZM84.207 58.4014C84.8724 58.3831 85.36 58.3672 85.6699 58.3535V54.3271H84.207V58.4014ZM103.99 59.8096H102.541V56.6787H101.365V59.6592H99.9434V52.3721H101.365V55.4346H102.541V52.1943H103.99V59.8096ZM99.5059 54.6553H93.3535V53.4521H95.6914V52.249H97.1953V53.4521H99.5059V54.6553ZM96.4434 55.1201C96.9629 55.1247 97.4255 55.2181 97.8311 55.4004C98.2412 55.5781 98.5602 55.8288 98.7881 56.1523C99.016 56.4714 99.1322 56.8428 99.1367 57.2666C99.1322 57.6859 99.0137 58.0596 98.7812 58.3877C98.5534 58.7113 98.2367 58.9642 97.8311 59.1465C97.4255 59.3242 96.9629 59.4131 96.4434 59.4131C95.9329 59.4131 95.4749 59.3219 95.0693 59.1396C94.6637 58.9574 94.347 58.7044 94.1191 58.3809C93.8958 58.0573 93.7865 57.6859 93.791 57.2666C93.7865 56.8473 93.8958 56.4759 94.1191 56.1523C94.347 55.8288 94.6637 55.5781 95.0693 55.4004C95.4749 55.2181 95.9329 55.1247 96.4434 55.1201ZM96.4434 56.2275C96.0514 56.2275 95.737 56.3187 95.5 56.501C95.263 56.6833 95.1445 56.9385 95.1445 57.2666C95.1445 57.5856 95.263 57.8385 95.5 58.0254C95.737 58.2122 96.0514 58.3057 96.4434 58.3057C96.8353 58.3057 97.152 58.2122 97.3936 58.0254C97.6351 57.8385 97.7559 57.5856 97.7559 57.2666C97.7559 56.9385 97.6351 56.6833 97.3936 56.501C97.1566 56.3187 96.8398 56.2275 96.4434 56.2275ZM98.0293 60.4932C98.0293 60.9945 98.1523 61.473 98.3984 61.9287C98.6491 62.3799 99.0228 62.7559 99.5195 63.0566C100.016 62.7422 100.395 62.3525 100.654 61.8877C100.919 61.4183 101.055 60.9535 101.064 60.4932V60.1924H102.568V60.4932C102.568 60.8942 102.657 61.277 102.835 61.6416C103.013 62.0062 103.282 62.3298 103.642 62.6123C104.002 62.8903 104.441 63.0999 104.961 63.2412L104.25 64.3896C103.662 64.2028 103.163 63.9294 102.753 63.5693C102.343 63.2093 102.026 62.7832 101.803 62.291C101.598 62.7878 101.306 63.2275 100.928 63.6104C100.554 63.9977 100.094 64.2939 99.5469 64.499C98.9863 64.3031 98.5169 64.0182 98.1387 63.6445C97.7604 63.2754 97.4688 62.8447 97.2637 62.3525C97.0312 62.8174 96.7122 63.2253 96.3066 63.5762C95.901 63.9271 95.418 64.1982 94.8574 64.3896L94.1465 63.2412C94.6569 63.0863 95.0898 62.8652 95.4453 62.5781C95.8053 62.291 96.0742 61.9674 96.252 61.6074C96.4342 61.2428 96.5254 60.8714 96.5254 60.4932V60.1924H98.0293V60.4932ZM111.906 54.3271H107.764V58.251C108.798 58.2419 109.671 58.2122 110.382 58.1621C111.093 58.112 111.806 58.0186 112.521 57.8818L112.672 59.1123C111.87 59.2536 111.068 59.3516 110.266 59.4062C109.464 59.4564 108.452 59.486 107.23 59.4951H106.26V53.0967H111.906V54.3271ZM115.871 61.1904H114.354V56.6924H111.154V55.4893H114.354V52.1943H115.871V61.1904ZM116.186 64.3486H107.75V60.4658H109.281V63.1182H116.186V64.3486ZM124.443 52.5771C125.063 52.5771 125.621 52.6979 126.118 52.9395C126.615 53.1764 127.005 53.5068 127.287 53.9307C127.574 54.3545 127.72 54.833 127.725 55.3662C127.72 55.904 127.574 56.3848 127.287 56.8086C127.005 57.2324 126.615 57.5628 126.118 57.7998C125.621 58.0368 125.063 58.1553 124.443 58.1553C123.819 58.1553 123.256 58.0368 122.755 57.7998C122.258 57.5628 121.868 57.2324 121.586 56.8086C121.303 56.3848 121.162 55.904 121.162 55.3662C121.162 54.833 121.303 54.3545 121.586 53.9307C121.868 53.5068 122.26 53.1764 122.762 52.9395C123.263 52.6979 123.824 52.5771 124.443 52.5771ZM124.443 53.835C124.097 53.835 123.787 53.8988 123.514 54.0264C123.24 54.1494 123.026 54.3271 122.871 54.5596C122.716 54.7874 122.639 55.0563 122.639 55.3662C122.639 55.6807 122.716 55.9564 122.871 56.1934C123.026 56.4258 123.24 56.6058 123.514 56.7334C123.787 56.861 124.097 56.9248 124.443 56.9248C124.79 56.9248 125.1 56.861 125.373 56.7334C125.646 56.6058 125.861 56.4258 126.016 56.1934C126.171 55.9564 126.248 55.6807 126.248 55.3662C126.248 55.0563 126.171 54.7874 126.016 54.5596C125.861 54.3271 125.646 54.1494 125.373 54.0264C125.1 53.8988 124.79 53.835 124.443 53.835ZM131.238 58.4287H129.707V52.1807H131.238V58.4287ZM131.238 62.1885H124.553V63.1865H131.607V64.3896H123.062V61.0674H129.721V60.1514H123.035V58.9619H131.238V62.1885ZM134.301 66.1807H133.002L133.713 62.3525H135.449L134.301 66.1807ZM150.229 59.6592H148.697V52.1807H150.229V59.6592ZM150.229 64.3896H142.025V60.2197H150.229V64.3896ZM143.529 63.1592H148.738V61.4229H143.529V63.1592ZM147.604 54.5869H140.084V53.3701H143.092V52.0986H144.623V53.3701H147.604V54.5869ZM143.857 55.0381C144.473 55.0381 145.013 55.1292 145.478 55.3115C145.942 55.4938 146.3 55.7536 146.551 56.0908C146.806 56.4235 146.934 56.8109 146.934 57.2529C146.934 57.6995 146.806 58.0915 146.551 58.4287C146.3 58.7614 145.942 59.0189 145.478 59.2012C145.013 59.3789 144.473 59.4678 143.857 59.4678C143.247 59.4678 142.707 59.3766 142.237 59.1943C141.772 59.012 141.412 58.7546 141.157 58.4219C140.902 58.0892 140.777 57.6995 140.781 57.2529C140.777 56.8109 140.902 56.4235 141.157 56.0908C141.412 55.7536 141.772 55.4938 142.237 55.3115C142.707 55.1292 143.247 55.0381 143.857 55.0381ZM143.857 56.1729C143.352 56.1729 142.953 56.2663 142.661 56.4531C142.374 56.64 142.23 56.9066 142.23 57.2529C142.23 57.5902 142.376 57.8545 142.668 58.0459C142.96 58.2373 143.356 58.333 143.857 58.333C144.354 58.333 144.748 58.2373 145.04 58.0459C145.336 57.8545 145.484 57.5902 145.484 57.2529C145.484 56.9111 145.339 56.6468 145.047 56.46C144.755 56.2686 144.359 56.1729 143.857 56.1729ZM163.312 58.333H152.033V57.1299H163.312V58.333ZM161.973 56.3369H153.469V52.4951H161.863V53.7119H154.986V55.1338H161.973V56.3369ZM161.891 62.2842H154.863V63.2275H162.232V64.417H153.373V61.1904H160.4V60.3291H153.359V59.1807H161.891V62.2842ZM168.658 60.1924C168.649 60.7393 168.772 61.2633 169.027 61.7646C169.287 62.2614 169.672 62.6784 170.183 63.0156C170.688 62.6602 171.074 62.2272 171.338 61.7168C171.602 61.2018 171.739 60.6937 171.748 60.1924V59.6182H173.238V60.1924C173.238 60.6344 173.325 61.056 173.498 61.457C173.676 61.8535 173.945 62.209 174.305 62.5234C174.665 62.8333 175.111 63.0726 175.645 63.2412L174.879 64.376C174.296 64.1709 173.801 63.8792 173.396 63.501C172.994 63.1227 172.685 62.6784 172.466 62.168C172.252 62.6829 171.953 63.141 171.57 63.542C171.192 63.9476 170.732 64.2575 170.189 64.4717C169.638 64.2666 169.171 63.9681 168.788 63.5762C168.41 63.1842 168.116 62.7285 167.906 62.209C167.683 62.6966 167.371 63.1273 166.97 63.501C166.573 63.8747 166.097 64.1663 165.541 64.376L164.803 63.2412C165.318 63.0635 165.753 62.8151 166.108 62.4961C166.464 62.1771 166.73 61.8193 166.908 61.4229C167.086 61.0218 167.177 60.6117 167.182 60.1924V59.6182H168.658V60.1924ZM167.564 52.8369C168.084 52.8369 168.565 52.9326 169.007 53.124C169.453 53.3154 169.825 53.5866 170.121 53.9375C170.422 54.2839 170.625 54.6826 170.729 55.1338H172.965V52.1807H174.482V59.1533H172.965V56.3643H170.743C170.647 56.8291 170.449 57.2393 170.148 57.5947C169.852 57.9502 169.479 58.2259 169.027 58.4219C168.581 58.6178 168.093 58.7158 167.564 58.7158C166.945 58.7158 166.386 58.5905 165.89 58.3398C165.393 58.0892 165.003 57.7406 164.721 57.2939C164.438 56.8473 164.297 56.3415 164.297 55.7764C164.297 55.2158 164.438 54.7122 164.721 54.2656C165.003 53.819 165.393 53.4704 165.89 53.2197C166.391 52.9645 166.949 52.8369 167.564 52.8369ZM167.564 54.1084C167.218 54.1084 166.908 54.179 166.635 54.3203C166.361 54.457 166.147 54.6507 165.992 54.9014C165.837 55.152 165.76 55.4437 165.76 55.7764C165.76 56.1045 165.837 56.3962 165.992 56.6514C166.147 56.9066 166.361 57.1048 166.635 57.2461C166.913 57.3874 167.223 57.458 167.564 57.458C167.902 57.458 168.205 57.3874 168.474 57.2461C168.743 57.1048 168.954 56.9066 169.109 56.6514C169.264 56.3962 169.342 56.1045 169.342 55.7764C169.342 55.4437 169.264 55.152 169.109 54.9014C168.954 54.6507 168.743 54.457 168.474 54.3203C168.205 54.179 167.902 54.1084 167.564 54.1084ZM182.617 54.3271H178.475V58.251C179.509 58.2419 180.382 58.2122 181.093 58.1621C181.804 58.112 182.517 58.0186 183.232 57.8818L183.383 59.1123C182.581 59.2536 181.779 59.3516 180.977 59.4062C180.174 59.4564 179.163 59.486 177.941 59.4951H176.971V53.0967H182.617V54.3271ZM186.582 61.1904H185.064V56.6924H181.865V55.4893H185.064V52.1943H186.582V61.1904ZM186.896 64.3486H178.461V60.4658H179.992V63.1182H186.896V64.3486ZM195.154 52.5771C195.774 52.5771 196.332 52.6979 196.829 52.9395C197.326 53.1764 197.715 53.5068 197.998 53.9307C198.285 54.3545 198.431 54.833 198.436 55.3662C198.431 55.904 198.285 56.3848 197.998 56.8086C197.715 57.2324 197.326 57.5628 196.829 57.7998C196.332 58.0368 195.774 58.1553 195.154 58.1553C194.53 58.1553 193.967 58.0368 193.466 57.7998C192.969 57.5628 192.579 57.2324 192.297 56.8086C192.014 56.3848 191.873 55.904 191.873 55.3662C191.873 54.833 192.014 54.3545 192.297 53.9307C192.579 53.5068 192.971 53.1764 193.473 52.9395C193.974 52.6979 194.535 52.5771 195.154 52.5771ZM195.154 53.835C194.808 53.835 194.498 53.8988 194.225 54.0264C193.951 54.1494 193.737 54.3271 193.582 54.5596C193.427 54.7874 193.35 55.0563 193.35 55.3662C193.35 55.6807 193.427 55.9564 193.582 56.1934C193.737 56.4258 193.951 56.6058 194.225 56.7334C194.498 56.861 194.808 56.9248 195.154 56.9248C195.501 56.9248 195.811 56.861 196.084 56.7334C196.357 56.6058 196.572 56.4258 196.727 56.1934C196.882 55.9564 196.959 55.6807 196.959 55.3662C196.959 55.0563 196.882 54.7874 196.727 54.5596C196.572 54.3271 196.357 54.1494 196.084 54.0264C195.811 53.8988 195.501 53.835 195.154 53.835ZM201.949 58.4287H200.418V52.1807H201.949V58.4287ZM201.949 62.1885H195.264V63.1865H202.318V64.3896H193.773V61.0674H200.432V60.1514H193.746V58.9619H201.949V62.1885ZM218.369 63.0361H207.076V61.792H211.943V59.0986H208.32V53.1377H217.07V59.0986H213.447V61.792H218.369V63.0361ZM209.811 57.9092H215.566V54.3545H209.811V57.9092ZM230.455 59.5498H219.176V58.333H230.455V59.5498ZM229.197 57.2119H220.557V52.6729H229.088V53.876H222.074V55.9814H229.197V57.2119ZM229.279 64.2803H220.57V60.6299H222.061V63.0498H229.279V64.2803ZM240.969 57.1025H245.877V58.333H234.584V57.1025H239.465V55.8584H240.969V57.1025ZM244.852 53.6846H241.311C241.406 53.9808 241.63 54.2542 241.98 54.5049C242.331 54.7555 242.792 54.9652 243.361 55.1338C243.936 55.2979 244.592 55.4027 245.33 55.4482L244.852 56.583C243.708 56.4964 242.732 56.2663 241.926 55.8926C241.119 55.5189 240.554 55.0404 240.23 54.457C239.907 55.0404 239.34 55.5189 238.528 55.8926C237.722 56.2617 236.749 56.4919 235.609 56.583L235.117 55.4482C235.837 55.4072 236.482 55.3047 237.052 55.1406C237.626 54.972 238.089 54.7624 238.439 54.5117C238.795 54.2565 239.025 53.9808 239.13 53.6846H235.623V52.5225H244.852V53.6846ZM244.811 60.8623H235.623V59.7139H239.451V58.7158H240.982V59.7139H244.811V60.8623ZM240.203 61.3135C241.411 61.3135 242.343 61.4525 242.999 61.7305C243.66 62.0085 243.99 62.4118 243.99 62.9404C243.99 63.4736 243.66 63.8792 242.999 64.1572C242.343 64.4398 241.411 64.5811 240.203 64.5811C238.991 64.5811 238.061 64.4421 237.414 64.1641C236.767 63.8861 236.443 63.4782 236.443 62.9404C236.443 62.4118 236.767 62.0085 237.414 61.7305C238.061 61.4525 238.991 61.3135 240.203 61.3135ZM240.203 62.3389C239.469 62.3389 238.918 62.3867 238.549 62.4824C238.184 62.5781 238.002 62.7308 238.002 62.9404C238.002 63.3597 238.736 63.5693 240.203 63.5693C241.666 63.5693 242.404 63.3597 242.418 62.9404C242.413 62.7308 242.229 62.5781 241.864 62.4824C241.5 62.3867 240.946 62.3389 240.203 62.3389ZM250.02 53.083C250.639 53.083 251.191 53.263 251.674 53.623C252.157 53.9785 252.535 54.4867 252.809 55.1475C253.087 55.8037 253.228 56.5693 253.232 57.4443C253.228 58.3285 253.087 59.1009 252.809 59.7617C252.535 60.4225 252.157 60.9307 251.674 61.2861C251.191 61.6416 250.639 61.8193 250.02 61.8193C249.395 61.8193 248.839 61.6416 248.352 61.2861C247.864 60.9261 247.483 60.4157 247.21 59.7549C246.937 59.0941 246.802 58.3239 246.807 57.4443C246.802 56.5739 246.937 55.8083 247.21 55.1475C247.483 54.4867 247.864 53.9785 248.352 53.623C248.839 53.263 249.395 53.083 250.02 53.083ZM250.02 54.4502C249.673 54.4502 249.368 54.571 249.104 54.8125C248.839 55.0495 248.634 55.3936 248.488 55.8447C248.342 56.2913 248.27 56.8245 248.27 57.4443C248.27 58.0687 248.342 58.6064 248.488 59.0576C248.634 59.5088 248.839 59.8551 249.104 60.0967C249.368 60.3337 249.673 60.4521 250.02 60.4521C250.37 60.4521 250.678 60.3337 250.942 60.0967C251.207 59.8551 251.41 59.5088 251.551 59.0576C251.697 58.6064 251.77 58.0687 251.77 57.4443C251.77 56.8245 251.697 56.2891 251.551 55.8379C251.41 55.3867 251.207 55.0426 250.942 54.8057C250.678 54.5687 250.37 54.4502 250.02 54.4502ZM256.377 56.9248H258.277V58.21H256.377V64.54H254.859V52.1807H256.377V56.9248ZM270.09 63.0361H258.797V61.792H261.408V58.668C260.907 58.3763 260.517 58.014 260.239 57.5811C259.966 57.1481 259.831 56.6605 259.836 56.1182C259.831 55.4756 260.025 54.9059 260.417 54.4092C260.809 53.9124 261.354 53.5296 262.051 53.2607C262.748 52.9873 263.536 52.8506 264.416 52.8506C265.3 52.8506 266.091 52.9873 266.788 53.2607C267.49 53.5296 268.037 53.9124 268.429 54.4092C268.825 54.9014 269.023 55.471 269.023 56.1182C269.023 56.6468 268.889 57.1276 268.62 57.5605C268.356 57.9889 267.98 58.3467 267.492 58.6338V61.792H270.09V63.0361ZM264.416 54.0537C263.801 54.0537 263.258 54.138 262.789 54.3066C262.324 54.4707 261.962 54.7077 261.702 55.0176C261.447 55.3275 261.322 55.6943 261.326 56.1182C261.322 56.5374 261.447 56.902 261.702 57.2119C261.962 57.5218 262.326 57.7611 262.796 57.9297C263.265 58.0983 263.805 58.1826 264.416 58.1826C265.027 58.1826 265.567 58.0983 266.036 57.9297C266.51 57.7611 266.877 57.5218 267.137 57.2119C267.401 56.902 267.533 56.5374 267.533 56.1182C267.533 55.6989 267.401 55.3343 267.137 55.0244C266.877 54.71 266.512 54.4707 266.043 54.3066C265.574 54.138 265.031 54.0537 264.416 54.0537ZM265.947 61.792V59.2148C265.464 59.3197 264.954 59.3721 264.416 59.3721C263.901 59.3721 263.4 59.3219 262.912 59.2217V61.792H265.947ZM273.289 60.4111H271.744L271.58 53.4248H273.439L273.289 60.4111ZM272.523 63.4326C272.332 63.4326 272.154 63.3848 271.99 63.2891C271.826 63.1934 271.696 63.0635 271.601 62.8994C271.505 62.7354 271.457 62.5576 271.457 62.3662C271.457 62.1794 271.505 62.0062 271.601 61.8467C271.696 61.6826 271.826 61.5527 271.99 61.457C272.154 61.3613 272.332 61.3135 272.523 61.3135C272.706 61.3135 272.877 61.3613 273.036 61.457C273.2 61.5527 273.33 61.6826 273.426 61.8467C273.526 62.0062 273.576 62.1794 273.576 62.3662C273.576 62.5576 273.526 62.7354 273.426 62.8994C273.33 63.0635 273.2 63.1934 273.036 63.2891C272.877 63.3848 272.706 63.4326 272.523 63.4326Z" fill="black"/>
<path d="M112.221 32.083C112.777 32.083 113.278 32.2311 113.725 32.5273C114.176 32.8236 114.54 33.2451 114.818 33.792H117.703V31.1807H119.207V43.5537H117.703V38.8779H114.928C114.659 39.4932 114.29 39.9717 113.82 40.3135C113.351 40.6507 112.818 40.8193 112.221 40.8193C111.601 40.8193 111.052 40.6416 110.573 40.2861C110.095 39.9307 109.721 39.4225 109.452 38.7617C109.183 38.1009 109.049 37.3285 109.049 36.4443C109.049 35.5693 109.183 34.8037 109.452 34.1475C109.721 33.4867 110.095 32.9785 110.573 32.623C111.056 32.263 111.605 32.083 112.221 32.083ZM112.221 33.4502C111.879 33.4502 111.578 33.571 111.318 33.8125C111.059 34.0495 110.858 34.3936 110.717 34.8447C110.576 35.2913 110.507 35.8245 110.512 36.4443C110.507 37.0687 110.576 37.6064 110.717 38.0576C110.858 38.5088 111.059 38.8551 111.318 39.0967C111.578 39.3337 111.879 39.4521 112.221 39.4521C112.562 39.4521 112.861 39.3337 113.116 39.0967C113.376 38.8551 113.576 38.5088 113.718 38.0576C113.864 37.6064 113.939 37.0687 113.943 36.4443C113.939 35.8245 113.864 35.2891 113.718 34.8379C113.576 34.3867 113.376 34.0426 113.116 33.8057C112.861 33.5687 112.562 33.4502 112.221 33.4502ZM115.242 35.0361C115.333 35.4782 115.379 35.9476 115.379 36.4443C115.379 36.8545 115.347 37.2555 115.283 37.6475H117.703V35.0361H115.242ZM132.223 38.6729H120.93V37.4697H132.223V38.6729ZM130.828 34.6123H123.869V35.501H131.074V36.6631H122.365V33.5049H129.311V32.6299H122.324V31.4404H130.828V34.6123ZM130.869 43.3896H122.406V39.5615H130.869V43.3896ZM123.896 42.1592H129.365V40.7646H123.896V42.1592Z" fill="#0085FF"/>
<mask id="path-5-inside-2_44_8327" fill="white">
<path fill-rule="evenodd" clip-rule="evenodd" d="M325.812 248.854C334.096 248.854 340.812 242.138 340.812 233.854V167.529C340.812 159.244 334.096 152.529 325.812 152.529H68.5572L6.31979 141.364C2.58478 140.694 -0.897003 143.326 0.830627 145.514L25.8222 177.164V233.854C25.8222 242.138 32.5379 248.854 40.8222 248.854H325.812Z"/>
</mask>
<path fill-rule="evenodd" clip-rule="evenodd" d="M325.812 248.854C334.096 248.854 340.812 242.138 340.812 233.854V167.529C340.812 159.244 334.096 152.529 325.812 152.529H68.5572L6.31979 141.364C2.58478 140.694 -0.897003 143.326 0.830627 145.514L25.8222 177.164V233.854C25.8222 242.138 32.5379 248.854 40.8222 248.854H325.812Z" fill="white"/>
<path d="M68.5572 152.529L68.3806 153.513L68.4682 153.529H68.5572V152.529ZM6.31979 141.364L6.49637 140.379L6.31979 141.364ZM0.830627 145.514L1.61545 144.895L0.830627 145.514ZM25.8222 177.164H26.8222V176.817L26.607 176.544L25.8222 177.164ZM339.812 233.854C339.812 241.586 333.544 247.854 325.812 247.854V249.854C334.649 249.854 341.812 242.69 341.812 233.854H339.812ZM339.812 167.529V233.854H341.812V167.529H339.812ZM325.812 153.529C333.544 153.529 339.812 159.797 339.812 167.529H341.812C341.812 158.692 334.649 151.529 325.812 151.529V153.529ZM68.5572 153.529H325.812V151.529H68.5572V153.529ZM6.14322 142.348L68.3806 153.513L68.7338 151.544L6.49637 140.379L6.14322 142.348ZM1.61545 144.895C1.36462 144.577 1.34433 144.322 1.40189 144.101C1.47046 143.838 1.68823 143.499 2.12985 143.165C3.01471 142.496 4.5325 142.059 6.14322 142.348L6.49637 140.379C4.37207 139.998 2.28146 140.543 0.923584 141.57C0.243835 142.084 -0.318359 142.771 -0.533417 143.596C-0.759521 144.463 -0.567169 145.358 0.0458069 146.134L1.61545 144.895ZM26.607 176.544L1.61545 144.895L0.0458069 146.134L25.0374 177.784L26.607 176.544ZM26.8222 233.854V177.164H24.8222V233.854H26.8222ZM40.8222 247.854C33.0902 247.854 26.8222 241.586 26.8222 233.854H24.8222C24.8222 242.69 31.9856 249.854 40.8222 249.854V247.854ZM325.812 247.854H40.8222V249.854H325.812V247.854Z" fill="black" mask="url(#path-5-inside-2_44_8327)"/>
<path d="M140.562 169.957V173.426H142.516V174.848H140.562V178.207H138.812V169.957H140.562ZM135.953 178.473C138.844 178.473 140.672 179.504 140.688 181.254C140.672 183.035 138.844 184.066 135.953 184.066C133.031 184.066 131.172 183.035 131.172 181.254C131.172 179.504 133.031 178.473 135.953 178.473ZM135.953 179.863C134.016 179.863 132.875 180.348 132.891 181.254C132.875 182.176 134.016 182.676 135.953 182.676C137.859 182.676 139 182.176 139 181.254C139 180.348 137.859 179.863 135.953 179.863ZM136.281 170.957V172.363H131.672V175.91C134.375 175.902 135.883 175.824 137.547 175.473L137.719 176.863C135.891 177.254 134.219 177.316 131.094 177.316H129.953V170.957H136.281ZM155 169.973V180.285H153.25V169.973H155ZM155.391 182.395V183.801H145.656V179.301H147.406V182.395H155.391ZM148.5 172.129C148.5 174.098 149.656 175.957 151.891 176.707L151 178.082C149.391 177.52 148.242 176.395 147.625 174.957C146.984 176.496 145.82 177.73 144.156 178.332L143.25 176.957C145.547 176.145 146.703 174.16 146.703 172.129V170.754H148.5V172.129ZM161.641 170.941C163.875 170.926 165.516 172.348 165.531 174.348C165.516 176.363 163.875 177.77 161.641 177.77C159.422 177.77 157.766 176.363 157.766 174.348C157.766 172.348 159.422 170.926 161.641 170.941ZM161.641 172.441C160.406 172.441 159.484 173.176 159.484 174.348C159.484 175.535 160.406 176.254 161.641 176.254C162.891 176.254 163.828 175.535 163.828 174.348C163.828 173.176 162.891 172.441 161.641 172.441ZM168.828 169.957V184.098H167.094V169.957H168.828ZM157.125 179.723C159.672 179.723 163.203 179.691 166.25 179.254L166.391 180.52C163.219 181.129 159.828 181.145 157.344 181.145L157.125 179.723ZM187.578 178.176V179.551H181.953V184.082H180.234V179.551H174.672V178.176H187.578ZM177.953 170.52V172.254H184.266V170.52H186.016V176.707H176.234V170.52H177.953ZM177.953 175.301H184.266V173.629H177.953V175.301ZM200.344 169.957V178.348H198.609V174.895H196.203V173.473H198.609V169.957H200.344ZM195.562 178.707C198.562 178.707 200.391 179.691 200.391 181.395C200.391 183.098 198.562 184.082 195.562 184.082C192.578 184.082 190.75 183.098 190.766 181.395C190.75 179.691 192.578 178.707 195.562 178.707ZM195.562 180.035C193.594 180.035 192.484 180.504 192.484 181.395C192.484 182.27 193.594 182.738 195.562 182.738C197.531 182.738 198.656 182.27 198.656 181.395C198.656 180.504 197.531 180.035 195.562 180.035ZM193.703 172.379C193.703 174.098 194.844 175.832 197.031 176.566L196.156 177.941C194.586 177.41 193.469 176.332 192.859 175.004C192.234 176.512 191.055 177.715 189.375 178.316L188.469 176.941C190.734 176.16 191.938 174.254 191.938 172.395V172.285H189V170.879H196.625V172.285H193.703V172.379ZM207.531 172.379C207.531 174.098 208.672 175.832 210.859 176.566L209.984 177.91C208.406 177.395 207.289 176.324 206.672 175.004C206.055 176.48 204.875 177.668 203.203 178.223L202.312 176.848C204.562 176.113 205.766 174.238 205.766 172.395V172.207H202.828V170.816H210.453V172.207H207.531V172.379ZM214.172 179.051V184.082H212.438V180.441H204.547V179.051H214.172ZM214.172 169.957V178.379H212.438V174.879H210.031V173.457H212.438V169.957H214.172ZM227.938 169.973V180.176H226.188V169.973H227.938ZM228.328 182.395V183.801H218.594V179.145H220.344V182.395H228.328ZM220.234 170.895C222.375 170.895 224.031 172.379 224.031 174.426C224.031 176.52 222.375 177.973 220.234 177.973C218.078 177.973 216.422 176.52 216.422 174.426C216.422 172.379 218.078 170.895 220.234 170.895ZM220.234 172.41C219.031 172.41 218.109 173.207 218.125 174.426C218.109 175.676 219.031 176.457 220.234 176.457C221.406 176.457 222.328 175.676 222.328 174.426C222.328 173.207 221.406 172.41 220.234 172.41ZM237.656 170.988C238.938 170.988 239.992 171.699 240.625 172.941H243.922V169.957H245.641V184.098H243.922V178.754H240.75C240.141 180.16 239.023 180.973 237.656 180.973C235.531 180.973 234.031 179.051 234.031 175.973C234.031 172.926 235.531 170.988 237.656 170.988ZM237.656 172.551C236.484 172.551 235.688 173.816 235.703 175.973C235.688 178.145 236.484 179.41 237.656 179.41C238.828 179.41 239.609 178.145 239.625 175.973C239.609 173.816 238.828 172.551 237.656 172.551ZM241.109 174.363C241.211 174.855 241.266 175.395 241.266 175.973C241.266 176.465 241.227 176.918 241.156 177.348H243.922V174.363H241.109ZM260.516 177.145V178.52H247.609V177.145H260.516ZM258.922 170.254V173.879H250.969V174.895H259.203V176.223H249.25V172.613H257.188V171.613H249.203V170.254H258.922ZM258.969 179.535V183.91H249.297V179.535H258.969ZM251 180.91V182.504H257.25V180.91H251ZM267.875 170.176C271.094 170.176 272.953 171.035 272.969 172.598C272.953 174.176 271.094 175.02 267.875 175.035C264.656 175.02 262.781 174.176 262.781 172.598C262.781 171.035 264.656 170.176 267.875 170.176ZM267.875 171.457C265.719 171.457 264.594 171.863 264.609 172.598C264.594 173.379 265.719 173.738 267.875 173.738C270.062 173.738 271.172 173.379 271.172 172.598C271.172 171.863 270.062 171.457 267.875 171.457ZM274.328 175.785V177.176H261.453V175.785H274.328ZM272.719 178.129V181.582H264.688V182.629H273.109V183.957H262.984V180.348H271.016V179.41H262.969V178.129H272.719ZM50.1719 194.66V195.754C50.1719 196.871 50.1719 198.16 49.8281 199.848H51.7188V201.238H38.8438V199.848H48.0469C48.3984 198.293 48.4375 197.113 48.4375 196.066H40.4375V194.66H50.1719ZM45.2812 202.598C48.3281 202.598 50.2344 203.613 50.25 205.348C50.2344 207.082 48.3281 208.051 45.2812 208.051C42.1875 208.051 40.2812 207.082 40.2812 205.348C40.2812 203.613 42.1875 202.598 45.2812 202.598ZM45.2812 204.004C43.1875 204.004 42.0312 204.457 42.0469 205.348C42.0312 206.191 43.1875 206.66 45.2812 206.66C47.3281 206.66 48.4844 206.191 48.5 205.348C48.4844 204.457 47.3281 204.004 45.2812 204.004ZM64.5 193.957V202.348H62.7656V198.895H60.3594V197.473H62.7656V193.957H64.5ZM59.7188 202.707C62.7188 202.707 64.5469 203.691 64.5469 205.395C64.5469 207.098 62.7188 208.082 59.7188 208.082C56.7344 208.082 54.9062 207.098 54.9219 205.395C54.9062 203.691 56.7344 202.707 59.7188 202.707ZM59.7188 204.035C57.75 204.035 56.6406 204.504 56.6406 205.395C56.6406 206.27 57.75 206.738 59.7188 206.738C61.6875 206.738 62.8125 206.27 62.8125 205.395C62.8125 204.504 61.6875 204.035 59.7188 204.035ZM57.8594 196.379C57.8594 198.098 59 199.832 61.1875 200.566L60.3125 201.941C58.7422 201.41 57.625 200.332 57.0156 199.004C56.3906 200.512 55.2109 201.715 53.5312 202.316L52.625 200.941C54.8906 200.16 56.0938 198.254 56.0938 196.395V196.285H53.1562V194.879H60.7812V196.285H57.8594V196.379ZM71.6875 196.379C71.6875 198.098 72.8281 199.832 75.0156 200.566L74.1406 201.91C72.5625 201.395 71.4453 200.324 70.8281 199.004C70.2109 200.48 69.0312 201.668 67.3594 202.223L66.4688 200.848C68.7188 200.113 69.9219 198.238 69.9219 196.395V196.207H66.9844V194.816H74.6094V196.207H71.6875V196.379ZM78.3281 203.051V208.082H76.5938V204.441H68.7031V203.051H78.3281ZM78.3281 193.957V202.379H76.5938V198.879H74.1875V197.457H76.5938V193.957H78.3281ZM92.0781 193.957V208.098H90.3281V193.957H92.0781ZM84.4688 194.988C86.5938 194.988 88.1406 196.926 88.1562 199.973C88.1406 203.051 86.5938 204.973 84.4688 204.973C82.3281 204.973 80.7812 203.051 80.7812 199.973C80.7812 196.926 82.3281 194.988 84.4688 194.988ZM84.4688 196.551C83.2656 196.551 82.4531 197.816 82.4531 199.973C82.4531 202.145 83.2656 203.41 84.4688 203.41C85.6562 203.41 86.4688 202.145 86.4688 199.973C86.4688 197.816 85.6562 196.551 84.4688 196.551ZM105.688 195.254V196.613C105.672 198.363 105.672 200.332 105.125 203.285L103.375 203.098C103.922 200.348 103.922 198.34 103.938 196.645H95.5V195.254H105.688ZM107.031 204.832V206.254H94.1562V204.832H98.9062V199.926H100.625V204.832H107.031ZM124.031 193.957V208.082H122.375V200.926H120.922V207.395H119.281V194.207H120.922V199.488H122.375V193.957H124.031ZM116.172 197.566C116.172 200.082 117.016 202.395 119.109 203.473L118.094 204.801C116.75 204.082 115.867 202.84 115.375 201.301C114.891 203.059 114.008 204.473 112.609 205.301L111.547 203.973C113.641 202.785 114.484 200.316 114.484 197.566V196.895H111.969V195.504H118.484V196.895H116.172V197.566ZM133.078 195.285V204.645H126.359V195.285H133.078ZM128.078 196.645V203.254H131.391V196.645H128.078ZM137.359 193.957V208.098H135.609V193.957H137.359ZM144.453 203.145C144.453 204.316 144.992 205.551 146.203 206.316C147.43 205.496 148 204.215 148.016 203.145V202.566H149.719V203.145C149.703 204.629 150.578 206.004 152.438 206.598L151.594 207.863C150.219 207.402 149.305 206.504 148.812 205.379C148.359 206.488 147.523 207.48 146.25 207.988C144.906 207.504 144.062 206.551 143.625 205.426C143.117 206.512 142.219 207.395 140.906 207.863L140.047 206.598C141.875 205.957 142.75 204.52 142.766 203.145V202.566H144.453V203.145ZM151.203 193.973V201.973H149.453V193.973H151.203ZM143.5 194.723C145.672 194.723 147.297 196.098 147.297 198.082C147.297 200.051 145.672 201.426 143.5 201.426C141.312 201.426 139.688 200.051 139.688 198.082C139.688 196.098 141.312 194.723 143.5 194.723ZM143.5 196.191C142.266 196.191 141.375 196.926 141.391 198.082C141.375 199.238 142.266 199.988 143.5 199.988C144.719 199.988 145.594 199.238 145.594 198.082C145.594 196.926 144.719 196.191 143.5 196.191ZM164.703 197.957V199.332H154.922V194.473H156.641V197.957H164.703ZM166.156 200.973V202.348H153.25V200.973H166.156ZM164.797 206.348V207.754H154.797V203.598H156.531V206.348H164.797ZM259.469 193.957V208.098H257.734V200.879H255V199.473H257.734V193.957H259.469ZM252.781 198.441C252.766 200.582 254.047 202.863 256.281 203.848L255.344 205.176C253.727 204.488 252.555 203.074 251.938 201.379C251.312 203.176 250.148 204.684 248.531 205.41L247.594 204.066C249.797 203.066 251.047 200.66 251.047 198.441V197.707H248.016V196.316H251.062V194.254H252.797V196.316H255.75V197.707H252.781V198.441ZM273.281 202.926V207.91H263.828V202.926H273.281ZM265.562 204.285V206.504H271.562V204.285H265.562ZM273.281 193.973V202.27H271.547V198.379H269.141V196.973H271.547V193.973H273.281ZM268.359 194.645V198.816H263.75V200.395C265.945 200.379 267.562 200.309 269.438 200.02L269.562 201.426C267.484 201.77 265.688 201.816 263.141 201.816H262.031V197.504H266.656V196.051H262V194.645H268.359ZM182.297 217.957V232.082H180.641V224.926H179.188V231.395H177.547V218.207H179.188V223.488H180.641V217.957H182.297ZM174.438 221.566C174.438 224.082 175.281 226.395 177.375 227.473L176.359 228.801C175.016 228.082 174.133 226.84 173.641 225.301C173.156 227.059 172.273 228.473 170.875 229.301L169.812 227.973C171.906 226.785 172.75 224.316 172.75 221.566V220.895H170.234V219.504H176.75V220.895H174.438V221.566ZM190.766 220.207V221.598H183.844V220.207H186.469V218.363H188.188V220.207H190.766ZM187.328 222.348C189.125 222.348 190.406 223.707 190.406 225.629C190.406 227.582 189.125 228.957 187.328 228.957C185.547 228.957 184.234 227.582 184.25 225.629C184.234 223.707 185.547 222.348 187.328 222.348ZM187.328 223.785C186.406 223.785 185.766 224.52 185.781 225.629C185.766 226.77 186.406 227.488 187.328 227.473C188.234 227.488 188.875 226.77 188.875 225.629C188.875 224.52 188.234 223.785 187.328 223.785ZM196.016 217.957V232.082H194.359V225.176H192.984V231.441H191.359V218.254H192.984V223.77H194.359V217.957H196.016ZM202.109 220.52C202.109 222.098 202.984 223.66 204.844 224.395L203.906 225.723C202.664 225.223 201.797 224.301 201.297 223.16C200.766 224.441 199.844 225.52 198.5 226.098L197.578 224.754C199.516 223.895 200.422 222.113 200.438 220.52V218.801H202.109V220.52ZM209.781 217.973V226.52H208.125V222.926H206.719V226.441H205.094V218.207H206.719V221.488H208.125V217.973H209.781ZM209.781 227.191V232.082H208.047V228.582H200.109V227.191H209.781ZM222.219 220.207V221.598H215.297V220.207H217.922V218.363H219.641V220.207H222.219ZM218.781 222.348C220.578 222.348 221.859 223.707 221.859 225.629C221.859 227.582 220.578 228.957 218.781 228.957C217 228.957 215.688 227.582 215.703 225.629C215.688 223.707 217 222.348 218.781 222.348ZM218.781 223.785C217.859 223.785 217.219 224.52 217.234 225.629C217.219 226.77 217.859 227.488 218.781 227.473C219.688 227.488 220.328 226.77 220.328 225.629C220.328 224.52 219.688 223.785 218.781 223.785ZM227.469 217.957V232.082H225.812V225.176H224.438V231.441H222.812V218.254H224.438V223.77H225.812V217.957H227.469ZM240.625 224.582V225.973H230.719V219.191H240.516V220.598H232.438V224.582H240.625ZM242.062 228.848V230.285H229.156V228.848H242.062ZM254.812 217.957V232.098H253.078V226.301H250.5V224.879H253.078V222.457H250.547V221.035H253.078V217.957H254.812ZM249.75 219.176V224.457H245.219V227.457C247.086 227.441 248.711 227.363 250.609 227.082L250.75 228.504C248.578 228.848 246.781 228.895 244.594 228.895H243.5V223.098H248.047V220.566H243.453V219.176H249.75ZM269.719 228.941V230.363H256.812V228.941H259.797V225.363C258.672 224.723 257.992 223.715 258 222.457C257.984 220.207 260.203 218.723 263.234 218.723C266.281 218.723 268.5 220.207 268.5 222.457C268.5 223.691 267.844 224.684 266.75 225.332V228.941H269.719ZM263.234 220.098C261.125 220.098 259.688 220.988 259.703 222.457C259.688 223.91 261.125 224.816 263.234 224.816C265.344 224.816 266.797 223.91 266.797 222.457C266.797 220.988 265.344 220.098 263.234 220.098ZM261.516 228.941H264.984V225.988C264.445 226.113 263.859 226.176 263.234 226.176C262.625 226.176 262.047 226.113 261.516 226.004V228.941ZM273.547 219.379L273.375 227.363H271.609L271.422 219.379H273.547ZM272.5 230.816C271.828 230.816 271.281 230.27 271.281 229.598C271.281 228.941 271.828 228.395 272.5 228.395C273.141 228.395 273.703 228.941 273.703 229.598C273.703 230.27 273.141 230.816 272.5 230.816Z" fill="black"/>
<path d="M182.031 193.973V198.41H184V199.848H182.031V204.52H180.297V193.973H182.031ZM179.281 195.535V196.926H170.906V195.535H174.234V193.957H175.969V195.535H179.281ZM175.094 197.504C177.125 197.504 178.531 198.582 178.547 200.207C178.531 201.816 177.125 202.879 175.094 202.879C173.047 202.879 171.625 201.816 171.625 200.207C171.625 198.582 173.047 197.504 175.094 197.504ZM175.094 198.848C174.016 198.848 173.312 199.348 173.312 200.207C173.312 201.051 174.016 201.551 175.094 201.535C176.172 201.551 176.891 201.051 176.891 200.207C176.891 199.348 176.172 198.848 175.094 198.848ZM182.594 206.395V207.801H172.984V203.691H174.719V206.395H182.594ZM200.344 193.957V204.395H198.609V200.707H196.609V199.27H198.609V197.926H196.609V196.52H198.609V193.957H200.344ZM196.406 195.02V196.41H195.156V200.91C195.688 200.879 196.203 200.84 196.703 200.785L196.781 202.051C194.109 202.488 190.969 202.535 188.719 202.535L188.531 201.098L190.125 201.082V196.41H188.891V195.02H196.406ZM200.703 206.395V207.801H191.062V203.582H192.812V206.395H200.703ZM191.812 201.066L193.484 201.004V196.41H191.812V201.066ZM206.922 194.941C209.156 194.926 210.797 196.348 210.812 198.348C210.797 200.363 209.156 201.77 206.922 201.77C204.703 201.77 203.047 200.363 203.047 198.348C203.047 196.348 204.703 194.926 206.922 194.941ZM206.922 196.441C205.688 196.441 204.766 197.176 204.766 198.348C204.766 199.535 205.688 200.254 206.922 200.254C208.172 200.254 209.109 199.535 209.109 198.348C209.109 197.176 208.172 196.441 206.922 196.441ZM214.109 193.957V208.098H212.375V193.957H214.109ZM202.406 203.723C204.953 203.723 208.484 203.691 211.531 203.254L211.672 204.52C208.5 205.129 205.109 205.145 202.625 205.145L202.406 203.723ZM232.875 204.926V206.332H219.969V204.926H225.5V201.66H227.219V204.926H232.875ZM227.266 195.848C227.266 197.988 229.406 200.098 232.375 200.566L231.625 202.004C229.234 201.551 227.281 200.184 226.344 198.332C225.406 200.176 223.469 201.566 221.094 202.004L220.344 200.566C223.297 200.098 225.406 197.973 225.422 195.848V194.816H227.266V195.848ZM245.625 193.957V201.191H243.891V197.613H241.078V196.223H243.891V193.957H245.625ZM245.625 201.801V205.457H238.047V206.535H246.078V207.91H236.344V204.16H243.906V203.16H236.328V201.801H245.625ZM238.922 195.551C238.922 197.285 240.062 198.941 242.25 199.613L241.328 200.957C239.797 200.441 238.688 199.449 238.078 198.16C237.453 199.605 236.297 200.723 234.625 201.27L233.719 199.879C235.984 199.191 237.172 197.457 237.172 195.551V194.426H238.922V195.551Z" fill="#0085FF"/>
<path d="M323.132 198.846C323.649 197.62 323.821 196.284 323.632 194.973C323.443 193.662 322.899 192.422 322.056 191.381C321.212 190.339 320.098 189.533 318.828 189.043C317.559 188.553 316.177 188.397 314.825 188.592C313.987 187.547 312.879 186.735 311.612 186.238C310.345 185.742 308.965 185.58 307.612 185.767C306.26 185.954 304.982 186.485 303.91 187.305C302.837 188.125 302.008 189.205 301.506 190.436C300.152 190.615 298.87 191.139 297.793 191.953C296.715 192.768 295.879 193.844 295.37 195.072C294.861 196.301 294.696 197.638 294.894 198.948C295.091 200.258 295.643 201.494 296.493 202.531C296.078 203.516 295.884 204.575 295.925 205.638C295.965 206.701 296.238 207.743 296.726 208.696C297.214 209.649 297.906 210.491 298.755 211.165C299.605 211.839 300.593 212.33 301.654 212.606C302.311 212.781 302.99 212.871 303.671 212.874C304.05 212.874 304.427 212.846 304.801 212.793C305.639 213.837 306.748 214.649 308.015 215.145C309.281 215.641 310.661 215.803 312.014 215.616C313.366 215.428 314.643 214.898 315.716 214.078C316.788 213.258 317.617 212.178 318.119 210.947C319.473 210.768 320.755 210.244 321.832 209.43C322.91 208.615 323.746 207.539 324.255 206.311C324.764 205.082 324.929 203.745 324.731 202.435C324.534 201.125 323.982 199.889 323.132 198.852V198.846ZM317.397 190.836C318.791 191.197 319.984 192.071 320.722 193.272C321.46 194.473 321.684 195.905 321.346 197.264C321.215 197.179 321.081 197.098 320.944 197.022L314.791 193.575C314.622 193.481 314.432 193.431 314.237 193.431C314.043 193.431 313.853 193.481 313.684 193.575L307.6 196.977V194.503L313.2 191.372C313.829 191.018 314.523 190.789 315.243 190.697C315.964 190.605 316.696 190.653 317.397 190.836ZM312.025 201.926L309.812 203.163L307.6 201.926V199.451L309.812 198.213L312.025 199.451V201.926ZM303.175 193.189C303.176 192.142 303.493 191.118 304.088 190.244C304.683 189.369 305.53 188.683 306.524 188.27C307.517 187.857 308.614 187.734 309.679 187.919C310.743 188.103 311.729 188.585 312.513 189.306C312.375 189.374 312.237 189.44 312.098 189.523L305.941 192.957C305.773 193.051 305.633 193.186 305.536 193.349C305.439 193.512 305.388 193.696 305.388 193.884V200.688L303.175 199.451V193.189ZM297.763 195.188C298.468 193.998 299.62 193.117 300.979 192.73C300.969 192.883 300.963 193.036 300.963 193.189V200.07C300.963 200.258 301.014 200.442 301.111 200.605C301.208 200.768 301.347 200.903 301.516 200.998L307.6 204.399L305.388 205.643L299.787 202.505C298.517 201.795 297.59 200.625 297.21 199.253C296.831 197.881 297.029 196.419 297.763 195.188ZM302.228 210.54C300.834 210.179 299.641 209.305 298.903 208.104C298.165 206.903 297.941 205.471 298.279 204.112C298.41 204.197 298.543 204.278 298.681 204.355L304.834 207.802C305.003 207.896 305.193 207.945 305.388 207.945C305.582 207.945 305.772 207.896 305.941 207.802L312.025 204.399V206.874L306.425 210.004C305.796 210.358 305.102 210.587 304.382 210.679C303.661 210.771 302.929 210.724 302.228 210.54ZM316.45 208.187C316.451 209.235 316.134 210.259 315.539 211.135C314.945 212.01 314.098 212.697 313.105 213.111C312.111 213.525 311.014 213.647 309.949 213.464C308.884 213.28 307.898 212.798 307.113 212.077C307.252 212.009 307.39 211.937 307.528 211.859L313.684 208.419C313.852 208.325 313.992 208.19 314.089 208.027C314.186 207.865 314.237 207.68 314.237 207.492V200.688L316.45 201.926V208.187ZM321.862 206.188C321.157 207.378 320.005 208.259 318.646 208.647C318.656 208.494 318.662 208.341 318.662 208.187V201.307C318.662 201.119 318.611 200.934 318.514 200.771C318.417 200.608 318.278 200.473 318.109 200.379L312.025 196.977L314.237 195.74L319.838 198.871C321.108 199.581 322.035 200.751 322.415 202.123C322.794 203.496 322.596 204.958 321.862 206.188Z" fill="#0085FF"/>
<mask id="path-9-inside-3_44_8327" fill="white">
<path fill-rule="evenodd" clip-rule="evenodd" d="M17.812 282.354C9.52774 282.354 2.81201 289.07 2.81201 297.354V363.679C2.81201 371.964 9.52772 378.679 17.812 378.679H275.067L337.304 389.844C341.039 390.514 344.521 387.882 342.793 385.694L317.802 354.044V297.354C317.802 289.07 311.086 282.354 302.802 282.354H17.812Z"/>
</mask>
<path fill-rule="evenodd" clip-rule="evenodd" d="M17.812 282.354C9.52774 282.354 2.81201 289.07 2.81201 297.354V363.679C2.81201 371.964 9.52772 378.679 17.812 378.679H275.067L337.304 389.844C341.039 390.514 344.521 387.882 342.793 385.694L317.802 354.044V297.354C317.802 289.07 311.086 282.354 302.802 282.354H17.812Z" fill="white"/>
<path d="M275.067 378.679L275.243 377.695L275.156 377.679H275.067V378.679ZM337.304 389.844L337.128 390.829L337.304 389.844ZM342.793 385.694L342.009 386.313L342.793 385.694ZM317.802 354.044H316.802V354.391L317.017 354.664L317.802 354.044ZM3.81201 297.354C3.81201 289.622 10.08 283.354 17.812 283.354V281.354C8.97546 281.354 1.81201 288.518 1.81201 297.354H3.81201ZM3.81201 363.679V297.354H1.81201V363.679H3.81201ZM17.812 377.679C10.08 377.679 3.81201 371.411 3.81201 363.679H1.81201C1.81201 372.516 8.97544 379.679 17.812 379.679V377.679ZM275.067 377.679H17.812V379.679H275.067V377.679ZM337.481 388.86L275.243 377.695L274.89 379.664L337.128 390.829L337.481 388.86ZM342.009 386.313C342.259 386.631 342.28 386.886 342.222 387.107C342.154 387.37 341.936 387.709 341.494 388.043C340.609 388.712 339.092 389.149 337.481 388.86L337.128 390.829C339.252 391.21 341.343 390.665 342.7 389.638C343.38 389.124 343.942 388.437 344.157 387.612C344.384 386.745 344.191 385.85 343.578 385.074L342.009 386.313ZM317.017 354.664L342.009 386.313L343.578 385.074L318.587 353.424L317.017 354.664ZM316.802 297.354V354.044H318.802V297.354H316.802ZM302.802 283.354C310.534 283.354 316.802 289.623 316.802 297.354H318.802C318.802 288.518 311.638 281.354 302.802 281.354V283.354ZM17.812 283.354H302.802V281.354H17.812V283.354Z" fill="black" mask="url(#path-9-inside-3_44_8327)"/>
<path d="M39.8112 344.515H38.8113C38.811 344.713 38.8694 344.907 38.9793 345.071C39.0891 345.236 39.2454 345.365 39.4283 345.44C39.6113 345.516 39.8126 345.536 40.0068 345.497C40.201 345.459 40.3794 345.363 40.5192 345.223L39.8112 344.515ZM39.8112 336.515V335.515C39.546 335.515 39.2917 335.621 39.1042 335.808C38.9167 335.996 38.8113 336.25 38.8113 336.515H39.8112ZM47.8108 336.515L48.5187 337.223C48.6589 337.083 48.7545 336.905 48.7932 336.711C48.8319 336.517 48.8121 336.315 48.7363 336.132C48.6605 335.95 48.532 335.793 48.3672 335.683C48.2025 335.574 48.0088 335.515 47.8108 335.515V336.515ZM21.8123 317.516H45.8109V315.517H21.8123V317.516ZM20.8124 342.515V318.516H18.8125V342.515H20.8124ZM46.8108 318.516V335.687H48.8107V318.516H46.8108ZM38.9833 343.515H21.8123V345.515H38.9833V343.515ZM46.5188 336.395L39.6893 343.223L41.1032 344.637L47.9328 337.807L46.5188 336.395ZM38.9833 345.515C39.7786 345.514 40.5411 345.2 41.1032 344.637L39.6893 343.223C39.5019 343.41 39.248 343.515 38.9833 343.515V345.515ZM46.8108 335.687C46.8108 335.952 46.7058 336.208 46.5188 336.395L47.9328 337.807C48.4948 337.245 48.8105 336.482 48.8107 335.687H46.8108ZM18.8125 342.515C18.8125 343.311 19.1286 344.074 19.6911 344.636C20.2537 345.199 21.0167 345.515 21.8123 345.515V343.515C21.5471 343.515 21.2928 343.41 21.1053 343.222C20.9177 343.035 20.8124 342.78 20.8124 342.515H18.8125ZM45.8109 317.516C46.0761 317.516 46.3304 317.622 46.518 317.809C46.7055 317.997 46.8108 318.251 46.8108 318.516H48.8107C48.8107 317.721 48.4947 316.958 47.9321 316.395C47.3695 315.833 46.6065 315.517 45.8109 315.517V317.516ZM21.8123 315.517C21.0167 315.517 20.2537 315.833 19.6911 316.395C19.1286 316.958 18.8125 317.721 18.8125 318.516H20.8124C20.8124 318.251 20.9177 317.997 21.1053 317.809C21.2928 317.622 21.5471 317.516 21.8123 317.516V315.517ZM40.8112 344.515V336.515H38.8113V344.515H40.8112ZM39.8112 337.515H47.8108V335.515H39.8112V337.515ZM47.1028 335.807L39.1033 343.807L40.5192 345.223L48.5187 337.223L47.1028 335.807ZM24.8121 323.516H42.8111V321.516H24.8121V323.516Z" fill="#0085FF"/>
<path d="M82.1875 322.782V324.204H69.2812V322.782H74.8438V320.032H70.7031V312.72H72.4375V315.032H78.9844V312.72H80.7188V320.032H76.5625V322.782H82.1875ZM72.4375 318.626H78.9844V316.423H72.4375V318.626ZM94.9062 311.782V325.907H93.1562V311.782H94.9062ZM90.6875 313.282C90.6875 317.485 89.0625 321.063 84.1094 323.407L83.2031 322.017C86.8984 320.259 88.6172 317.868 88.9219 314.657H83.9219V313.282H90.6875ZM104.109 313.001V319.673H97.4219V313.001H104.109ZM99.125 314.392V318.298H102.406V314.392H99.125ZM108.078 311.782V315.923H110.047V317.376H108.078V322.095H106.344V311.782H108.078ZM108.641 324.22V325.626H99.0312V321.095H100.766V324.22H108.641ZM121.453 314.032V315.423H114.531V314.032H117.156V312.188H118.875V314.032H121.453ZM118.016 316.173C119.812 316.173 121.094 317.532 121.094 319.454C121.094 321.407 119.812 322.782 118.016 322.782C116.234 322.782 114.922 321.407 114.938 319.454C114.922 317.532 116.234 316.173 118.016 316.173ZM118.016 317.61C117.094 317.61 116.453 318.345 116.469 319.454C116.453 320.595 117.094 321.313 118.016 321.298C118.922 321.313 119.562 320.595 119.562 319.454C119.562 318.345 118.922 317.61 118.016 317.61ZM126.703 311.782V325.907H125.047V319.001H123.672V325.267H122.047V312.079H123.672V317.595H125.047V311.782H126.703ZM139.859 318.204V319.579H135.672V322.813H141.297V324.235H128.391V322.813H133.953V319.579H129.953V312.829H139.75V314.22H131.688V318.204H139.859ZM231.141 311.782V325.907H229.469V311.782H231.141ZM228.234 312.032V325.22H226.578V318.501H225.234C225.07 321.251 223.891 322.954 222.141 322.938C220.297 322.954 219.094 321.001 219.094 317.892C219.094 314.782 220.297 312.86 222.141 312.86C223.852 312.86 225.016 314.454 225.219 317.095H226.578V312.032H228.234ZM222.141 314.501C221.25 314.485 220.688 315.688 220.703 317.892C220.688 320.095 221.25 321.298 222.141 321.282C223.078 321.298 223.641 320.095 223.641 317.892C223.641 315.688 223.078 314.485 222.141 314.501ZM80.4375 335.782V339.251H82.3906V340.673H80.4375V344.032H78.6875V335.782H80.4375ZM75.8281 344.298C78.7188 344.298 80.5469 345.329 80.5625 347.079C80.5469 348.86 78.7188 349.892 75.8281 349.892C72.9062 349.892 71.0469 348.86 71.0469 347.079C71.0469 345.329 72.9062 344.298 75.8281 344.298ZM75.8281 345.688C73.8906 345.688 72.75 346.173 72.7656 347.079C72.75 348.001 73.8906 348.501 75.8281 348.501C77.7344 348.501 78.875 348.001 78.875 347.079C78.875 346.173 77.7344 345.688 75.8281 345.688ZM76.1562 336.782V338.188H71.5469V341.735C74.25 341.728 75.7578 341.649 77.4219 341.298L77.5938 342.688C75.7656 343.079 74.0938 343.142 70.9688 343.142H69.8281V336.782H76.1562ZM94.875 335.798V346.11H93.125V335.798H94.875ZM95.2656 348.22V349.626H85.5312V345.126H87.2812V348.22H95.2656ZM88.375 337.954C88.375 339.923 89.5312 341.782 91.7656 342.532L90.875 343.907C89.2656 343.345 88.1172 342.22 87.5 340.782C86.8594 342.321 85.6953 343.556 84.0312 344.157L83.125 342.782C85.4219 341.97 86.5781 339.985 86.5781 337.954V336.579H88.375V337.954ZM101.516 336.767C103.75 336.751 105.391 338.173 105.406 340.173C105.391 342.188 103.75 343.595 101.516 343.595C99.2969 343.595 97.6406 342.188 97.6406 340.173C97.6406 338.173 99.2969 336.751 101.516 336.767ZM101.516 338.267C100.281 338.267 99.3594 339.001 99.3594 340.173C99.3594 341.36 100.281 342.079 101.516 342.079C102.766 342.079 103.703 341.36 103.703 340.173C103.703 339.001 102.766 338.267 101.516 338.267ZM108.703 335.782V349.923H106.969V335.782H108.703ZM97 345.548C99.5469 345.548 103.078 345.517 106.125 345.079L106.266 346.345C103.094 346.954 99.7031 346.97 97.2188 346.97L97 345.548ZM118.422 336.813C119.703 336.813 120.758 337.524 121.391 338.767H124.688V335.782H126.406V349.923H124.688V344.579H121.516C120.906 345.985 119.789 346.798 118.422 346.798C116.297 346.798 114.797 344.876 114.797 341.798C114.797 338.751 116.297 336.813 118.422 336.813ZM118.422 338.376C117.25 338.376 116.453 339.642 116.469 341.798C116.453 343.97 117.25 345.235 118.422 345.235C119.594 345.235 120.375 343.97 120.391 341.798C120.375 339.642 119.594 338.376 118.422 338.376ZM121.875 340.188C121.977 340.681 122.031 341.22 122.031 341.798C122.031 342.29 121.992 342.743 121.922 343.173H124.688V340.188H121.875ZM141.281 342.97V344.345H128.375V342.97H141.281ZM139.688 336.079V339.704H131.734V340.72H139.969V342.048H130.016V338.438H137.953V337.438H129.969V336.079H139.688ZM139.734 345.36V349.735H130.062V345.36H139.734ZM131.766 346.735V348.329H138.016V346.735H131.766ZM148.641 336.001C151.859 336.001 153.719 336.86 153.734 338.423C153.719 340.001 151.859 340.845 148.641 340.86C145.422 340.845 143.547 340.001 143.547 338.423C143.547 336.86 145.422 336.001 148.641 336.001ZM148.641 337.282C146.484 337.282 145.359 337.688 145.375 338.423C145.359 339.204 146.484 339.563 148.641 339.563C150.828 339.563 151.938 339.204 151.938 338.423C151.938 337.688 150.828 337.282 148.641 337.282ZM155.094 341.61V343.001H142.219V341.61H155.094ZM153.484 343.954V347.407H145.453V348.454H153.875V349.782H143.75V346.173H151.781V345.235H143.734V343.954H153.484ZM172.031 335.782V349.907H170.359V335.782H172.031ZM169.172 336.032V349.22H167.531V344.767H165.688C165.164 346.157 164.227 346.946 163.031 346.938C161.188 346.954 159.984 345.001 159.984 341.892C159.984 338.782 161.188 336.86 163.031 336.86C164.227 336.86 165.156 337.642 165.688 339.017H167.531V336.032H169.172ZM163.031 338.501C162.109 338.485 161.562 339.688 161.578 341.892C161.562 344.095 162.109 345.298 163.031 345.282C163.969 345.298 164.547 344.095 164.547 341.892C164.547 339.688 163.969 338.485 163.031 338.501ZM166.031 340.423C166.102 340.876 166.141 341.368 166.141 341.892C166.141 342.407 166.102 342.892 166.047 343.345H167.531V340.423H166.031ZM176.25 336.892V339.188H177.922V336.892H179.578V344.188H174.547V336.892H176.25ZM176.25 342.782H177.922V340.563H176.25V342.782ZM182.297 336.892V339.188H183.984V336.892H185.672V344.188H180.609V336.892H182.297ZM182.297 342.782H183.984V340.563H182.297V342.782ZM186.547 346.72V348.142H173.672V346.72H186.547ZM199.688 335.782V349.907H198.031V335.782H199.688ZM196.688 336.126V349.235H195.047V342.735H192.531C191.703 344.36 190.375 345.767 188.375 346.923L187.391 345.688C190.32 343.962 191.656 341.751 191.922 338.907H188.109V337.501H193.641C193.641 338.868 193.477 340.149 193.094 341.345H195.047V336.126H196.688ZM216.266 335.782V339.063H218.234V340.501H216.266V343.735H214.531V335.782H216.266ZM212 336.688V338.095H207.438V341.704C210.094 341.704 211.57 341.603 213.25 341.267L213.438 342.642C211.594 343.048 209.938 343.11 206.859 343.11H205.719V336.688H212ZM216.266 344.376V349.72H207.141V344.376H216.266ZM208.859 345.767V348.345H214.547V345.767H208.859ZM222.75 336.813C224.875 336.813 226.406 338.751 226.422 341.798C226.406 344.876 224.875 346.798 222.75 346.798C220.609 346.798 219.062 344.876 219.078 341.798C219.062 338.751 220.609 336.813 222.75 336.813ZM222.75 338.376C221.562 338.376 220.75 339.642 220.75 341.798C220.75 343.97 221.562 345.235 222.75 345.235C223.953 345.235 224.75 343.97 224.75 341.798C224.75 339.642 223.953 338.376 222.75 338.376ZM230.016 335.782V341.204H232.188V342.673H230.016V349.907H228.281V335.782H230.016ZM244.25 342.407V343.798H234.344V337.017H244.141V338.423H236.062V342.407H244.25ZM245.688 346.673V348.11H232.781V346.673H245.688ZM258.438 335.782V349.923H256.703V344.126H254.125V342.704H256.703V340.282H254.172V338.86H256.703V335.782H258.438ZM253.375 337.001V342.282H248.844V345.282C250.711 345.267 252.336 345.188 254.234 344.907L254.375 346.329C252.203 346.673 250.406 346.72 248.219 346.72H247.125V340.923H251.672V338.392H247.078V337.001H253.375ZM273.344 346.767V348.188H260.438V346.767H263.422V343.188C262.297 342.548 261.617 341.54 261.625 340.282C261.609 338.032 263.828 336.548 266.859 336.548C269.906 336.548 272.125 338.032 272.125 340.282C272.125 341.517 271.469 342.509 270.375 343.157V346.767H273.344ZM266.859 337.923C264.75 337.923 263.312 338.813 263.328 340.282C263.312 341.735 264.75 342.642 266.859 342.642C268.969 342.642 270.422 341.735 270.422 340.282C270.422 338.813 268.969 337.923 266.859 337.923ZM265.141 346.767H268.609V343.813C268.07 343.938 267.484 344.001 266.859 344.001C266.25 344.001 265.672 343.938 265.141 343.829V346.767ZM277.172 337.204L277 345.188H275.234L275.047 337.204H277.172ZM276.125 348.642C275.453 348.642 274.906 348.095 274.906 347.423C274.906 346.767 275.453 346.22 276.125 346.22C276.766 346.22 277.328 346.767 277.328 347.423C277.328 348.095 276.766 348.642 276.125 348.642Z" fill="black"/>
<path d="M158.891 318.063V319.501H153.281V320.907H151.562V319.501H146.016V318.063H158.891ZM153.297 321.813C153.297 323.11 155.016 324.267 157.938 324.517L157.406 325.829C155.047 325.61 153.266 324.79 152.406 323.579C151.547 324.774 149.789 325.61 147.453 325.829L146.875 324.517C149.766 324.267 151.516 323.063 151.516 321.813V321.485H153.297V321.813ZM152.438 311.97C155.578 311.97 157.516 312.923 157.531 314.61C157.516 316.282 155.578 317.251 152.438 317.235C149.328 317.251 147.344 316.282 147.344 314.61C147.344 312.923 149.328 311.97 152.438 311.97ZM152.438 313.282C150.344 313.267 149.141 313.751 149.156 314.61C149.141 315.438 150.344 315.923 152.438 315.923C154.516 315.923 155.734 315.438 155.734 314.61C155.734 313.751 154.516 313.267 152.438 313.282ZM171.578 311.798V322.048H169.828V311.798H171.578ZM167.469 312.845C167.453 316.61 164.969 319.313 160.734 320.563L160.062 319.173C163.312 318.22 165.266 316.454 165.578 314.267H160.844V312.845H167.469ZM171.906 324.22V325.626H162.219V321.173H163.969V324.22H171.906ZM181.469 312.235C183.609 312.235 185.203 313.563 185.219 315.423C185.203 317.298 183.609 318.61 181.469 318.61C179.312 318.61 177.719 317.298 177.719 315.423C177.719 313.563 179.312 312.235 181.469 312.235ZM181.469 313.673C180.281 313.673 179.406 314.345 179.406 315.423C179.406 316.517 180.281 317.204 181.469 317.204C182.656 317.204 183.531 316.517 183.531 315.423C183.531 314.345 182.656 313.673 181.469 313.673ZM189.234 311.782V318.923H187.484V311.782H189.234ZM189.234 319.532V323.22H181.594V324.36H189.656V325.735H179.891V321.938H187.5V320.892H179.859V319.532H189.234ZM203.094 311.782V325.907H201.344V311.782H203.094ZM198.875 313.282C198.875 317.485 197.25 321.063 192.297 323.407L191.391 322.017C195.086 320.259 196.805 317.868 197.109 314.657H192.109V313.282H198.875ZM210.188 314.329C210.188 316.063 211.312 317.688 213.516 318.36L212.688 319.72C211.102 319.228 209.977 318.22 209.359 316.938C208.734 318.423 207.539 319.603 205.844 320.173L204.969 318.798C207.25 318.048 208.438 316.22 208.438 314.345V314.173H205.453V312.767H213.125V314.173H210.188V314.329ZM216.266 311.782V315.173H218.234V316.595H216.266V320.204H214.531V311.782H216.266ZM211.672 320.517C214.594 320.517 216.391 321.501 216.406 323.188C216.391 324.892 214.594 325.892 211.672 325.892C208.719 325.892 206.891 324.892 206.891 323.188C206.891 321.501 208.719 320.517 211.672 320.517ZM211.672 321.876C209.734 321.876 208.625 322.329 208.625 323.188C208.625 324.063 209.734 324.532 211.672 324.532C213.609 324.532 214.688 324.063 214.688 323.188C214.688 322.329 213.609 321.876 211.672 321.876Z" fill="#0085FF"/>
<mask id="path-13-inside-4_44_8327" fill="white">
<path fill-rule="evenodd" clip-rule="evenodd" d="M325.812 531.047C334.096 531.047 340.812 524.331 340.812 516.047V449.722C340.812 441.438 334.096 434.722 325.812 434.722H68.5572L6.31979 423.557C2.58478 422.887 -0.897003 425.52 0.830627 427.708L25.8222 459.357V516.047C25.8222 524.331 32.5379 531.047 40.8222 531.047H325.812Z"/>
</mask>
<path fill-rule="evenodd" clip-rule="evenodd" d="M325.812 531.047C334.096 531.047 340.812 524.331 340.812 516.047V449.722C340.812 441.438 334.096 434.722 325.812 434.722H68.5572L6.31979 423.557C2.58478 422.887 -0.897003 425.52 0.830627 427.708L25.8222 459.357V516.047C25.8222 524.331 32.5379 531.047 40.8222 531.047H325.812Z" fill="white"/>
<path d="M68.5572 434.722L68.3806 435.706L68.4682 435.722H68.5572V434.722ZM6.31979 423.557L6.49637 422.573L6.31979 423.557ZM0.830627 427.708L1.61545 427.088L0.830627 427.708ZM25.8222 459.357H26.8222V459.01L26.607 458.738L25.8222 459.357ZM339.812 516.047C339.812 523.779 333.544 530.047 325.812 530.047V532.047C334.649 532.047 341.812 524.883 341.812 516.047H339.812ZM339.812 449.722V516.047H341.812V449.722H339.812ZM325.812 435.722C333.544 435.722 339.812 441.99 339.812 449.722H341.812C341.812 440.885 334.649 433.722 325.812 433.722V435.722ZM68.5572 435.722H325.812V433.722H68.5572V435.722ZM6.14322 424.541L68.3806 435.706L68.7338 433.738L6.49637 422.573L6.14322 424.541ZM1.61545 427.088C1.36462 426.77 1.34433 426.515 1.40189 426.294C1.47046 426.031 1.68823 425.692 2.12985 425.358C3.01471 424.689 4.5325 424.252 6.14322 424.541L6.49637 422.573C4.37207 422.192 2.28146 422.736 0.923584 423.763C0.243835 424.277 -0.318359 424.965 -0.533417 425.79C-0.759521 426.657 -0.567169 427.551 0.0458069 428.327L1.61545 427.088ZM26.607 458.738L1.61545 427.088L0.0458069 428.327L25.0374 459.977L26.607 458.738ZM26.8222 516.047V459.357H24.8222V516.047H26.8222ZM40.8222 530.047C33.0902 530.047 26.8222 523.779 26.8222 516.047H24.8222C24.8222 524.883 31.9856 532.047 40.8222 532.047V530.047ZM325.812 530.047H40.8222V532.047H325.812V530.047Z" fill="black" mask="url(#path-13-inside-4_44_8327)"/>
<path d="M97.0156 473.557H91.3906V478.26H89.6719V473.557H84.1094V472.15H97.0156V473.557ZM95.4375 470.494H85.6875V464.869H95.4375V470.494ZM87.3906 469.135H93.7031V466.26H87.3906V469.135ZM105.094 466.854H100.391V473.432C101.547 473.421 102.544 473.385 103.383 473.322C104.221 473.26 105.062 473.15 105.906 472.994L106.094 474.4C105.151 474.588 104.214 474.713 103.281 474.775C102.349 474.838 101.177 474.869 99.7656 474.869H98.6406V465.432H105.094V466.854ZM109.812 478.291H108.078V470.541H104.344V469.119H108.078V464.15H109.812V478.291ZM124.672 472.525H119.219V475.119H117.453V472.525H111.766V471.135H124.672V472.525ZM123.25 477.994H113.344V473.807H115.094V476.572H123.25V477.994ZM118.203 464.463C119.214 464.463 120.099 464.58 120.859 464.814C121.625 465.049 122.216 465.385 122.633 465.822C123.055 466.255 123.266 466.765 123.266 467.354C123.266 467.942 123.055 468.452 122.633 468.885C122.216 469.317 121.625 469.65 120.859 469.885C120.099 470.114 119.214 470.229 118.203 470.229C117.193 470.229 116.305 470.114 115.539 469.885C114.779 469.65 114.188 469.317 113.766 468.885C113.349 468.452 113.141 467.942 113.141 467.354C113.141 466.765 113.349 466.255 113.766 465.822C114.188 465.385 114.779 465.049 115.539 464.814C116.305 464.58 117.193 464.463 118.203 464.463ZM118.203 465.838C117.557 465.838 116.992 465.898 116.508 466.018C116.029 466.137 115.659 466.312 115.398 466.541C115.138 466.765 115.01 467.036 115.016 467.354C115.01 467.661 115.138 467.926 115.398 468.15C115.659 468.374 116.029 468.546 116.508 468.666C116.992 468.781 117.557 468.838 118.203 468.838C118.854 468.838 119.419 468.781 119.898 468.666C120.383 468.546 120.755 468.374 121.016 468.15C121.276 467.926 121.406 467.661 121.406 467.354C121.406 467.036 121.276 466.765 121.016 466.541C120.755 466.312 120.383 466.137 119.898 466.018C119.419 465.898 118.854 465.838 118.203 465.838ZM133.266 465.182C133.901 465.182 134.474 465.351 134.984 465.689C135.5 466.028 135.917 466.51 136.234 467.135H139.531V464.15H141.25V478.291H139.531V472.947H136.359C136.052 473.65 135.63 474.197 135.094 474.588C134.557 474.973 133.948 475.166 133.266 475.166C132.557 475.166 131.93 474.963 131.383 474.557C130.836 474.15 130.409 473.57 130.102 472.814C129.794 472.059 129.641 471.176 129.641 470.166C129.641 469.166 129.794 468.291 130.102 467.541C130.409 466.786 130.836 466.205 131.383 465.799C131.935 465.387 132.562 465.182 133.266 465.182ZM133.266 466.744C132.875 466.744 132.531 466.882 132.234 467.158C131.938 467.429 131.708 467.822 131.547 468.338C131.385 468.848 131.307 469.458 131.312 470.166C131.307 470.88 131.385 471.494 131.547 472.01C131.708 472.525 131.938 472.921 132.234 473.197C132.531 473.468 132.875 473.604 133.266 473.604C133.656 473.604 133.997 473.468 134.289 473.197C134.586 472.921 134.815 472.525 134.977 472.01C135.143 471.494 135.229 470.88 135.234 470.166C135.229 469.458 135.143 468.846 134.977 468.33C134.815 467.814 134.586 467.421 134.289 467.15C133.997 466.88 133.656 466.744 133.266 466.744ZM136.719 468.557C136.823 469.062 136.875 469.598 136.875 470.166C136.875 470.635 136.839 471.093 136.766 471.541H139.531V468.557H136.719ZM156.125 472.713H143.219V471.338H156.125V472.713ZM154.531 468.072H146.578V469.088H154.812V470.416H144.859V466.807H152.797V465.807H144.812V464.447H154.531V468.072ZM154.578 478.104H144.906V473.729H154.578V478.104ZM146.609 476.697H152.859V475.104H146.609V476.697ZM169.25 478.275H167.578V464.15H169.25V478.275ZM166.344 477.588H164.688V470.869H163.344C163.292 471.781 163.13 472.572 162.859 473.244C162.594 473.911 162.237 474.424 161.789 474.783C161.341 475.137 160.828 475.312 160.25 475.307C159.641 475.312 159.104 475.111 158.641 474.705C158.182 474.294 157.828 473.708 157.578 472.947C157.328 472.182 157.203 471.286 157.203 470.26C157.203 469.234 157.328 468.343 157.578 467.588C157.828 466.827 158.182 466.244 158.641 465.838C159.104 465.432 159.641 465.229 160.25 465.229C160.818 465.229 161.32 465.398 161.758 465.736C162.201 466.075 162.555 466.562 162.82 467.197C163.091 467.833 163.26 468.588 163.328 469.463H164.688V464.4H166.344V477.588ZM160.25 466.869C159.953 466.864 159.695 466.992 159.477 467.252C159.258 467.512 159.091 467.898 158.977 468.408C158.862 468.919 158.807 469.536 158.812 470.26C158.807 470.984 158.862 471.601 158.977 472.111C159.091 472.622 159.258 473.007 159.477 473.268C159.695 473.528 159.953 473.656 160.25 473.65C160.724 473.661 161.091 473.372 161.352 472.783C161.617 472.195 161.75 471.354 161.75 470.26C161.75 469.166 161.617 468.325 161.352 467.736C161.091 467.148 160.724 466.859 160.25 466.869ZM180.016 468.166C180.016 468.942 180.161 469.71 180.453 470.471C180.75 471.226 181.172 471.906 181.719 472.51C182.271 473.109 182.917 473.562 183.656 473.869L182.703 475.244C181.885 474.895 181.174 474.372 180.57 473.674C179.966 472.976 179.497 472.166 179.164 471.244C178.831 472.234 178.359 473.111 177.75 473.877C177.146 474.637 176.438 475.208 175.625 475.588L174.625 474.229C175.349 473.895 175.984 473.406 176.531 472.76C177.083 472.114 177.508 471.39 177.805 470.588C178.102 469.781 178.25 468.973 178.25 468.166V466.979H175.141V465.541H183.109V466.979H180.016V468.166ZM186.438 478.275H184.688V464.15H186.438V478.275ZM200.281 474.525H198.531V464.166H200.281V474.525ZM200.672 477.994H190.938V473.588H192.688V476.588H200.672V477.994ZM193.875 467.447C193.875 468.01 194.008 468.551 194.273 469.072C194.544 469.588 194.94 470.046 195.461 470.447C195.987 470.843 196.615 471.145 197.344 471.354L196.516 472.729C195.708 472.489 195.01 472.132 194.422 471.658C193.833 471.179 193.372 470.614 193.039 469.963C192.716 470.671 192.255 471.286 191.656 471.807C191.062 472.322 190.354 472.708 189.531 472.963L188.688 471.604C189.422 471.38 190.047 471.057 190.562 470.635C191.083 470.208 191.477 469.721 191.742 469.174C192.008 468.627 192.141 468.051 192.141 467.447V467.26H189.125V465.885H192.141V464.229H193.891V465.885H196.891V467.26H193.875V467.447ZM211.188 467.541C211.182 468.385 211.315 469.213 211.586 470.025C211.862 470.833 212.26 471.557 212.781 472.197C213.302 472.838 213.917 473.327 214.625 473.666L213.562 475.057C212.812 474.676 212.161 474.135 211.609 473.432C211.062 472.729 210.635 471.916 210.328 470.994C210.01 471.979 209.562 472.848 208.984 473.604C208.411 474.354 207.729 474.926 206.938 475.322L205.875 473.932C206.609 473.583 207.245 473.075 207.781 472.408C208.323 471.736 208.734 470.979 209.016 470.135C209.302 469.286 209.448 468.421 209.453 467.541V465.291H211.188V467.541ZM217.203 469.682H219.375V471.166H217.203V478.275H215.469V464.15H217.203V469.682ZM231.109 467.604H233.094V469.057H231.109V472.557H229.375V464.166H231.109V467.604ZM231.109 478.104H221.969V473.182H231.109V478.104ZM223.672 476.697H229.406V474.541H223.672V476.697ZM226.953 469.025H222.25V470.541C223.521 470.536 224.602 470.505 225.492 470.447C226.388 470.39 227.297 470.286 228.219 470.135L228.406 471.51C227.417 471.692 226.43 471.814 225.445 471.877C224.461 471.934 223.203 471.963 221.672 471.963H220.516V467.713H225.25V466.275H220.5V464.885H226.953V469.025ZM246.688 471.182H233.797V469.807H246.688V471.182ZM245.156 468.9H235.438V464.51H245.031V465.9H237.172V467.525H245.156V468.9ZM245.062 475.697H237.031V476.775H245.453V478.135H235.328V474.447H243.359V473.463H235.312V472.15H245.062V475.697ZM259.812 478.275H258.141V464.15H259.812V478.275ZM256.906 477.588H255.25V470.869H253.906C253.854 471.781 253.693 472.572 253.422 473.244C253.156 473.911 252.799 474.424 252.352 474.783C251.904 475.137 251.391 475.312 250.812 475.307C250.203 475.312 249.667 475.111 249.203 474.705C248.745 474.294 248.391 473.708 248.141 472.947C247.891 472.182 247.766 471.286 247.766 470.26C247.766 469.234 247.891 468.343 248.141 467.588C248.391 466.827 248.745 466.244 249.203 465.838C249.667 465.432 250.203 465.229 250.812 465.229C251.38 465.229 251.883 465.398 252.32 465.736C252.763 466.075 253.117 466.562 253.383 467.197C253.654 467.833 253.823 468.588 253.891 469.463H255.25V464.4H256.906V477.588ZM250.812 466.869C250.516 466.864 250.258 466.992 250.039 467.252C249.82 467.512 249.654 467.898 249.539 468.408C249.424 468.919 249.37 469.536 249.375 470.26C249.37 470.984 249.424 471.601 249.539 472.111C249.654 472.622 249.82 473.007 250.039 473.268C250.258 473.528 250.516 473.656 250.812 473.65C251.286 473.661 251.654 473.372 251.914 472.783C252.18 472.195 252.312 471.354 252.312 470.26C252.312 469.166 252.18 468.325 251.914 467.736C251.654 467.148 251.286 466.859 250.812 466.869ZM273.641 478.275H271.984V464.15H273.641V478.275ZM270.641 477.604H269V471.104H266.477C265.628 472.786 264.245 474.182 262.328 475.291L261.344 474.057C262.781 473.213 263.862 472.236 264.586 471.127C265.31 470.012 265.74 468.729 265.875 467.275H262.062V465.869H267.594C267.594 467.291 267.411 468.572 267.047 469.713H269V464.494H270.641V477.604ZM76.8125 491.619H78.7656V493.041H76.8125V496.4H75.0625V488.15H76.8125V491.619ZM72.2031 496.666C73.1615 496.666 73.9948 496.778 74.7031 497.002C75.4167 497.221 75.9661 497.538 76.3516 497.955C76.737 498.372 76.9323 498.869 76.9375 499.447C76.9323 500.036 76.737 500.541 76.3516 500.963C75.9661 501.385 75.4193 501.705 74.7109 501.924C74.0026 502.148 73.1667 502.26 72.2031 502.26C71.2292 502.26 70.3828 502.148 69.6641 501.924C68.9453 501.705 68.3906 501.385 68 500.963C67.6146 500.541 67.4219 500.036 67.4219 499.447C67.4219 498.869 67.6146 498.372 68 497.955C68.3906 497.538 68.9453 497.221 69.6641 497.002C70.388 496.778 71.2344 496.666 72.2031 496.666ZM72.2031 498.057C71.224 498.057 70.4661 498.176 69.9297 498.416C69.3984 498.656 69.1354 498.999 69.1406 499.447C69.1354 499.906 69.3984 500.257 69.9297 500.502C70.4661 500.747 71.224 500.869 72.2031 500.869C73.1667 500.869 73.9141 500.747 74.4453 500.502C74.9818 500.257 75.25 499.906 75.25 499.447C75.25 498.999 74.9818 498.656 74.4453 498.416C73.9141 498.176 73.1667 498.057 72.2031 498.057ZM72.5312 490.557H67.9219V494.104C69.3385 494.098 70.4714 494.067 71.3203 494.01C72.1693 493.947 72.9948 493.833 73.7969 493.666L73.9688 495.057C73.099 495.244 72.1953 495.367 71.2578 495.424C70.3203 495.481 69.0156 495.51 67.3438 495.51H66.2031V489.15H72.5312V490.557ZM91.25 498.479H89.5V488.166H91.25V498.479ZM91.6406 501.994H81.9062V497.494H83.6562V500.588H91.6406V501.994ZM84.75 490.322C84.75 490.989 84.8776 491.624 85.1328 492.229C85.3932 492.833 85.7786 493.369 86.2891 493.838C86.7995 494.301 87.4167 494.656 88.1406 494.9L87.25 496.275C86.4583 495.999 85.776 495.593 85.2031 495.057C84.6302 494.52 84.1849 493.885 83.8672 493.15C83.5443 493.942 83.0885 494.63 82.5 495.213C81.9167 495.796 81.2188 496.234 80.4062 496.525L79.5 495.15C80.2448 494.89 80.875 494.512 81.3906 494.018C81.9115 493.518 82.3021 492.95 82.5625 492.314C82.8229 491.679 82.9531 491.015 82.9531 490.322V488.947H84.75V490.322ZM97.8906 489.135C98.625 489.13 99.2865 489.273 99.875 489.564C100.469 489.851 100.932 490.255 101.266 490.775C101.604 491.296 101.776 491.885 101.781 492.541C101.776 493.202 101.604 493.794 101.266 494.314C100.932 494.835 100.471 495.242 99.8828 495.533C99.2943 495.82 98.6302 495.963 97.8906 495.963C97.1562 495.963 96.4948 495.817 95.9062 495.525C95.3177 495.234 94.8542 494.83 94.5156 494.314C94.1823 493.794 94.0156 493.202 94.0156 492.541C94.0156 491.885 94.1823 491.296 94.5156 490.775C94.8542 490.255 95.3177 489.851 95.9062 489.564C96.5 489.273 97.1615 489.13 97.8906 489.135ZM97.8906 490.635C97.4792 490.635 97.1094 490.713 96.7812 490.869C96.4531 491.025 96.1953 491.249 96.0078 491.541C95.8255 491.827 95.7344 492.161 95.7344 492.541C95.7344 492.926 95.8255 493.265 96.0078 493.557C96.1953 493.843 96.4531 494.064 96.7812 494.221C97.1094 494.372 97.4792 494.447 97.8906 494.447C98.3073 494.447 98.6797 494.372 99.0078 494.221C99.3411 494.064 99.6016 493.843 99.7891 493.557C99.9818 493.265 100.078 492.926 100.078 492.541C100.078 492.161 99.9818 491.827 99.7891 491.541C99.6016 491.249 99.3411 491.025 99.0078 490.869C98.6797 490.713 98.3073 490.635 97.8906 490.635ZM105.078 502.291H103.344V488.15H105.078V502.291ZM93.375 497.916C95.1042 497.916 96.7188 497.887 98.2188 497.83C99.724 497.768 101.151 497.64 102.5 497.447L102.641 498.713C101.245 498.984 99.8255 499.156 98.3828 499.229C96.9453 499.301 95.349 499.338 93.5938 499.338L93.375 497.916ZM123.188 502.275H121.531V495.119H120.078V501.588H118.438V488.4H120.078V493.682H121.531V488.15H123.188V502.275ZM115.328 491.76C115.328 493.098 115.568 494.288 116.047 495.33C116.526 496.372 117.266 497.15 118.266 497.666L117.25 498.994C116.594 498.645 116.039 498.174 115.586 497.58C115.138 496.986 114.784 496.294 114.523 495.502C114.279 496.408 113.927 497.2 113.469 497.877C113.016 498.554 112.448 499.093 111.766 499.494L110.703 498.166C111.703 497.598 112.443 496.755 112.922 495.635C113.401 494.51 113.641 493.218 113.641 491.76V491.088H111.125V489.697H117.641V491.088H115.328V491.76ZM132.234 498.838H125.516V489.479H132.234V498.838ZM127.234 497.447H130.547V490.838H127.234V497.447ZM136.516 502.291H134.766V488.15H136.516V502.291ZM143.609 497.338C143.609 497.958 143.755 498.551 144.047 499.119C144.344 499.682 144.781 500.148 145.359 500.518C145.943 500.122 146.388 499.637 146.695 499.064C147.003 498.486 147.161 497.911 147.172 497.338V496.76H148.875V497.338C148.87 497.843 148.966 498.322 149.164 498.775C149.362 499.229 149.664 499.63 150.07 499.979C150.482 500.327 150.99 500.598 151.594 500.791L150.75 502.057C150.078 501.833 149.51 501.507 149.047 501.08C148.583 500.653 148.224 500.15 147.969 499.572C147.729 500.156 147.393 500.674 146.961 501.127C146.534 501.585 146.016 501.937 145.406 502.182C144.76 501.947 144.219 501.609 143.781 501.166C143.344 500.723 143.008 500.208 142.773 499.619C142.518 500.176 142.161 500.663 141.703 501.08C141.25 501.502 140.703 501.827 140.062 502.057L139.203 500.791C139.792 500.583 140.289 500.299 140.695 499.939C141.102 499.575 141.406 499.169 141.609 498.721C141.812 498.273 141.917 497.812 141.922 497.338V496.76H143.609V497.338ZM150.359 496.166H148.609V488.166H150.359V496.166ZM142.656 488.916C143.375 488.916 144.023 489.059 144.602 489.346C145.18 489.627 145.633 490.023 145.961 490.533C146.289 491.044 146.453 491.624 146.453 492.275C146.453 492.921 146.289 493.499 145.961 494.01C145.633 494.515 145.18 494.911 144.602 495.197C144.023 495.479 143.375 495.619 142.656 495.619C141.932 495.619 141.281 495.479 140.703 495.197C140.125 494.911 139.669 494.515 139.336 494.01C139.008 493.499 138.844 492.921 138.844 492.275C138.844 491.624 139.008 491.044 139.336 490.533C139.669 490.023 140.125 489.627 140.703 489.346C141.281 489.059 141.932 488.916 142.656 488.916ZM142.656 490.385C142.245 490.385 141.878 490.463 141.555 490.619C141.237 490.775 140.987 490.997 140.805 491.283C140.628 491.564 140.542 491.895 140.547 492.275C140.542 492.656 140.628 492.989 140.805 493.275C140.987 493.562 141.237 493.786 141.555 493.947C141.878 494.104 142.245 494.182 142.656 494.182C143.062 494.182 143.422 494.104 143.734 493.947C144.052 493.791 144.299 493.57 144.477 493.283C144.659 492.992 144.75 492.656 144.75 492.275C144.75 491.895 144.661 491.564 144.484 491.283C144.307 490.997 144.06 490.775 143.742 490.619C143.424 490.463 143.062 490.385 142.656 490.385ZM163.859 493.525H154.078V488.666H155.797V492.15H163.859V493.525ZM165.312 496.541H152.406V495.166H165.312V496.541ZM163.953 501.947H153.953V497.791H155.688V500.541H163.953V501.947ZM173.906 489.182C174.542 489.182 175.115 489.351 175.625 489.689C176.141 490.028 176.557 490.51 176.875 491.135H180.172V488.15H181.891V502.291H180.172V496.947H177C176.693 497.65 176.271 498.197 175.734 498.588C175.198 498.973 174.589 499.166 173.906 499.166C173.198 499.166 172.57 498.963 172.023 498.557C171.477 498.15 171.049 497.57 170.742 496.814C170.435 496.059 170.281 495.176 170.281 494.166C170.281 493.166 170.435 492.291 170.742 491.541C171.049 490.786 171.477 490.205 172.023 489.799C172.576 489.387 173.203 489.182 173.906 489.182ZM173.906 490.744C173.516 490.744 173.172 490.882 172.875 491.158C172.578 491.429 172.349 491.822 172.188 492.338C172.026 492.848 171.948 493.458 171.953 494.166C171.948 494.88 172.026 495.494 172.188 496.01C172.349 496.525 172.578 496.921 172.875 497.197C173.172 497.468 173.516 497.604 173.906 497.604C174.297 497.604 174.638 497.468 174.93 497.197C175.227 496.921 175.456 496.525 175.617 496.01C175.784 495.494 175.87 494.88 175.875 494.166C175.87 493.458 175.784 492.846 175.617 492.33C175.456 491.814 175.227 491.421 174.93 491.15C174.638 490.88 174.297 490.744 173.906 490.744ZM177.359 492.557C177.464 493.062 177.516 493.598 177.516 494.166C177.516 494.635 177.479 495.093 177.406 495.541H180.172V492.557H177.359ZM196.766 496.713H183.859V495.338H196.766V496.713ZM195.172 492.072H187.219V493.088H195.453V494.416H185.5V490.807H193.438V489.807H185.453V488.447H195.172V492.072ZM195.219 502.104H185.547V497.729H195.219V502.104ZM187.25 500.697H193.5V499.104H187.25V500.697ZM204.125 488.369C205.198 488.369 206.112 488.463 206.867 488.65C207.628 488.838 208.208 489.114 208.609 489.479C209.01 489.838 209.214 490.275 209.219 490.791C209.214 491.572 208.768 492.171 207.883 492.588C206.997 493.005 205.745 493.218 204.125 493.229C202.5 493.218 201.245 493.005 200.359 492.588C199.474 492.171 199.031 491.572 199.031 490.791C199.031 490.275 199.232 489.838 199.633 489.479C200.034 489.114 200.615 488.838 201.375 488.65C202.135 488.463 203.052 488.369 204.125 488.369ZM204.125 489.65C203.052 489.65 202.237 489.749 201.68 489.947C201.122 490.14 200.849 490.421 200.859 490.791C200.854 491.176 201.125 491.463 201.672 491.65C202.219 491.838 203.036 491.932 204.125 491.932C205.229 491.932 206.055 491.838 206.602 491.65C207.148 491.463 207.422 491.176 207.422 490.791C207.422 490.421 207.143 490.14 206.586 489.947C206.029 489.749 205.208 489.65 204.125 489.65ZM210.578 495.369H197.703V493.979H210.578V495.369ZM208.969 499.775H200.938V500.822H209.359V502.15H199.234V498.541H207.266V497.604H199.219V496.322H208.969V499.775ZM228.484 495.025H226.391V502.244H224.656V488.15H226.391V493.604H228.484V495.025ZM217.547 497.322C219.688 497.286 221.693 497.072 223.562 496.682L223.75 498.15C221.693 498.557 219.448 498.76 217.016 498.76H215.828V489.525H217.547V497.322ZM240.656 494.088H230.781V488.822H232.516V492.682H240.656V494.088ZM242.062 497.291H236.422V502.275H234.672V497.291H229.156V495.869H242.062V497.291ZM247.391 491.854C247.391 492.645 247.484 493.413 247.672 494.158C247.865 494.903 248.164 495.585 248.57 496.205C248.977 496.825 249.484 497.327 250.094 497.713L249.141 499.041C248.526 498.671 248.005 498.176 247.578 497.557C247.151 496.932 246.815 496.215 246.57 495.408C246.305 496.288 245.943 497.07 245.484 497.752C245.026 498.434 244.474 498.973 243.828 499.369L242.75 498.072C243.411 497.671 243.964 497.145 244.406 496.494C244.849 495.843 245.177 495.127 245.391 494.346C245.609 493.564 245.719 492.76 245.719 491.932V489.4H247.391V491.854ZM255.172 502.275H253.5V488.15H255.172V502.275ZM252.234 501.588H250.594V494.447H248.578V493.01H250.594V488.4H252.234V501.588ZM269.719 500.557H256.812V499.135H259.797V495.564C259.224 495.231 258.779 494.817 258.461 494.322C258.148 493.827 257.995 493.27 258 492.65C257.995 491.916 258.216 491.265 258.664 490.697C259.112 490.13 259.734 489.692 260.531 489.385C261.328 489.072 262.229 488.916 263.234 488.916C264.245 488.916 265.148 489.072 265.945 489.385C266.747 489.692 267.372 490.13 267.82 490.697C268.273 491.26 268.5 491.911 268.5 492.65C268.5 493.255 268.346 493.804 268.039 494.299C267.737 494.788 267.307 495.197 266.75 495.525V499.135H269.719V500.557ZM263.234 490.291C262.531 490.291 261.911 490.387 261.375 490.58C260.844 490.768 260.43 491.038 260.133 491.393C259.841 491.747 259.698 492.166 259.703 492.65C259.698 493.13 259.841 493.546 260.133 493.9C260.43 494.255 260.846 494.528 261.383 494.721C261.919 494.913 262.536 495.01 263.234 495.01C263.932 495.01 264.549 494.913 265.086 494.721C265.628 494.528 266.047 494.255 266.344 493.9C266.646 493.546 266.797 493.13 266.797 492.65C266.797 492.171 266.646 491.755 266.344 491.4C266.047 491.041 265.63 490.768 265.094 490.58C264.557 490.387 263.938 490.291 263.234 490.291ZM264.984 499.135V496.189C264.432 496.309 263.849 496.369 263.234 496.369C262.646 496.369 262.073 496.312 261.516 496.197V499.135H264.984ZM273.375 497.557H271.609L271.422 489.572H273.547L273.375 497.557ZM272.5 501.01C272.281 501.01 272.078 500.955 271.891 500.846C271.703 500.736 271.555 500.588 271.445 500.4C271.336 500.213 271.281 500.01 271.281 499.791C271.281 499.577 271.336 499.38 271.445 499.197C271.555 499.01 271.703 498.861 271.891 498.752C272.078 498.643 272.281 498.588 272.5 498.588C272.708 498.588 272.904 498.643 273.086 498.752C273.273 498.861 273.422 499.01 273.531 499.197C273.646 499.38 273.703 499.577 273.703 499.791C273.703 500.01 273.646 500.213 273.531 500.4C273.422 500.588 273.273 500.736 273.086 500.846C272.904 500.955 272.708 501.01 272.5 501.01Z" fill="black"/>
<path d="M324.813 467.885L294.812 477.591L306.283 482.885L318.636 474.061L309.813 486.414L315.107 497.885L324.813 467.885Z" stroke="#0085FF" stroke-width="2" stroke-linecap="round" stroke-linejoin="round"/>
<mask id="path-17-inside-5_44_8327" fill="white">
<path fill-rule="evenodd" clip-rule="evenodd" d="M17.812 564.548C9.52774 564.548 2.81201 571.264 2.81201 579.548V645.873C2.81201 654.157 9.52772 660.873 17.812 660.873H275.067L337.304 672.038C341.039 672.708 344.521 670.075 342.793 667.887L317.802 636.237V579.548C317.802 571.264 311.086 564.548 302.802 564.548H17.812Z"/>
</mask>
<path fill-rule="evenodd" clip-rule="evenodd" d="M17.812 564.548C9.52774 564.548 2.81201 571.264 2.81201 579.548V645.873C2.81201 654.157 9.52772 660.873 17.812 660.873H275.067L337.304 672.038C341.039 672.708 344.521 670.075 342.793 667.887L317.802 636.237V579.548C317.802 571.264 311.086 564.548 302.802 564.548H17.812Z" fill="white"/>
<path d="M275.067 660.873L275.243 659.888L275.156 659.873H275.067V660.873ZM337.304 672.038L337.128 673.022L337.304 672.038ZM342.793 667.887L342.009 668.507L342.793 667.887ZM317.802 636.237H316.802V636.585L317.017 636.857L317.802 636.237ZM3.81201 579.548C3.81201 571.816 10.08 565.548 17.812 565.548V563.548C8.97546 563.548 1.81201 570.711 1.81201 579.548H3.81201ZM3.81201 645.873V579.548H1.81201V645.873H3.81201ZM17.812 659.873C10.08 659.873 3.81201 653.605 3.81201 645.873H1.81201C1.81201 654.709 8.97544 661.873 17.812 661.873V659.873ZM275.067 659.873H17.812V661.873H275.067V659.873ZM337.481 671.053L275.243 659.888L274.89 661.857L337.128 673.022L337.481 671.053ZM342.009 668.507C342.259 668.824 342.28 669.08 342.222 669.301C342.154 669.564 341.936 669.902 341.494 670.236C340.609 670.905 339.092 671.342 337.481 671.053L337.128 673.022C339.252 673.403 341.343 672.858 342.7 671.832C343.38 671.318 343.942 670.63 344.157 669.805C344.384 668.938 344.191 668.044 343.578 667.267L342.009 668.507ZM317.017 636.857L342.009 668.507L343.578 667.267L318.587 635.618L317.017 636.857ZM316.802 579.548V636.237H318.802V579.548H316.802ZM302.802 565.548C310.534 565.548 316.802 571.816 316.802 579.548H318.802C318.802 570.711 311.638 563.548 302.802 563.548V565.548ZM17.812 565.548H302.802V563.548H17.812V565.548Z" fill="black" mask="url(#path-17-inside-5_44_8327)"/>
<path d="M33.8125 627.71C37.7907 627.71 41.6061 626.13 44.4191 623.317C47.2321 620.504 48.8125 616.688 48.8125 612.71C48.8125 608.732 47.2321 604.916 44.4191 602.103C41.6061 599.29 37.7907 597.71 33.8125 597.71C29.8343 597.71 26.0189 599.29 23.2059 602.103C20.3929 604.916 18.8125 608.732 18.8125 612.71C18.8125 616.688 20.3929 620.504 23.2059 623.317C26.0189 626.13 29.8343 627.71 33.8125 627.71Z" stroke="#0085FF" stroke-width="2" stroke-linecap="round" stroke-linejoin="round"/>
<path d="M36.3462 603.253L35.0816 607.979L39.0785 605.671M24.3555 610.176L29.0839 611.443L25.087 613.751M38.4278 620.704C40.2822 619.633 41.6353 617.869 42.1897 615.8C42.744 613.732 42.4542 611.528 41.3839 609.673L27.3947 617.75C28.4666 619.604 30.231 620.957 32.3001 621.51C34.3691 622.064 36.5732 621.775 38.4278 620.704Z" stroke="#0085FF" stroke-width="2" stroke-linecap="round" stroke-linejoin="round"/>
<path d="M82.1562 612.257V613.694H76.5469V615.101H74.8281V613.694H69.2812V612.257H82.1562ZM76.5625 616.007C76.5625 617.304 78.2812 618.46 81.2031 618.71L80.6719 620.022C78.3125 619.804 76.5312 618.983 75.6719 617.772C74.8125 618.968 73.0547 619.804 70.7188 620.022L70.1406 618.71C73.0312 618.46 74.7812 617.257 74.7812 616.007V615.679H76.5625V616.007ZM75.7031 606.163C78.8438 606.163 80.7812 607.116 80.7969 608.804C80.7812 610.476 78.8438 611.444 75.7031 611.429C72.5938 611.444 70.6094 610.476 70.6094 608.804C70.6094 607.116 72.5938 606.163 75.7031 606.163ZM75.7031 607.476C73.6094 607.46 72.4062 607.944 72.4219 608.804C72.4062 609.632 73.6094 610.116 75.7031 610.116C77.7812 610.116 79 609.632 79 608.804C79 607.944 77.7812 607.46 75.7031 607.476ZM86.9688 607.007C88.8828 607.007 90.2969 608.601 90.5469 611.179H93.2344V605.976H94.9531V620.116H93.2344V612.585H90.5625C90.375 615.312 88.9375 616.991 86.9688 616.991C84.8438 616.991 83.3438 615.069 83.3438 611.991C83.3438 608.944 84.8438 607.007 86.9688 607.007ZM86.9688 608.569C85.7969 608.569 85 609.835 85.0156 611.991C85 614.163 85.7969 615.429 86.9688 615.429C88.1406 615.429 88.9219 614.163 88.9375 611.991C88.9219 609.835 88.1406 608.569 86.9688 608.569ZM113.609 612.257V613.694H108V615.101H106.281V613.694H100.734V612.257H113.609ZM108.016 616.007C108.016 617.304 109.734 618.46 112.656 618.71L112.125 620.022C109.766 619.804 107.984 618.983 107.125 617.772C106.266 618.968 104.508 619.804 102.172 620.022L101.594 618.71C104.484 618.46 106.234 617.257 106.234 616.007V615.679H108.016V616.007ZM107.156 606.163C110.297 606.163 112.234 607.116 112.25 608.804C112.234 610.476 110.297 611.444 107.156 611.429C104.047 611.444 102.062 610.476 102.062 608.804C102.062 607.116 104.047 606.163 107.156 606.163ZM107.156 607.476C105.062 607.46 103.859 607.944 103.875 608.804C103.859 609.632 105.062 610.116 107.156 610.116C109.234 610.116 110.453 609.632 110.453 608.804C110.453 607.944 109.234 607.46 107.156 607.476ZM118.422 607.007C120.336 607.007 121.75 608.601 122 611.179H124.688V605.976H126.406V620.116H124.688V612.585H122.016C121.828 615.312 120.391 616.991 118.422 616.991C116.297 616.991 114.797 615.069 114.797 611.991C114.797 608.944 116.297 607.007 118.422 607.007ZM118.422 608.569C117.25 608.569 116.453 609.835 116.469 611.991C116.453 614.163 117.25 615.429 118.422 615.429C119.594 615.429 120.375 614.163 120.391 611.991C120.375 609.835 119.594 608.569 118.422 608.569ZM145.062 612.257V613.694H139.453V615.101H137.734V613.694H132.188V612.257H145.062ZM139.469 616.007C139.469 617.304 141.188 618.46 144.109 618.71L143.578 620.022C141.219 619.804 139.438 618.983 138.578 617.772C137.719 618.968 135.961 619.804 133.625 620.022L133.047 618.71C135.938 618.46 137.688 617.257 137.688 616.007V615.679H139.469V616.007ZM138.609 606.163C141.75 606.163 143.688 607.116 143.703 608.804C143.688 610.476 141.75 611.444 138.609 611.429C135.5 611.444 133.516 610.476 133.516 608.804C133.516 607.116 135.5 606.163 138.609 606.163ZM138.609 607.476C136.516 607.46 135.312 607.944 135.328 608.804C135.312 609.632 136.516 610.116 138.609 610.116C140.688 610.116 141.906 609.632 141.906 608.804C141.906 607.944 140.688 607.46 138.609 607.476ZM149.875 607.007C151.789 607.007 153.203 608.601 153.453 611.179H156.141V605.976H157.859V620.116H156.141V612.585H153.469C153.281 615.312 151.844 616.991 149.875 616.991C147.75 616.991 146.25 615.069 146.25 611.991C146.25 608.944 147.75 607.007 149.875 607.007ZM149.875 608.569C148.703 608.569 147.906 609.835 147.922 611.991C147.906 614.163 148.703 615.429 149.875 615.429C151.047 615.429 151.828 614.163 151.844 611.991C151.828 609.835 151.047 608.569 149.875 608.569ZM171.609 605.991V614.319H169.859V605.991H171.609ZM166.828 614.585C169.781 614.585 171.641 615.601 171.641 617.335C171.641 619.069 169.781 620.085 166.828 620.085C163.828 620.085 162 619.069 162 617.335C162 615.601 163.828 614.585 166.828 614.585ZM166.828 615.944C164.844 615.944 163.75 616.413 163.75 617.335C163.75 618.226 164.844 618.726 166.828 618.726C168.797 618.726 169.922 618.226 169.938 617.335C169.922 616.413 168.797 615.944 166.828 615.944ZM163.906 606.819C166.078 606.819 167.703 608.21 167.703 610.179C167.703 612.132 166.078 613.522 163.906 613.522C161.719 613.522 160.094 612.132 160.094 610.179C160.094 608.21 161.719 606.819 163.906 606.819ZM163.906 608.288C162.672 608.288 161.781 609.007 161.797 610.179C161.781 611.335 162.672 612.054 163.906 612.054C165.125 612.054 166 611.335 166 610.179C166 609.007 165.125 608.288 163.906 608.288ZM176.578 607.397L176.406 615.382H174.641L174.453 607.397H176.578ZM175.531 618.835C174.859 618.835 174.312 618.288 174.312 617.616C174.312 616.96 174.859 616.413 175.531 616.413C176.172 616.413 176.734 616.96 176.734 617.616C176.734 618.288 176.172 618.835 175.531 618.835Z" fill="black"/>
</svg>
